<ttFont>
    <TTGlyph name=".notdef" xMin="193" yMin="0" xMax="1034" yMax="1462">
      <contour>
        <pt x="1034" y="1462" on="1"/>
        <pt x="1034" y="0" on="1"/>
        <pt x="193" y="0" on="1"/>
        <pt x="193" y="1462" on="1"/>
      </contour>
      <contour>
        <pt x="930" y="104" on="1"/>
        <pt x="930" y="1358" on="1"/>
        <pt x="297" y="1358" on="1"/>
        <pt x="297" y="104" on="1"/>
      </contour>
    </TTGlyph>
    <TTGlyph name="A" xMin="-111" yMin="0" xMax="979" yMax="1468">
      <contour>
        <pt x="293" y="520" on="1"/>
        <pt x="6" y="0" on="1"/>
        <pt x="-111" y="0" on="1"/>
        <pt x="711" y="1468" on="1"/>
        <pt x="778" y="1468" on="1"/>
        <pt x="979" y="0" on="1"/>
        <pt x="874" y="0" on="1"/>
        <pt x="805" y="520" on="1"/>
      </contour>
      <contour>
        <pt x="793" y="612" on="1"/>
        <pt x="754" y="903" on="1"/>
        <pt x="722" y="1144" on="0"/>
        <pt x="715" y="1305" on="1"/>
        <pt x="695" y="1264" on="0"/>
        <pt x="623" y="1123" on="0"/>
        <pt x="344" y="612" on="1"/>
      </contour>
    </TTGlyph>
    <TTGlyph name="AE" xMin="-117" yMin="0" xMax="1712" yMax="1462">
      <contour>
        <pt x="676" y="0" on="1"/>
        <pt x="786" y="522" on="1"/>
        <pt x="342" y="522" on="1"/>
        <pt x="14" y="0" on="1"/>
        <pt x="-117" y="0" on="1"/>
        <pt x="829" y="1462" on="1"/>
        <pt x="1712" y="1462" on="1"/>
        <pt x="1692" y="1368" on="1"/>
        <pt x="1067" y="1368" on="1"/>
        <pt x="950" y="815" on="1"/>
        <pt x="1540" y="815" on="1"/>
        <pt x="1520" y="721" on="1"/>
        <pt x="932" y="721" on="1"/>
        <pt x="797" y="94" on="1"/>
        <pt x="1423" y="94" on="1"/>
        <pt x="1403" y="0" on="1"/>
      </contour>
      <contour>
        <pt x="809" y="627" on="1"/>
        <pt x="965" y="1368" on="1"/>
        <pt x="877" y="1368" on="1"/>
        <pt x="408" y="627" on="1"/>
      </contour>
    </TTGlyph>
    <TTGlyph name="Aacute" xMin="-111" yMin="0" xMax="1085" yMax="1907">
      <contour>
        <pt x="668" y="1579" on="1"/>
        <pt x="668" y="1600" on="1"/>
        <pt x="736" y="1652" on="0"/>
        <pt x="818" y="1742" on="1"/>
        <pt x="902" y="1832" on="0"/>
        <pt x="948" y="1907" on="1"/>
        <pt x="1085" y="1907" on="1"/>
        <pt x="1085" y="1884" on="1"/>
        <pt x="1035" y="1819" on="0"/>
        <pt x="927" y="1725" on="1"/>
        <pt x="818" y="1632" on="0"/>
        <pt x="735" y="1579" on="1"/>
      </contour>
      <contour>
        <pt x="6" y="0" on="1"/>
        <pt x="-111" y="0" on="1"/>
        <pt x="711" y="1468" on="1"/>
        <pt x="778" y="1468" on="1"/>
        <pt x="979" y="0" on="1"/>
        <pt x="874" y="0" on="1"/>
        <pt x="805" y="520" on="1"/>
        <pt x="293" y="520" on="1"/>
      </contour>
      <contour>
        <pt x="793" y="612" on="1"/>
        <pt x="754" y="903" on="1"/>
        <pt x="722" y="1144" on="0"/>
        <pt x="715" y="1305" on="1"/>
        <pt x="695" y="1264" on="0"/>
        <pt x="623" y="1123" on="0"/>
        <pt x="344" y="612" on="1"/>
      </contour>
    </TTGlyph>
    <TTGlyph name="Acircumflex" xMin="-111" yMin="0" xMax="1007" yMax="1907">
      <contour>
        <pt x="1007" y="1579" on="1"/>
        <pt x="958" y="1579" on="1"/>
        <pt x="890" y="1637" on="0"/>
        <pt x="797" y="1786" on="1"/>
        <pt x="740" y="1727" on="0"/>
        <pt x="595" y="1609" on="0"/>
        <pt x="547" y="1579" on="1"/>
        <pt x="493" y="1579" on="1"/>
        <pt x="493" y="1608" on="1"/>
        <pt x="561" y="1664" on="0"/>
        <pt x="742" y="1852" on="0"/>
        <pt x="778" y="1907" on="1"/>
        <pt x="842" y="1907" on="1"/>
        <pt x="864" y="1842" on="0"/>
        <pt x="961" y="1670" on="0"/>
        <pt x="1007" y="1608" on="1"/>
      </contour>
      <contour>
        <pt x="6" y="0" on="1"/>
        <pt x="-111" y="0" on="1"/>
        <pt x="711" y="1468" on="1"/>
        <pt x="778" y="1468" on="1"/>
        <pt x="979" y="0" on="1"/>
        <pt x="874" y="0" on="1"/>
        <pt x="805" y="520" on="1"/>
        <pt x="293" y="520" on="1"/>
      </contour>
      <contour>
        <pt x="793" y="612" on="1"/>
        <pt x="754" y="903" on="1"/>
        <pt x="722" y="1144" on="0"/>
        <pt x="715" y="1305" on="1"/>
        <pt x="695" y="1264" on="0"/>
        <pt x="623" y="1123" on="0"/>
        <pt x="344" y="612" on="1"/>
      </contour>
    </TTGlyph>
    <TTGlyph name="Adieresis" xMin="-111" yMin="0" xMax="1010" yMax="1811">
      <contour>
        <pt x="535" y="1704" on="1"/>
        <pt x="535" y="1753" on="0"/>
        <pt x="576" y="1811" on="0"/>
        <pt x="612" y="1811" on="1"/>
        <pt x="666" y="1811" on="0"/>
        <pt x="666" y="1747" on="1"/>
        <pt x="666" y="1699" on="0"/>
        <pt x="624" y="1641" on="0"/>
        <pt x="590" y="1641" on="1"/>
        <pt x="535" y="1641" on="0"/>
      </contour>
      <contour>
        <pt x="879" y="1704" on="1"/>
        <pt x="879" y="1753" on="0"/>
        <pt x="920" y="1811" on="0"/>
        <pt x="956" y="1811" on="1"/>
        <pt x="1010" y="1811" on="0"/>
        <pt x="1010" y="1747" on="1"/>
        <pt x="1010" y="1699" on="0"/>
        <pt x="968" y="1641" on="0"/>
        <pt x="934" y="1641" on="1"/>
        <pt x="879" y="1641" on="0"/>
      </contour>
      <contour>
        <pt x="6" y="0" on="1"/>
        <pt x="-111" y="0" on="1"/>
        <pt x="711" y="1468" on="1"/>
        <pt x="778" y="1468" on="1"/>
        <pt x="979" y="0" on="1"/>
        <pt x="874" y="0" on="1"/>
        <pt x="805" y="520" on="1"/>
        <pt x="293" y="520" on="1"/>
      </contour>
      <contour>
        <pt x="793" y="612" on="1"/>
        <pt x="754" y="903" on="1"/>
        <pt x="722" y="1144" on="0"/>
        <pt x="715" y="1305" on="1"/>
        <pt x="695" y="1264" on="0"/>
        <pt x="623" y="1123" on="0"/>
        <pt x="344" y="612" on="1"/>
      </contour>
    </TTGlyph>
    <TTGlyph name="Agrave" xMin="-111" yMin="0" xMax="979" yMax="1907">
      <contour>
        <pt x="815" y="1579" on="1"/>
        <pt x="749" y="1579" on="1"/>
        <pt x="700" y="1632" on="0"/>
        <pt x="570" y="1817" on="0"/>
        <pt x="536" y="1886" on="1"/>
        <pt x="536" y="1907" on="1"/>
        <pt x="651" y="1907" on="1"/>
        <pt x="699" y="1775" on="0"/>
        <pt x="815" y="1604" on="1"/>
      </contour>
      <contour>
        <pt x="6" y="0" on="1"/>
        <pt x="-111" y="0" on="1"/>
        <pt x="711" y="1468" on="1"/>
        <pt x="778" y="1468" on="1"/>
        <pt x="979" y="0" on="1"/>
        <pt x="874" y="0" on="1"/>
        <pt x="805" y="520" on="1"/>
        <pt x="293" y="520" on="1"/>
      </contour>
      <contour>
        <pt x="793" y="612" on="1"/>
        <pt x="754" y="903" on="1"/>
        <pt x="722" y="1144" on="0"/>
        <pt x="715" y="1305" on="1"/>
        <pt x="695" y="1264" on="0"/>
        <pt x="623" y="1123" on="0"/>
        <pt x="344" y="612" on="1"/>
      </contour>
    </TTGlyph>
    <TTGlyph name="Aring" xMin="-111" yMin="0" xMax="979" yMax="1792">
      <contour>
        <pt x="611" y="1420" on="0"/>
        <pt x="539" y="1518" on="0"/>
        <pt x="539" y="1680" on="0"/>
        <pt x="598" y="1736" on="1"/>
        <pt x="659" y="1792" on="0"/>
        <pt x="837" y="1792" on="0"/>
        <pt x="945" y="1691" on="0"/>
        <pt x="945" y="1508" on="0"/>
        <pt x="887" y="1451" on="1"/>
        <pt x="846" y="1411" on="0"/>
        <pt x="787" y="1399" on="1"/>
        <pt x="979" y="0" on="1"/>
        <pt x="874" y="0" on="1"/>
        <pt x="805" y="520" on="1"/>
        <pt x="293" y="520" on="1"/>
        <pt x="6" y="0" on="1"/>
        <pt x="-111" y="0" on="1"/>
        <pt x="675" y="1403" on="1"/>
      </contour>
      <contour>
        <pt x="687" y="1721" on="0"/>
        <pt x="619" y="1650" on="0"/>
        <pt x="619" y="1535" on="0"/>
        <pt x="685" y="1469" on="0"/>
        <pt x="798" y="1469" on="0"/>
        <pt x="867" y="1541" on="0"/>
        <pt x="867" y="1654" on="0"/>
        <pt x="800" y="1721" on="0"/>
      </contour>
      <contour>
        <pt x="793" y="612" on="1"/>
        <pt x="754" y="903" on="1"/>
        <pt x="722" y="1144" on="0"/>
        <pt x="715" y="1305" on="1"/>
        <pt x="695" y="1264" on="0"/>
        <pt x="623" y="1123" on="0"/>
        <pt x="344" y="612" on="1"/>
      </contour>
    </TTGlyph>
    <TTGlyph name="Atilde" xMin="-111" yMin="0" xMax="1110" yMax="1815">
      <contour>
        <pt x="911" y="1587" on="1"/>
        <pt x="851" y="1587" on="0"/>
        <pt x="758" y="1651" on="1"/>
        <pt x="725" y="1674" on="0"/>
        <pt x="700" y="1690" on="0"/>
        <pt x="649" y="1710" on="0"/>
        <pt x="625" y="1710" on="1"/>
        <pt x="579" y="1710" on="0"/>
        <pt x="521" y="1652" on="0"/>
        <pt x="500" y="1581" on="1"/>
        <pt x="426" y="1581" on="1"/>
        <pt x="445" y="1690" on="0"/>
        <pt x="550" y="1806" on="0"/>
        <pt x="631" y="1806" on="1"/>
        <pt x="671" y="1806" on="0"/>
        <pt x="736" y="1779" on="0"/>
        <pt x="822" y="1720" on="1"/>
        <pt x="874" y="1684" on="0"/>
        <pt x="959" y="1684" on="0"/>
        <pt x="1016" y="1746" on="0"/>
        <pt x="1034" y="1815" on="1"/>
        <pt x="1110" y="1815" on="1"/>
        <pt x="1084" y="1698" on="0"/>
        <pt x="987" y="1587" on="0"/>
      </contour>
      <contour>
        <pt x="6" y="0" on="1"/>
        <pt x="-111" y="0" on="1"/>
        <pt x="711" y="1468" on="1"/>
        <pt x="778" y="1468" on="1"/>
        <pt x="979" y="0" on="1"/>
        <pt x="874" y="0" on="1"/>
        <pt x="805" y="520" on="1"/>
        <pt x="293" y="520" on="1"/>
      </contour>
      <contour>
        <pt x="793" y="612" on="1"/>
        <pt x="754" y="903" on="1"/>
        <pt x="722" y="1144" on="0"/>
        <pt x="715" y="1305" on="1"/>
        <pt x="695" y="1264" on="0"/>
        <pt x="623" y="1123" on="0"/>
        <pt x="344" y="612" on="1"/>
      </contour>
    </TTGlyph>
    <TTGlyph name="B" xMin="102" yMin="0" xMax="1182" yMax="1462">
      <contour>
        <pt x="791" y="1462" on="1"/>
        <pt x="980" y="1462" on="0"/>
        <pt x="1182" y="1294" on="0"/>
        <pt x="1182" y="985" on="0"/>
        <pt x="1003" y="792" on="0"/>
        <pt x="838" y="764" on="1"/>
        <pt x="838" y="760" on="1"/>
        <pt x="962" y="730" on="0"/>
        <pt x="1090" y="566" on="0"/>
        <pt x="1090" y="442" on="1"/>
        <pt x="1090" y="236" on="0"/>
        <pt x="810" y="0" on="0"/>
        <pt x="559" y="0" on="1"/>
        <pt x="102" y="0" on="1"/>
        <pt x="412" y="1462" on="1"/>
      </contour>
      <contour>
        <pt x="655" y="811" on="1"/>
        <pt x="861" y="811" on="0"/>
        <pt x="1075" y="973" on="0"/>
        <pt x="1075" y="1130" on="1"/>
        <pt x="1075" y="1249" on="0"/>
        <pt x="919" y="1372" on="0"/>
        <pt x="768" y="1372" on="1"/>
        <pt x="496" y="1372" on="1"/>
        <pt x="377" y="811" on="1"/>
      </contour>
      <contour>
        <pt x="565" y="90" on="1"/>
        <pt x="767" y="90" on="0"/>
        <pt x="983" y="266" on="0"/>
        <pt x="983" y="434" on="1"/>
        <pt x="983" y="579" on="0"/>
        <pt x="803" y="721" on="0"/>
        <pt x="618" y="721" on="1"/>
        <pt x="358" y="721" on="1"/>
        <pt x="223" y="90" on="1"/>
      </contour>
    </TTGlyph>
    <TTGlyph name="C" xMin="170" yMin="-20" xMax="1268" yMax="1483">
      <contour>
        <pt x="961" y="1389" on="1"/>
        <pt x="764" y="1389" on="0"/>
        <pt x="457" y="1182" on="0"/>
        <pt x="274" y="780" on="0"/>
        <pt x="274" y="314" on="0"/>
        <pt x="495" y="72" on="0"/>
        <pt x="702" y="72" on="1"/>
        <pt x="843" y="72" on="0"/>
        <pt x="1006" y="123" on="1"/>
        <pt x="1006" y="29" on="1"/>
        <pt x="852" y="-20" on="0"/>
        <pt x="690" y="-20" on="1"/>
        <pt x="437" y="-20" on="0"/>
        <pt x="170" y="271" on="0"/>
        <pt x="170" y="800" on="0"/>
        <pt x="274" y="1023" on="1"/>
        <pt x="379" y="1246" on="0"/>
        <pt x="740" y="1483" on="0"/>
        <pt x="961" y="1483" on="1"/>
        <pt x="1137" y="1483" on="0"/>
        <pt x="1268" y="1415" on="1"/>
        <pt x="1223" y="1325" on="1"/>
        <pt x="1106" y="1389" on="0"/>
      </contour>
    </TTGlyph>
    <TTGlyph name="Ccedilla" xMin="170" yMin="-492" xMax="1268" yMax="1483">
      <contour>
        <pt x="961" y="1389" on="1"/>
        <pt x="764" y="1389" on="0"/>
        <pt x="457" y="1182" on="0"/>
        <pt x="274" y="780" on="0"/>
        <pt x="274" y="314" on="0"/>
        <pt x="495" y="72" on="0"/>
        <pt x="702" y="72" on="1"/>
        <pt x="843" y="72" on="0"/>
        <pt x="1006" y="123" on="1"/>
        <pt x="1006" y="29" on="1"/>
        <pt x="852" y="-20" on="0"/>
        <pt x="690" y="-20" on="1"/>
        <pt x="679" y="-20" on="1"/>
        <pt x="612" y="-137" on="1"/>
        <pt x="752" y="-167" on="0"/>
        <pt x="752" y="-289" on="1"/>
        <pt x="752" y="-384" on="0"/>
        <pt x="599" y="-492" on="0"/>
        <pt x="459" y="-492" on="1"/>
        <pt x="410" y="-492" on="0"/>
        <pt x="381" y="-485" on="1"/>
        <pt x="381" y="-406" on="1"/>
        <pt x="411" y="-412" on="0"/>
        <pt x="453" y="-412" on="1"/>
        <pt x="651" y="-412" on="0"/>
        <pt x="651" y="-297" on="1"/>
        <pt x="651" y="-200" on="0"/>
        <pt x="500" y="-190" on="1"/>
        <pt x="601" y="-15" on="1"/>
        <pt x="414" y="6" on="0"/>
        <pt x="304" y="125" on="1"/>
        <pt x="170" y="271" on="0"/>
        <pt x="170" y="800" on="0"/>
        <pt x="274" y="1023" on="1"/>
        <pt x="379" y="1246" on="0"/>
        <pt x="740" y="1483" on="0"/>
        <pt x="961" y="1483" on="1"/>
        <pt x="1137" y="1483" on="0"/>
        <pt x="1268" y="1415" on="1"/>
        <pt x="1223" y="1325" on="1"/>
        <pt x="1106" y="1389" on="0"/>
      </contour>
    </TTGlyph>
    <TTGlyph name="D" xMin="102" yMin="0" xMax="1288" yMax="1462">
      <contour>
        <pt x="717" y="1462" on="1"/>
        <pt x="999" y="1462" on="0"/>
        <pt x="1288" y="1167" on="0"/>
        <pt x="1288" y="879" on="1"/>
        <pt x="1288" y="626" on="0"/>
        <pt x="1070" y="211" on="0"/>
        <pt x="689" y="0" on="0"/>
        <pt x="432" y="0" on="1"/>
        <pt x="102" y="0" on="1"/>
        <pt x="412" y="1462" on="1"/>
      </contour>
      <contour>
        <pt x="430" y="90" on="1"/>
        <pt x="657" y="90" on="0"/>
        <pt x="994" y="278" on="0"/>
        <pt x="1178" y="642" on="0"/>
        <pt x="1178" y="872" on="1"/>
        <pt x="1178" y="1370" on="0"/>
        <pt x="702" y="1370" on="1"/>
        <pt x="496" y="1370" on="1"/>
        <pt x="221" y="90" on="1"/>
      </contour>
    </TTGlyph>
    <TTGlyph name="E" xMin="102" yMin="0" xMax="1139" yMax="1462">
      <contour>
        <pt x="102" y="0" on="1"/>
        <pt x="412" y="1462" on="1"/>
        <pt x="1139" y="1462" on="1"/>
        <pt x="1118" y="1368" on="1"/>
        <pt x="494" y="1368" on="1"/>
        <pt x="377" y="815" on="1"/>
        <pt x="967" y="815" on="1"/>
        <pt x="946" y="721" on="1"/>
        <pt x="358" y="721" on="1"/>
        <pt x="223" y="94" on="1"/>
        <pt x="850" y="94" on="1"/>
        <pt x="829" y="0" on="1"/>
      </contour>
    </TTGlyph>
    <TTGlyph name="Eacute" xMin="102" yMin="0" xMax="1139" yMax="1907">
      <contour>
        <pt x="654" y="1579" on="1"/>
        <pt x="654" y="1600" on="1"/>
        <pt x="722" y="1652" on="0"/>
        <pt x="804" y="1742" on="1"/>
        <pt x="888" y="1832" on="0"/>
        <pt x="934" y="1907" on="1"/>
        <pt x="1071" y="1907" on="1"/>
        <pt x="1071" y="1884" on="1"/>
        <pt x="1021" y="1819" on="0"/>
        <pt x="913" y="1725" on="1"/>
        <pt x="804" y="1632" on="0"/>
        <pt x="721" y="1579" on="1"/>
      </contour>
      <contour>
        <pt x="412" y="1462" on="1"/>
        <pt x="1139" y="1462" on="1"/>
        <pt x="1118" y="1368" on="1"/>
        <pt x="494" y="1368" on="1"/>
        <pt x="377" y="815" on="1"/>
        <pt x="967" y="815" on="1"/>
        <pt x="946" y="721" on="1"/>
        <pt x="358" y="721" on="1"/>
        <pt x="223" y="94" on="1"/>
        <pt x="850" y="94" on="1"/>
        <pt x="829" y="0" on="1"/>
        <pt x="102" y="0" on="1"/>
      </contour>
    </TTGlyph>
    <TTGlyph name="Ecircumflex" xMin="102" yMin="0" xMax="1139" yMax="1907">
      <contour>
        <pt x="1036" y="1579" on="1"/>
        <pt x="987" y="1579" on="1"/>
        <pt x="919" y="1637" on="0"/>
        <pt x="826" y="1786" on="1"/>
        <pt x="769" y="1727" on="0"/>
        <pt x="624" y="1609" on="0"/>
        <pt x="576" y="1579" on="1"/>
        <pt x="522" y="1579" on="1"/>
        <pt x="522" y="1608" on="1"/>
        <pt x="590" y="1664" on="0"/>
        <pt x="771" y="1852" on="0"/>
        <pt x="807" y="1907" on="1"/>
        <pt x="871" y="1907" on="1"/>
        <pt x="894" y="1842" on="0"/>
        <pt x="990" y="1670" on="0"/>
        <pt x="1036" y="1608" on="1"/>
      </contour>
      <contour>
        <pt x="412" y="1462" on="1"/>
        <pt x="1139" y="1462" on="1"/>
        <pt x="1118" y="1368" on="1"/>
        <pt x="494" y="1368" on="1"/>
        <pt x="377" y="815" on="1"/>
        <pt x="967" y="815" on="1"/>
        <pt x="946" y="721" on="1"/>
        <pt x="358" y="721" on="1"/>
        <pt x="223" y="94" on="1"/>
        <pt x="850" y="94" on="1"/>
        <pt x="829" y="0" on="1"/>
        <pt x="102" y="0" on="1"/>
      </contour>
    </TTGlyph>
    <TTGlyph name="Edieresis" xMin="102" yMin="0" xMax="1139" yMax="1811">
      <contour>
        <pt x="558" y="1704" on="1"/>
        <pt x="558" y="1753" on="0"/>
        <pt x="599" y="1811" on="0"/>
        <pt x="635" y="1811" on="1"/>
        <pt x="689" y="1811" on="0"/>
        <pt x="689" y="1747" on="1"/>
        <pt x="689" y="1699" on="0"/>
        <pt x="647" y="1641" on="0"/>
        <pt x="613" y="1641" on="1"/>
        <pt x="558" y="1641" on="0"/>
      </contour>
      <contour>
        <pt x="902" y="1704" on="1"/>
        <pt x="902" y="1753" on="0"/>
        <pt x="943" y="1811" on="0"/>
        <pt x="979" y="1811" on="1"/>
        <pt x="1033" y="1811" on="0"/>
        <pt x="1033" y="1747" on="1"/>
        <pt x="1033" y="1699" on="0"/>
        <pt x="991" y="1641" on="0"/>
        <pt x="957" y="1641" on="1"/>
        <pt x="902" y="1641" on="0"/>
      </contour>
      <contour>
        <pt x="412" y="1462" on="1"/>
        <pt x="1139" y="1462" on="1"/>
        <pt x="1118" y="1368" on="1"/>
        <pt x="494" y="1368" on="1"/>
        <pt x="377" y="815" on="1"/>
        <pt x="967" y="815" on="1"/>
        <pt x="946" y="721" on="1"/>
        <pt x="358" y="721" on="1"/>
        <pt x="223" y="94" on="1"/>
        <pt x="850" y="94" on="1"/>
        <pt x="829" y="0" on="1"/>
        <pt x="102" y="0" on="1"/>
      </contour>
    </TTGlyph>
    <TTGlyph name="Egrave" xMin="102" yMin="0" xMax="1139" yMax="1907">
      <contour>
        <pt x="891" y="1579" on="1"/>
        <pt x="825" y="1579" on="1"/>
        <pt x="776" y="1632" on="0"/>
        <pt x="646" y="1817" on="0"/>
        <pt x="612" y="1886" on="1"/>
        <pt x="612" y="1907" on="1"/>
        <pt x="727" y="1907" on="1"/>
        <pt x="775" y="1775" on="0"/>
        <pt x="891" y="1604" on="1"/>
      </contour>
      <contour>
        <pt x="412" y="1462" on="1"/>
        <pt x="1139" y="1462" on="1"/>
        <pt x="1118" y="1368" on="1"/>
        <pt x="494" y="1368" on="1"/>
        <pt x="377" y="815" on="1"/>
        <pt x="967" y="815" on="1"/>
        <pt x="946" y="721" on="1"/>
        <pt x="358" y="721" on="1"/>
        <pt x="223" y="94" on="1"/>
        <pt x="850" y="94" on="1"/>
        <pt x="829" y="0" on="1"/>
        <pt x="102" y="0" on="1"/>
      </contour>
    </TTGlyph>
    <TTGlyph name="Euro" xMin="80" yMin="-20" xMax="1282" yMax="1483">
      <contour>
        <pt x="991" y="1389" on="1"/>
        <pt x="805" y="1389" on="0"/>
        <pt x="516" y="1148" on="0"/>
        <pt x="434" y="922" on="1"/>
        <pt x="891" y="922" on="1"/>
        <pt x="870" y="840" on="1"/>
        <pt x="410" y="840" on="1"/>
        <pt x="380" y="743" on="0"/>
        <pt x="371" y="623" on="1"/>
        <pt x="813" y="623" on="1"/>
        <pt x="793" y="541" on="1"/>
        <pt x="369" y="541" on="1"/>
        <pt x="369" y="300" on="0"/>
        <pt x="545" y="72" on="0"/>
        <pt x="723" y="72" on="1"/>
        <pt x="838" y="72" on="0"/>
        <pt x="975" y="129" on="1"/>
        <pt x="975" y="35" on="1"/>
        <pt x="847" y="-20" on="0"/>
        <pt x="705" y="-20" on="1"/>
        <pt x="495" y="-20" on="0"/>
        <pt x="264" y="259" on="0"/>
        <pt x="264" y="514" on="1"/>
        <pt x="264" y="541" on="1"/>
        <pt x="80" y="541" on="1"/>
        <pt x="96" y="623" on="1"/>
        <pt x="268" y="623" on="1"/>
        <pt x="272" y="722" on="0"/>
        <pt x="303" y="840" on="1"/>
        <pt x="133" y="840" on="1"/>
        <pt x="152" y="922" on="1"/>
        <pt x="326" y="922" on="1"/>
        <pt x="420" y="1195" on="0"/>
        <pt x="772" y="1483" on="0"/>
        <pt x="995" y="1483" on="1"/>
        <pt x="1160" y="1483" on="0"/>
        <pt x="1282" y="1393" on="1"/>
        <pt x="1229" y="1311" on="1"/>
        <pt x="1127" y="1389" on="0"/>
      </contour>
    </TTGlyph>
    <TTGlyph name="F" xMin="102" yMin="0" xMax="1120" yMax="1462">
      <contour>
        <pt x="102" y="0" on="1"/>
        <pt x="412" y="1462" on="1"/>
        <pt x="1120" y="1462" on="1"/>
        <pt x="1100" y="1368" on="1"/>
        <pt x="496" y="1368" on="1"/>
        <pt x="362" y="748" on="1"/>
        <pt x="932" y="748" on="1"/>
        <pt x="911" y="653" on="1"/>
        <pt x="342" y="653" on="1"/>
        <pt x="205" y="0" on="1"/>
      </contour>
    </TTGlyph>
    <TTGlyph name="G" xMin="170" yMin="-20" xMax="1341" yMax="1483">
      <contour>
        <pt x="707" y="-20" on="1"/>
        <pt x="450" y="-20" on="0"/>
        <pt x="170" y="272" on="0"/>
        <pt x="170" y="812" on="0"/>
        <pt x="380" y="1249" on="0"/>
        <pt x="558" y="1366" on="1"/>
        <pt x="736" y="1483" on="0"/>
        <pt x="954" y="1483" on="1"/>
        <pt x="1069" y="1483" on="0"/>
        <pt x="1251" y="1444" on="0"/>
        <pt x="1341" y="1405" on="1"/>
        <pt x="1303" y="1311" on="1"/>
        <pt x="1199" y="1355" on="0"/>
        <pt x="1036" y="1389" on="0"/>
        <pt x="946" y="1389" on="1"/>
        <pt x="762" y="1389" on="0"/>
        <pt x="452" y="1174" on="0"/>
        <pt x="274" y="785" on="0"/>
        <pt x="274" y="318" on="0"/>
        <pt x="503" y="72" on="0"/>
        <pt x="715" y="72" on="1"/>
        <pt x="868" y="72" on="0"/>
        <pt x="1024" y="119" on="1"/>
        <pt x="1141" y="645" on="1"/>
        <pt x="838" y="645" on="1"/>
        <pt x="856" y="735" on="1"/>
        <pt x="1262" y="735" on="1"/>
        <pt x="1112" y="53" on="1"/>
        <pt x="902" y="-20" on="0"/>
      </contour>
    </TTGlyph>
    <TTGlyph name="H" xMin="102" yMin="0" xMax="1372" yMax="1462">
      <contour>
        <pt x="963" y="0" on="1"/>
        <pt x="1114" y="719" on="1"/>
        <pt x="354" y="719" on="1"/>
        <pt x="205" y="0" on="1"/>
        <pt x="102" y="0" on="1"/>
        <pt x="412" y="1462" on="1"/>
        <pt x="514" y="1462" on="1"/>
        <pt x="375" y="813" on="1"/>
        <pt x="1135" y="813" on="1"/>
        <pt x="1272" y="1462" on="1"/>
        <pt x="1372" y="1462" on="1"/>
        <pt x="1063" y="0" on="1"/>
      </contour>
    </TTGlyph>
    <TTGlyph name="I" xMin="102" yMin="0" xMax="510" yMax="1462">
      <contour>
        <pt x="412" y="1462" on="1"/>
        <pt x="510" y="1462" on="1"/>
        <pt x="201" y="0" on="1"/>
        <pt x="102" y="0" on="1"/>
      </contour>
    </TTGlyph>
    <TTGlyph name="Iacute" xMin="102" yMin="0" xMax="836" yMax="1907">
      <contour>
        <pt x="419" y="1579" on="1"/>
        <pt x="419" y="1600" on="1"/>
        <pt x="487" y="1652" on="0"/>
        <pt x="569" y="1742" on="1"/>
        <pt x="653" y="1832" on="0"/>
        <pt x="699" y="1907" on="1"/>
        <pt x="836" y="1907" on="1"/>
        <pt x="836" y="1884" on="1"/>
        <pt x="786" y="1819" on="0"/>
        <pt x="678" y="1725" on="1"/>
        <pt x="569" y="1632" on="0"/>
        <pt x="486" y="1579" on="1"/>
      </contour>
      <contour>
        <pt x="510" y="1462" on="1"/>
        <pt x="201" y="0" on="1"/>
        <pt x="102" y="0" on="1"/>
        <pt x="412" y="1462" on="1"/>
      </contour>
    </TTGlyph>
    <TTGlyph name="Icircumflex" xMin="102" yMin="0" xMax="738" yMax="1907">
      <contour>
        <pt x="738" y="1579" on="1"/>
        <pt x="689" y="1579" on="1"/>
        <pt x="621" y="1637" on="0"/>
        <pt x="528" y="1786" on="1"/>
        <pt x="471" y="1727" on="0"/>
        <pt x="326" y="1609" on="0"/>
        <pt x="278" y="1579" on="1"/>
        <pt x="224" y="1579" on="1"/>
        <pt x="224" y="1608" on="1"/>
        <pt x="292" y="1664" on="0"/>
        <pt x="473" y="1852" on="0"/>
        <pt x="509" y="1907" on="1"/>
        <pt x="573" y="1907" on="1"/>
        <pt x="596" y="1842" on="0"/>
        <pt x="692" y="1670" on="0"/>
        <pt x="738" y="1608" on="1"/>
      </contour>
      <contour>
        <pt x="510" y="1462" on="1"/>
        <pt x="201" y="0" on="1"/>
        <pt x="102" y="0" on="1"/>
        <pt x="412" y="1462" on="1"/>
      </contour>
    </TTGlyph>
    <TTGlyph name="Idieresis" xMin="102" yMin="0" xMax="735" yMax="1811">
      <contour>
        <pt x="260" y="1704" on="1"/>
        <pt x="260" y="1753" on="0"/>
        <pt x="301" y="1811" on="0"/>
        <pt x="337" y="1811" on="1"/>
        <pt x="391" y="1811" on="0"/>
        <pt x="391" y="1747" on="1"/>
        <pt x="391" y="1699" on="0"/>
        <pt x="349" y="1641" on="0"/>
        <pt x="315" y="1641" on="1"/>
        <pt x="260" y="1641" on="0"/>
      </contour>
      <contour>
        <pt x="604" y="1704" on="1"/>
        <pt x="604" y="1753" on="0"/>
        <pt x="645" y="1811" on="0"/>
        <pt x="681" y="1811" on="1"/>
        <pt x="735" y="1811" on="0"/>
        <pt x="735" y="1747" on="1"/>
        <pt x="735" y="1699" on="0"/>
        <pt x="693" y="1641" on="0"/>
        <pt x="659" y="1641" on="1"/>
        <pt x="604" y="1641" on="0"/>
      </contour>
      <contour>
        <pt x="510" y="1462" on="1"/>
        <pt x="201" y="0" on="1"/>
        <pt x="102" y="0" on="1"/>
        <pt x="412" y="1462" on="1"/>
      </contour>
    </TTGlyph>
    <TTGlyph name="Igrave" xMin="102" yMin="0" xMax="525" yMax="1907">
      <contour>
        <pt x="525" y="1579" on="1"/>
        <pt x="459" y="1579" on="1"/>
        <pt x="410" y="1632" on="0"/>
        <pt x="280" y="1817" on="0"/>
        <pt x="246" y="1886" on="1"/>
        <pt x="246" y="1907" on="1"/>
        <pt x="361" y="1907" on="1"/>
        <pt x="409" y="1775" on="0"/>
        <pt x="525" y="1604" on="1"/>
      </contour>
      <contour>
        <pt x="510" y="1462" on="1"/>
        <pt x="201" y="0" on="1"/>
        <pt x="102" y="0" on="1"/>
        <pt x="412" y="1462" on="1"/>
      </contour>
    </TTGlyph>
    <TTGlyph name="J" xMin="-324" yMin="-360" xMax="500" yMax="1462">
      <contour>
        <pt x="-180" y="-360" on="1"/>
        <pt x="-278" y="-360" on="0"/>
        <pt x="-324" y="-336" on="1"/>
        <pt x="-313" y="-244" on="1"/>
        <pt x="-255" y="-264" on="0"/>
        <pt x="-176" y="-264" on="1"/>
        <pt x="37" y="-264" on="0"/>
        <pt x="86" y="-23" on="1"/>
        <pt x="395" y="1462" on="1"/>
        <pt x="500" y="1462" on="1"/>
        <pt x="186" y="-29" on="1"/>
        <pt x="151" y="-199" on="0"/>
        <pt x="-29" y="-360" on="0"/>
      </contour>
    </TTGlyph>
    <TTGlyph name="K" xMin="102" yMin="0" xMax="1307" yMax="1462">
      <contour>
        <pt x="868" y="0" on="1"/>
        <pt x="526" y="788" on="1"/>
        <pt x="336" y="635" on="1"/>
        <pt x="205" y="0" on="1"/>
        <pt x="102" y="0" on="1"/>
        <pt x="412" y="1462" on="1"/>
        <pt x="514" y="1462" on="1"/>
        <pt x="356" y="739" on="1"/>
        <pt x="489" y="860" on="1"/>
        <pt x="1169" y="1462" on="1"/>
        <pt x="1307" y="1462" on="1"/>
        <pt x="608" y="852" on="1"/>
        <pt x="979" y="0" on="1"/>
      </contour>
    </TTGlyph>
    <TTGlyph name="L" xMin="102" yMin="0" xMax="846" yMax="1462">
      <contour>
        <pt x="412" y="1462" on="1"/>
        <pt x="514" y="1462" on="1"/>
        <pt x="225" y="96" on="1"/>
        <pt x="846" y="96" on="1"/>
        <pt x="823" y="0" on="1"/>
        <pt x="102" y="0" on="1"/>
      </contour>
    </TTGlyph>
    <TTGlyph name="M" xMin="109" yMin="0" xMax="1655" yMax="1462">
      <contour>
        <pt x="1505" y="1462" on="1"/>
        <pt x="1655" y="1462" on="1"/>
        <pt x="1354" y="0" on="1"/>
        <pt x="1253" y="0" on="1"/>
        <pt x="1444" y="901" on="1"/>
        <pt x="1526" y="1279" on="0"/>
        <pt x="1544" y="1348" on="1"/>
        <pt x="1538" y="1348" on="1"/>
        <pt x="758" y="0" on="1"/>
        <pt x="707" y="0" on="1"/>
        <pt x="485" y="1348" on="1"/>
        <pt x="479" y="1348" on="1"/>
        <pt x="460" y="1194" on="0"/>
        <pt x="401" y="922" on="1"/>
        <pt x="205" y="0" on="1"/>
        <pt x="109" y="0" on="1"/>
        <pt x="418" y="1462" on="1"/>
        <pt x="561" y="1462" on="1"/>
        <pt x="766" y="205" on="1"/>
        <pt x="772" y="205" on="1"/>
      </contour>
    </TTGlyph>
    <TTGlyph name="N" xMin="102" yMin="0" xMax="1378" yMax="1462">
      <contour>
        <pt x="983" y="0" on="1"/>
        <pt x="467" y="1284" on="1"/>
        <pt x="459" y="1284" on="1"/>
        <pt x="436" y="1136" on="0"/>
        <pt x="373" y="827" on="0"/>
        <pt x="197" y="0" on="1"/>
        <pt x="102" y="0" on="1"/>
        <pt x="412" y="1462" on="1"/>
        <pt x="492" y="1462" on="1"/>
        <pt x="1014" y="168" on="1"/>
        <pt x="1022" y="168" on="1"/>
        <pt x="1044" y="339" on="0"/>
        <pt x="1096" y="584" on="1"/>
        <pt x="1284" y="1462" on="1"/>
        <pt x="1378" y="1462" on="1"/>
        <pt x="1069" y="0" on="1"/>
      </contour>
    </TTGlyph>
    <TTGlyph name="Ntilde" xMin="102" yMin="0" xMax="1378" yMax="1815">
      <contour>
        <pt x="1062" y="1587" on="1"/>
        <pt x="1002" y="1587" on="0"/>
        <pt x="909" y="1651" on="1"/>
        <pt x="876" y="1674" on="0"/>
        <pt x="851" y="1690" on="0"/>
        <pt x="800" y="1710" on="0"/>
        <pt x="776" y="1710" on="1"/>
        <pt x="730" y="1710" on="0"/>
        <pt x="672" y="1652" on="0"/>
        <pt x="651" y="1581" on="1"/>
        <pt x="577" y="1581" on="1"/>
        <pt x="596" y="1690" on="0"/>
        <pt x="701" y="1806" on="0"/>
        <pt x="782" y="1806" on="1"/>
        <pt x="822" y="1806" on="0"/>
        <pt x="887" y="1779" on="0"/>
        <pt x="973" y="1720" on="1"/>
        <pt x="1025" y="1684" on="0"/>
        <pt x="1110" y="1684" on="0"/>
        <pt x="1167" y="1746" on="0"/>
        <pt x="1185" y="1815" on="1"/>
        <pt x="1261" y="1815" on="1"/>
        <pt x="1235" y="1698" on="0"/>
        <pt x="1138" y="1587" on="0"/>
      </contour>
      <contour>
        <pt x="467" y="1284" on="1"/>
        <pt x="459" y="1284" on="1"/>
        <pt x="436" y="1136" on="0"/>
        <pt x="373" y="827" on="0"/>
        <pt x="197" y="0" on="1"/>
        <pt x="102" y="0" on="1"/>
        <pt x="412" y="1462" on="1"/>
        <pt x="492" y="1462" on="1"/>
        <pt x="1014" y="168" on="1"/>
        <pt x="1022" y="168" on="1"/>
        <pt x="1044" y="339" on="0"/>
        <pt x="1096" y="584" on="1"/>
        <pt x="1284" y="1462" on="1"/>
        <pt x="1378" y="1462" on="1"/>
        <pt x="1069" y="0" on="1"/>
        <pt x="983" y="0" on="1"/>
      </contour>
    </TTGlyph>
    <TTGlyph name="O" xMin="172" yMin="-20" xMax="1403" yMax="1483">
      <contour>
        <pt x="893" y="1483" on="1"/>
        <pt x="1140" y="1483" on="0"/>
        <pt x="1403" y="1186" on="0"/>
        <pt x="1403" y="654" on="0"/>
        <pt x="1216" y="206" on="0"/>
        <pt x="901" y="-20" on="0"/>
        <pt x="692" y="-20" on="1"/>
        <pt x="442" y="-20" on="0"/>
        <pt x="172" y="278" on="0"/>
        <pt x="172" y="822" on="0"/>
        <pt x="358" y="1252" on="0"/>
        <pt x="682" y="1483" on="0"/>
      </contour>
      <contour>
        <pt x="879" y="1389" on="1"/>
        <pt x="706" y="1389" on="0"/>
        <pt x="570" y="1288" on="1"/>
        <pt x="436" y="1187" on="0"/>
        <pt x="276" y="792" on="0"/>
        <pt x="276" y="573" on="1"/>
        <pt x="276" y="328" on="0"/>
        <pt x="495" y="72" on="0"/>
        <pt x="705" y="72" on="1"/>
        <pt x="874" y="72" on="0"/>
        <pt x="1005" y="170" on="1"/>
        <pt x="1136" y="269" on="0"/>
        <pt x="1215" y="470" on="1"/>
        <pt x="1294" y="671" on="0"/>
        <pt x="1294" y="1142" on="0"/>
        <pt x="1085" y="1389" on="0"/>
      </contour>
    </TTGlyph>
    <TTGlyph name="OE" xMin="172" yMin="-20" xMax="1839" yMax="1483">
      <contour>
        <pt x="692" y="-20" on="1"/>
        <pt x="441" y="-20" on="0"/>
        <pt x="306" y="129" on="1"/>
        <pt x="172" y="280" on="0"/>
        <pt x="172" y="822" on="0"/>
        <pt x="363" y="1258" on="0"/>
        <pt x="694" y="1483" on="0"/>
        <pt x="911" y="1483" on="1"/>
        <pt x="1042" y="1483" on="0"/>
        <pt x="1151" y="1462" on="1"/>
        <pt x="1839" y="1462" on="1"/>
        <pt x="1819" y="1368" on="1"/>
        <pt x="1194" y="1368" on="1"/>
        <pt x="1077" y="815" on="1"/>
        <pt x="1667" y="815" on="1"/>
        <pt x="1647" y="721" on="1"/>
        <pt x="1059" y="721" on="1"/>
        <pt x="924" y="94" on="1"/>
        <pt x="1550" y="94" on="1"/>
        <pt x="1530" y="0" on="1"/>
        <pt x="864" y="0" on="1"/>
        <pt x="844" y="-5" on="0"/>
        <pt x="737" y="-20" on="0"/>
      </contour>
      <contour>
        <pt x="903" y="1389" on="1"/>
        <pt x="720" y="1389" on="0"/>
        <pt x="581" y="1290" on="1"/>
        <pt x="442" y="1193" on="0"/>
        <pt x="276" y="801" on="0"/>
        <pt x="276" y="328" on="0"/>
        <pt x="494" y="72" on="0"/>
        <pt x="705" y="72" on="1"/>
        <pt x="773" y="72" on="0"/>
        <pt x="821" y="84" on="1"/>
        <pt x="1092" y="1374" on="1"/>
        <pt x="982" y="1389" on="0"/>
      </contour>
    </TTGlyph>
    <TTGlyph name="Oacute" xMin="172" yMin="-20" xMax="1403" yMax="1907">
      <contour>
        <pt x="844" y="1579" on="1"/>
        <pt x="844" y="1600" on="1"/>
        <pt x="912" y="1652" on="0"/>
        <pt x="994" y="1742" on="1"/>
        <pt x="1078" y="1832" on="0"/>
        <pt x="1124" y="1907" on="1"/>
        <pt x="1261" y="1907" on="1"/>
        <pt x="1261" y="1884" on="1"/>
        <pt x="1211" y="1819" on="0"/>
        <pt x="1103" y="1725" on="1"/>
        <pt x="994" y="1632" on="0"/>
        <pt x="911" y="1579" on="1"/>
      </contour>
      <contour>
        <pt x="893" y="1483" on="1"/>
        <pt x="1140" y="1483" on="0"/>
        <pt x="1403" y="1186" on="0"/>
        <pt x="1403" y="654" on="0"/>
        <pt x="1216" y="206" on="0"/>
        <pt x="901" y="-20" on="0"/>
        <pt x="692" y="-20" on="1"/>
        <pt x="442" y="-20" on="0"/>
        <pt x="172" y="278" on="0"/>
        <pt x="172" y="822" on="0"/>
        <pt x="358" y="1252" on="0"/>
        <pt x="682" y="1483" on="0"/>
      </contour>
      <contour>
        <pt x="879" y="1389" on="1"/>
        <pt x="706" y="1389" on="0"/>
        <pt x="570" y="1288" on="1"/>
        <pt x="436" y="1187" on="0"/>
        <pt x="276" y="792" on="0"/>
        <pt x="276" y="573" on="1"/>
        <pt x="276" y="328" on="0"/>
        <pt x="495" y="72" on="0"/>
        <pt x="705" y="72" on="1"/>
        <pt x="874" y="72" on="0"/>
        <pt x="1005" y="170" on="1"/>
        <pt x="1136" y="269" on="0"/>
        <pt x="1215" y="470" on="1"/>
        <pt x="1294" y="671" on="0"/>
        <pt x="1294" y="1142" on="0"/>
        <pt x="1085" y="1389" on="0"/>
      </contour>
    </TTGlyph>
    <TTGlyph name="Ocircumflex" xMin="172" yMin="-20" xMax="1403" yMax="1907">
      <contour>
        <pt x="1171" y="1579" on="1"/>
        <pt x="1122" y="1579" on="1"/>
        <pt x="1054" y="1637" on="0"/>
        <pt x="961" y="1786" on="1"/>
        <pt x="904" y="1727" on="0"/>
        <pt x="759" y="1609" on="0"/>
        <pt x="711" y="1579" on="1"/>
        <pt x="657" y="1579" on="1"/>
        <pt x="657" y="1608" on="1"/>
        <pt x="725" y="1664" on="0"/>
        <pt x="906" y="1852" on="0"/>
        <pt x="942" y="1907" on="1"/>
        <pt x="1006" y="1907" on="1"/>
        <pt x="1028" y="1842" on="0"/>
        <pt x="1125" y="1670" on="0"/>
        <pt x="1171" y="1608" on="1"/>
      </contour>
      <contour>
        <pt x="893" y="1483" on="1"/>
        <pt x="1140" y="1483" on="0"/>
        <pt x="1403" y="1186" on="0"/>
        <pt x="1403" y="654" on="0"/>
        <pt x="1216" y="206" on="0"/>
        <pt x="901" y="-20" on="0"/>
        <pt x="692" y="-20" on="1"/>
        <pt x="442" y="-20" on="0"/>
        <pt x="172" y="278" on="0"/>
        <pt x="172" y="822" on="0"/>
        <pt x="358" y="1252" on="0"/>
        <pt x="682" y="1483" on="0"/>
      </contour>
      <contour>
        <pt x="879" y="1389" on="1"/>
        <pt x="706" y="1389" on="0"/>
        <pt x="570" y="1288" on="1"/>
        <pt x="436" y="1187" on="0"/>
        <pt x="276" y="792" on="0"/>
        <pt x="276" y="573" on="1"/>
        <pt x="276" y="328" on="0"/>
        <pt x="495" y="72" on="0"/>
        <pt x="705" y="72" on="1"/>
        <pt x="874" y="72" on="0"/>
        <pt x="1005" y="170" on="1"/>
        <pt x="1136" y="269" on="0"/>
        <pt x="1215" y="470" on="1"/>
        <pt x="1294" y="671" on="0"/>
        <pt x="1294" y="1142" on="0"/>
        <pt x="1085" y="1389" on="0"/>
      </contour>
    </TTGlyph>
    <TTGlyph name="Odieresis" xMin="172" yMin="-20" xMax="1403" yMax="1811">
      <contour>
        <pt x="687" y="1704" on="1"/>
        <pt x="687" y="1753" on="0"/>
        <pt x="728" y="1811" on="0"/>
        <pt x="764" y="1811" on="1"/>
        <pt x="818" y="1811" on="0"/>
        <pt x="818" y="1747" on="1"/>
        <pt x="818" y="1699" on="0"/>
        <pt x="776" y="1641" on="0"/>
        <pt x="742" y="1641" on="1"/>
        <pt x="687" y="1641" on="0"/>
      </contour>
      <contour>
        <pt x="1031" y="1704" on="1"/>
        <pt x="1031" y="1753" on="0"/>
        <pt x="1072" y="1811" on="0"/>
        <pt x="1108" y="1811" on="1"/>
        <pt x="1162" y="1811" on="0"/>
        <pt x="1162" y="1747" on="1"/>
        <pt x="1162" y="1699" on="0"/>
        <pt x="1120" y="1641" on="0"/>
        <pt x="1086" y="1641" on="1"/>
        <pt x="1031" y="1641" on="0"/>
      </contour>
      <contour>
        <pt x="893" y="1483" on="1"/>
        <pt x="1140" y="1483" on="0"/>
        <pt x="1403" y="1186" on="0"/>
        <pt x="1403" y="654" on="0"/>
        <pt x="1216" y="206" on="0"/>
        <pt x="901" y="-20" on="0"/>
        <pt x="692" y="-20" on="1"/>
        <pt x="442" y="-20" on="0"/>
        <pt x="172" y="278" on="0"/>
        <pt x="172" y="822" on="0"/>
        <pt x="358" y="1252" on="0"/>
        <pt x="682" y="1483" on="0"/>
      </contour>
      <contour>
        <pt x="879" y="1389" on="1"/>
        <pt x="706" y="1389" on="0"/>
        <pt x="570" y="1288" on="1"/>
        <pt x="436" y="1187" on="0"/>
        <pt x="276" y="792" on="0"/>
        <pt x="276" y="573" on="1"/>
        <pt x="276" y="328" on="0"/>
        <pt x="495" y="72" on="0"/>
        <pt x="705" y="72" on="1"/>
        <pt x="874" y="72" on="0"/>
        <pt x="1005" y="170" on="1"/>
        <pt x="1136" y="269" on="0"/>
        <pt x="1215" y="470" on="1"/>
        <pt x="1294" y="671" on="0"/>
        <pt x="1294" y="1142" on="0"/>
        <pt x="1085" y="1389" on="0"/>
      </contour>
    </TTGlyph>
    <TTGlyph name="Ograve" xMin="172" yMin="-20" xMax="1403" yMax="1907">
      <contour>
        <pt x="989" y="1579" on="1"/>
        <pt x="923" y="1579" on="1"/>
        <pt x="874" y="1632" on="0"/>
        <pt x="744" y="1817" on="0"/>
        <pt x="710" y="1886" on="1"/>
        <pt x="710" y="1907" on="1"/>
        <pt x="825" y="1907" on="1"/>
        <pt x="873" y="1775" on="0"/>
        <pt x="989" y="1604" on="1"/>
      </contour>
      <contour>
        <pt x="893" y="1483" on="1"/>
        <pt x="1140" y="1483" on="0"/>
        <pt x="1403" y="1186" on="0"/>
        <pt x="1403" y="654" on="0"/>
        <pt x="1216" y="206" on="0"/>
        <pt x="901" y="-20" on="0"/>
        <pt x="692" y="-20" on="1"/>
        <pt x="442" y="-20" on="0"/>
        <pt x="172" y="278" on="0"/>
        <pt x="172" y="822" on="0"/>
        <pt x="358" y="1252" on="0"/>
        <pt x="682" y="1483" on="0"/>
      </contour>
      <contour>
        <pt x="879" y="1389" on="1"/>
        <pt x="706" y="1389" on="0"/>
        <pt x="570" y="1288" on="1"/>
        <pt x="436" y="1187" on="0"/>
        <pt x="276" y="792" on="0"/>
        <pt x="276" y="573" on="1"/>
        <pt x="276" y="328" on="0"/>
        <pt x="495" y="72" on="0"/>
        <pt x="705" y="72" on="1"/>
        <pt x="874" y="72" on="0"/>
        <pt x="1005" y="170" on="1"/>
        <pt x="1136" y="269" on="0"/>
        <pt x="1215" y="470" on="1"/>
        <pt x="1294" y="671" on="0"/>
        <pt x="1294" y="1142" on="0"/>
        <pt x="1085" y="1389" on="0"/>
      </contour>
    </TTGlyph>
    <TTGlyph name="Oslash" xMin="139" yMin="-78" xMax="1448" yMax="1530">
      <contour>
        <pt x="1403" y="911" on="1"/>
        <pt x="1403" y="722" on="0"/>
        <pt x="1298" y="366" on="0"/>
        <pt x="1206" y="241" on="1"/>
        <pt x="1015" y="-20" on="0"/>
        <pt x="692" y="-20" on="1"/>
        <pt x="477" y="-20" on="0"/>
        <pt x="344" y="92" on="1"/>
        <pt x="205" y="-78" on="1"/>
        <pt x="139" y="-14" on="1"/>
        <pt x="285" y="158" on="1"/>
        <pt x="172" y="307" on="0"/>
        <pt x="172" y="823" on="0"/>
        <pt x="359" y="1254" on="0"/>
        <pt x="684" y="1483" on="0"/>
        <pt x="1112" y="1483" on="0"/>
        <pt x="1245" y="1362" on="1"/>
        <pt x="1378" y="1530" on="1"/>
        <pt x="1448" y="1477" on="1"/>
        <pt x="1303" y="1294" on="1"/>
        <pt x="1348" y="1243" on="0"/>
        <pt x="1403" y="1025" on="0"/>
      </contour>
      <contour>
        <pt x="879" y="1389" on="1"/>
        <pt x="609" y="1389" on="0"/>
        <pt x="446" y="1159" on="1"/>
        <pt x="369" y="1051" on="0"/>
        <pt x="276" y="736" on="0"/>
        <pt x="276" y="573" on="1"/>
        <pt x="276" y="359" on="0"/>
        <pt x="354" y="244" on="1"/>
        <pt x="1180" y="1276" on="1"/>
        <pt x="1073" y="1389" on="0"/>
      </contour>
      <contour>
        <pt x="412" y="172" on="1"/>
        <pt x="518" y="72" on="0"/>
        <pt x="876" y="72" on="0"/>
        <pt x="1138" y="273" on="0"/>
        <pt x="1215" y="468" on="1"/>
        <pt x="1294" y="663" on="0"/>
        <pt x="1294" y="901" on="1"/>
        <pt x="1294" y="986" on="0"/>
        <pt x="1260" y="1158" on="0"/>
        <pt x="1233" y="1202" on="1"/>
      </contour>
    </TTGlyph>
    <TTGlyph name="Otilde" xMin="172" yMin="-20" xMax="1403" yMax="1815">
      <contour>
        <pt x="1077" y="1587" on="1"/>
        <pt x="1017" y="1587" on="0"/>
        <pt x="924" y="1651" on="1"/>
        <pt x="891" y="1674" on="0"/>
        <pt x="866" y="1690" on="0"/>
        <pt x="815" y="1710" on="0"/>
        <pt x="791" y="1710" on="1"/>
        <pt x="745" y="1710" on="0"/>
        <pt x="687" y="1652" on="0"/>
        <pt x="666" y="1581" on="1"/>
        <pt x="592" y="1581" on="1"/>
        <pt x="611" y="1690" on="0"/>
        <pt x="716" y="1806" on="0"/>
        <pt x="797" y="1806" on="1"/>
        <pt x="837" y="1806" on="0"/>
        <pt x="902" y="1779" on="0"/>
        <pt x="988" y="1720" on="1"/>
        <pt x="1041" y="1684" on="0"/>
        <pt x="1125" y="1684" on="0"/>
        <pt x="1182" y="1746" on="0"/>
        <pt x="1200" y="1815" on="1"/>
        <pt x="1276" y="1815" on="1"/>
        <pt x="1250" y="1698" on="0"/>
        <pt x="1153" y="1587" on="0"/>
      </contour>
      <contour>
        <pt x="893" y="1483" on="1"/>
        <pt x="1140" y="1483" on="0"/>
        <pt x="1403" y="1186" on="0"/>
        <pt x="1403" y="654" on="0"/>
        <pt x="1216" y="206" on="0"/>
        <pt x="901" y="-20" on="0"/>
        <pt x="692" y="-20" on="1"/>
        <pt x="442" y="-20" on="0"/>
        <pt x="172" y="278" on="0"/>
        <pt x="172" y="822" on="0"/>
        <pt x="358" y="1252" on="0"/>
        <pt x="682" y="1483" on="0"/>
      </contour>
      <contour>
        <pt x="879" y="1389" on="1"/>
        <pt x="706" y="1389" on="0"/>
        <pt x="570" y="1288" on="1"/>
        <pt x="436" y="1187" on="0"/>
        <pt x="276" y="792" on="0"/>
        <pt x="276" y="573" on="1"/>
        <pt x="276" y="328" on="0"/>
        <pt x="495" y="72" on="0"/>
        <pt x="705" y="72" on="1"/>
        <pt x="874" y="72" on="0"/>
        <pt x="1005" y="170" on="1"/>
        <pt x="1136" y="269" on="0"/>
        <pt x="1215" y="470" on="1"/>
        <pt x="1294" y="671" on="0"/>
        <pt x="1294" y="1142" on="0"/>
        <pt x="1085" y="1389" on="0"/>
      </contour>
    </TTGlyph>
    <TTGlyph name="P" xMin="102" yMin="0" xMax="1145" yMax="1462">
      <contour>
        <pt x="727" y="1462" on="1"/>
        <pt x="929" y="1462" on="0"/>
        <pt x="1145" y="1277" on="0"/>
        <pt x="1145" y="1102" on="1"/>
        <pt x="1145" y="602" on="0"/>
        <pt x="535" y="602" on="1"/>
        <pt x="334" y="602" on="1"/>
        <pt x="205" y="0" on="1"/>
        <pt x="102" y="0" on="1"/>
        <pt x="412" y="1462" on="1"/>
      </contour>
      <contour>
        <pt x="541" y="694" on="1"/>
        <pt x="794" y="694" on="0"/>
        <pt x="1036" y="888" on="0"/>
        <pt x="1036" y="1096" on="1"/>
        <pt x="1036" y="1370" on="0"/>
        <pt x="707" y="1370" on="1"/>
        <pt x="496" y="1370" on="1"/>
        <pt x="350" y="694" on="1"/>
      </contour>
    </TTGlyph>
    <TTGlyph name="Q" xMin="172" yMin="-348" xMax="1403" yMax="1483">
      <contour>
        <pt x="442" y="-20" on="0"/>
        <pt x="172" y="278" on="0"/>
        <pt x="172" y="822" on="0"/>
        <pt x="358" y="1252" on="0"/>
        <pt x="682" y="1483" on="0"/>
        <pt x="893" y="1483" on="1"/>
        <pt x="1140" y="1483" on="0"/>
        <pt x="1403" y="1186" on="0"/>
        <pt x="1403" y="911" on="1"/>
        <pt x="1403" y="694" on="0"/>
        <pt x="1333" y="493" on="1"/>
        <pt x="1195" y="94" on="0"/>
        <pt x="872" y="2" on="1"/>
        <pt x="1139" y="-348" on="1"/>
        <pt x="997" y="-348" on="1"/>
        <pt x="766" y="-16" on="1"/>
        <pt x="692" y="-20" on="1"/>
      </contour>
      <contour>
        <pt x="879" y="1389" on="1"/>
        <pt x="706" y="1389" on="0"/>
        <pt x="570" y="1288" on="1"/>
        <pt x="436" y="1187" on="0"/>
        <pt x="276" y="792" on="0"/>
        <pt x="276" y="573" on="1"/>
        <pt x="276" y="328" on="0"/>
        <pt x="495" y="72" on="0"/>
        <pt x="705" y="72" on="1"/>
        <pt x="874" y="72" on="0"/>
        <pt x="1005" y="170" on="1"/>
        <pt x="1136" y="269" on="0"/>
        <pt x="1215" y="470" on="1"/>
        <pt x="1294" y="671" on="0"/>
        <pt x="1294" y="1142" on="0"/>
        <pt x="1085" y="1389" on="0"/>
      </contour>
    </TTGlyph>
    <TTGlyph name="R" xMin="102" yMin="0" xMax="1145" yMax="1462">
      <contour>
        <pt x="715" y="1462" on="1"/>
        <pt x="1145" y="1462" on="0"/>
        <pt x="1145" y="1102" on="1"/>
        <pt x="1145" y="921" on="0"/>
        <pt x="938" y="678" on="0"/>
        <pt x="760" y="647" on="1"/>
        <pt x="951" y="85" on="0"/>
        <pt x="981" y="0" on="1"/>
        <pt x="870" y="0" on="1"/>
        <pt x="659" y="633" on="1"/>
        <pt x="336" y="633" on="1"/>
        <pt x="205" y="0" on="1"/>
        <pt x="102" y="0" on="1"/>
        <pt x="412" y="1462" on="1"/>
      </contour>
      <contour>
        <pt x="610" y="725" on="1"/>
        <pt x="818" y="725" on="0"/>
        <pt x="1036" y="917" on="0"/>
        <pt x="1036" y="1102" on="1"/>
        <pt x="1036" y="1370" on="0"/>
        <pt x="707" y="1370" on="1"/>
        <pt x="496" y="1370" on="1"/>
        <pt x="358" y="725" on="1"/>
      </contour>
    </TTGlyph>
    <TTGlyph name="S" xMin="37" yMin="-20" xMax="1036" yMax="1483">
      <contour>
        <pt x="688" y="1397" on="1"/>
        <pt x="526" y="1397" on="0"/>
        <pt x="332" y="1232" on="0"/>
        <pt x="332" y="1096" on="1"/>
        <pt x="332" y="993" on="0"/>
        <pt x="430" y="859" on="0"/>
        <pt x="563" y="793" on="1"/>
        <pt x="719" y="713" on="0"/>
        <pt x="776" y="663" on="1"/>
        <pt x="895" y="562" on="0"/>
        <pt x="895" y="403" on="1"/>
        <pt x="895" y="277" on="0"/>
        <pt x="829" y="178" on="1"/>
        <pt x="698" y="-20" on="0"/>
        <pt x="381" y="-20" on="1"/>
        <pt x="195" y="-20" on="0"/>
        <pt x="37" y="55" on="1"/>
        <pt x="37" y="164" on="1"/>
        <pt x="201" y="72" on="0"/>
        <pt x="573" y="72" on="0"/>
        <pt x="788" y="245" on="0"/>
        <pt x="788" y="391" on="1"/>
        <pt x="788" y="478" on="0"/>
        <pt x="757" y="524" on="1"/>
        <pt x="744" y="544" on="0"/>
        <pt x="724" y="572" on="0"/>
        <pt x="678" y="608" on="0"/>
        <pt x="648" y="630" on="0"/>
        <pt x="581" y="670" on="0"/>
        <pt x="539" y="693" on="0"/>
        <pt x="496" y="717" on="1"/>
        <pt x="345" y="794" on="0"/>
        <pt x="286" y="881" on="1"/>
        <pt x="227" y="970" on="0"/>
        <pt x="227" y="1087" on="1"/>
        <pt x="227" y="1091" on="0"/>
        <pt x="227" y="1094" on="1"/>
        <pt x="227" y="1205" on="0"/>
        <pt x="346" y="1385" on="0"/>
        <pt x="556" y="1483" on="0"/>
        <pt x="683" y="1483" on="1"/>
        <pt x="685" y="1483" on="0"/>
        <pt x="688" y="1483" on="1"/>
        <pt x="788" y="1483" on="0"/>
        <pt x="950" y="1447" on="0"/>
        <pt x="1036" y="1405" on="1"/>
        <pt x="1004" y="1311" on="1"/>
        <pt x="938" y="1351" on="0"/>
        <pt x="765" y="1397" on="0"/>
      </contour>
    </TTGlyph>
    <TTGlyph name="T" xMin="193" yMin="0" xMax="1186" yMax="1462">
      <contour>
        <pt x="336" y="0" on="1"/>
        <pt x="625" y="1368" on="1"/>
        <pt x="193" y="1368" on="1"/>
        <pt x="213" y="1462" on="1"/>
        <pt x="1186" y="1462" on="1"/>
        <pt x="1167" y="1368" on="1"/>
        <pt x="727" y="1368" on="1"/>
        <pt x="438" y="0" on="1"/>
      </contour>
    </TTGlyph>
    <TTGlyph name="U" xMin="176" yMin="-20" xMax="1395" yMax="1462">
      <contour>
        <pt x="616" y="-20" on="1"/>
        <pt x="176" y="-20" on="0"/>
        <pt x="176" y="381" on="1"/>
        <pt x="176" y="464" on="0"/>
        <pt x="203" y="582" on="1"/>
        <pt x="389" y="1462" on="1"/>
        <pt x="492" y="1462" on="1"/>
        <pt x="299" y="563" on="1"/>
        <pt x="279" y="472" on="0"/>
        <pt x="279" y="379" on="1"/>
        <pt x="279" y="70" on="0"/>
        <pt x="621" y="70" on="1"/>
        <pt x="816" y="70" on="0"/>
        <pt x="1041" y="264" on="0"/>
        <pt x="1087" y="485" on="1"/>
        <pt x="1294" y="1462" on="1"/>
        <pt x="1395" y="1462" on="1"/>
        <pt x="1188" y="485" on="1"/>
        <pt x="1129" y="215" on="0"/>
        <pt x="991" y="97" on="1"/>
        <pt x="852" y="-20" on="0"/>
      </contour>
    </TTGlyph>
    <TTGlyph name="Uacute" xMin="176" yMin="-20" xMax="1395" yMax="1907">
      <contour>
        <pt x="838" y="1579" on="1"/>
        <pt x="838" y="1600" on="1"/>
        <pt x="906" y="1652" on="0"/>
        <pt x="988" y="1742" on="1"/>
        <pt x="1072" y="1832" on="0"/>
        <pt x="1118" y="1907" on="1"/>
        <pt x="1255" y="1907" on="1"/>
        <pt x="1255" y="1884" on="1"/>
        <pt x="1205" y="1819" on="0"/>
        <pt x="1097" y="1725" on="1"/>
        <pt x="988" y="1632" on="0"/>
        <pt x="905" y="1579" on="1"/>
      </contour>
      <contour>
        <pt x="616" y="-20" on="1"/>
        <pt x="176" y="-20" on="0"/>
        <pt x="176" y="381" on="1"/>
        <pt x="176" y="464" on="0"/>
        <pt x="203" y="582" on="1"/>
        <pt x="389" y="1462" on="1"/>
        <pt x="492" y="1462" on="1"/>
        <pt x="299" y="563" on="1"/>
        <pt x="279" y="472" on="0"/>
        <pt x="279" y="379" on="1"/>
        <pt x="279" y="70" on="0"/>
        <pt x="621" y="70" on="1"/>
        <pt x="816" y="70" on="0"/>
        <pt x="1041" y="264" on="0"/>
        <pt x="1087" y="485" on="1"/>
        <pt x="1294" y="1462" on="1"/>
        <pt x="1395" y="1462" on="1"/>
        <pt x="1188" y="485" on="1"/>
        <pt x="1129" y="215" on="0"/>
        <pt x="991" y="97" on="1"/>
        <pt x="852" y="-20" on="0"/>
      </contour>
    </TTGlyph>
    <TTGlyph name="Ucircumflex" xMin="176" yMin="-20" xMax="1395" yMax="1907">
      <contour>
        <pt x="1148" y="1579" on="1"/>
        <pt x="1099" y="1579" on="1"/>
        <pt x="1031" y="1637" on="0"/>
        <pt x="938" y="1786" on="1"/>
        <pt x="881" y="1727" on="0"/>
        <pt x="736" y="1609" on="0"/>
        <pt x="688" y="1579" on="1"/>
        <pt x="634" y="1579" on="1"/>
        <pt x="634" y="1608" on="1"/>
        <pt x="702" y="1664" on="0"/>
        <pt x="883" y="1852" on="0"/>
        <pt x="919" y="1907" on="1"/>
        <pt x="983" y="1907" on="1"/>
        <pt x="1006" y="1842" on="0"/>
        <pt x="1102" y="1670" on="0"/>
        <pt x="1148" y="1608" on="1"/>
      </contour>
      <contour>
        <pt x="616" y="-20" on="1"/>
        <pt x="176" y="-20" on="0"/>
        <pt x="176" y="381" on="1"/>
        <pt x="176" y="464" on="0"/>
        <pt x="203" y="582" on="1"/>
        <pt x="389" y="1462" on="1"/>
        <pt x="492" y="1462" on="1"/>
        <pt x="299" y="563" on="1"/>
        <pt x="279" y="472" on="0"/>
        <pt x="279" y="379" on="1"/>
        <pt x="279" y="70" on="0"/>
        <pt x="621" y="70" on="1"/>
        <pt x="816" y="70" on="0"/>
        <pt x="1041" y="264" on="0"/>
        <pt x="1087" y="485" on="1"/>
        <pt x="1294" y="1462" on="1"/>
        <pt x="1395" y="1462" on="1"/>
        <pt x="1188" y="485" on="1"/>
        <pt x="1129" y="215" on="0"/>
        <pt x="991" y="97" on="1"/>
        <pt x="852" y="-20" on="0"/>
      </contour>
    </TTGlyph>
    <TTGlyph name="Udieresis" xMin="176" yMin="-20" xMax="1395" yMax="1811">
      <contour>
        <pt x="678" y="1704" on="1"/>
        <pt x="678" y="1753" on="0"/>
        <pt x="719" y="1811" on="0"/>
        <pt x="755" y="1811" on="1"/>
        <pt x="809" y="1811" on="0"/>
        <pt x="809" y="1747" on="1"/>
        <pt x="809" y="1699" on="0"/>
        <pt x="767" y="1641" on="0"/>
        <pt x="733" y="1641" on="1"/>
        <pt x="678" y="1641" on="0"/>
      </contour>
      <contour>
        <pt x="1022" y="1704" on="1"/>
        <pt x="1022" y="1753" on="0"/>
        <pt x="1063" y="1811" on="0"/>
        <pt x="1099" y="1811" on="1"/>
        <pt x="1153" y="1811" on="0"/>
        <pt x="1153" y="1747" on="1"/>
        <pt x="1153" y="1699" on="0"/>
        <pt x="1111" y="1641" on="0"/>
        <pt x="1077" y="1641" on="1"/>
        <pt x="1022" y="1641" on="0"/>
      </contour>
      <contour>
        <pt x="616" y="-20" on="1"/>
        <pt x="176" y="-20" on="0"/>
        <pt x="176" y="381" on="1"/>
        <pt x="176" y="464" on="0"/>
        <pt x="203" y="582" on="1"/>
        <pt x="389" y="1462" on="1"/>
        <pt x="492" y="1462" on="1"/>
        <pt x="299" y="563" on="1"/>
        <pt x="279" y="472" on="0"/>
        <pt x="279" y="379" on="1"/>
        <pt x="279" y="70" on="0"/>
        <pt x="621" y="70" on="1"/>
        <pt x="816" y="70" on="0"/>
        <pt x="1041" y="264" on="0"/>
        <pt x="1087" y="485" on="1"/>
        <pt x="1294" y="1462" on="1"/>
        <pt x="1395" y="1462" on="1"/>
        <pt x="1188" y="485" on="1"/>
        <pt x="1129" y="215" on="0"/>
        <pt x="991" y="97" on="1"/>
        <pt x="852" y="-20" on="0"/>
      </contour>
    </TTGlyph>
    <TTGlyph name="Ugrave" xMin="176" yMin="-20" xMax="1395" yMax="1907">
      <contour>
        <pt x="946" y="1579" on="1"/>
        <pt x="880" y="1579" on="1"/>
        <pt x="830" y="1632" on="0"/>
        <pt x="701" y="1817" on="0"/>
        <pt x="667" y="1886" on="1"/>
        <pt x="667" y="1907" on="1"/>
        <pt x="782" y="1907" on="1"/>
        <pt x="830" y="1775" on="0"/>
        <pt x="946" y="1604" on="1"/>
      </contour>
      <contour>
        <pt x="616" y="-20" on="1"/>
        <pt x="176" y="-20" on="0"/>
        <pt x="176" y="381" on="1"/>
        <pt x="176" y="464" on="0"/>
        <pt x="203" y="582" on="1"/>
        <pt x="389" y="1462" on="1"/>
        <pt x="492" y="1462" on="1"/>
        <pt x="299" y="563" on="1"/>
        <pt x="279" y="472" on="0"/>
        <pt x="279" y="379" on="1"/>
        <pt x="279" y="70" on="0"/>
        <pt x="621" y="70" on="1"/>
        <pt x="816" y="70" on="0"/>
        <pt x="1041" y="264" on="0"/>
        <pt x="1087" y="485" on="1"/>
        <pt x="1294" y="1462" on="1"/>
        <pt x="1395" y="1462" on="1"/>
        <pt x="1188" y="485" on="1"/>
        <pt x="1129" y="215" on="0"/>
        <pt x="991" y="97" on="1"/>
        <pt x="852" y="-20" on="0"/>
      </contour>
    </TTGlyph>
    <TTGlyph name="V" xMin="201" yMin="0" xMax="1270" yMax="1462">
      <contour>
        <pt x="453" y="147" on="1"/>
        <pt x="457" y="147" on="1"/>
        <pt x="509" y="261" on="0"/>
        <pt x="581" y="394" on="1"/>
        <pt x="1153" y="1462" on="1"/>
        <pt x="1270" y="1462" on="1"/>
        <pt x="471" y="0" on="1"/>
        <pt x="383" y="0" on="1"/>
        <pt x="201" y="1462" on="1"/>
        <pt x="301" y="1462" on="1"/>
        <pt x="418" y="512" on="1"/>
        <pt x="445" y="285" on="0"/>
      </contour>
    </TTGlyph>
    <TTGlyph name="W" xMin="238" yMin="0" xMax="1851" yMax="1462">
      <contour>
        <pt x="1026" y="1341" on="1"/>
        <pt x="1018" y="1341" on="1"/>
        <pt x="994" y="1273" on="0"/>
        <pt x="926" y="1121" on="0"/>
        <pt x="393" y="0" on="1"/>
        <pt x="311" y="0" on="1"/>
        <pt x="238" y="1462" on="1"/>
        <pt x="338" y="1462" on="1"/>
        <pt x="385" y="431" on="1"/>
        <pt x="389" y="266" on="1"/>
        <pt x="387" y="180" on="1"/>
        <pt x="393" y="180" on="1"/>
        <pt x="480" y="411" on="0"/>
        <pt x="563" y="578" on="1"/>
        <pt x="997" y="1462" on="1"/>
        <pt x="1102" y="1462" on="1"/>
        <pt x="1163" y="584" on="1"/>
        <pt x="1182" y="325" on="0"/>
        <pt x="1182" y="174" on="1"/>
        <pt x="1188" y="174" on="1"/>
        <pt x="1223" y="274" on="0"/>
        <pt x="1273" y="396" on="0"/>
        <pt x="1743" y="1462" on="1"/>
        <pt x="1851" y="1462" on="1"/>
        <pt x="1731" y="1203" on="0"/>
        <pt x="1294" y="222" on="0"/>
        <pt x="1192" y="0" on="1"/>
        <pt x="1114" y="0" on="1"/>
        <pt x="1036" y="1075" on="1"/>
        <pt x="1026" y="1215" on="0"/>
        <pt x="1026" y="1288" on="0"/>
        <pt x="1026" y="1294" on="1"/>
      </contour>
    </TTGlyph>
    <TTGlyph name="X" xMin="-135" yMin="0" xMax="1149" yMax="1462">
      <contour>
        <pt x="772" y="0" on="1"/>
        <pt x="518" y="678" on="1"/>
        <pt x="-8" y="0" on="1"/>
        <pt x="-135" y="0" on="1"/>
        <pt x="473" y="766" on="1"/>
        <pt x="201" y="1462" on="1"/>
        <pt x="307" y="1462" on="1"/>
        <pt x="547" y="836" on="1"/>
        <pt x="1030" y="1462" on="1"/>
        <pt x="1149" y="1462" on="1"/>
        <pt x="594" y="743" on="1"/>
        <pt x="879" y="0" on="1"/>
      </contour>
    </TTGlyph>
    <TTGlyph name="Y" xMin="193" yMin="0" xMax="1155" yMax="1462">
      <contour>
        <pt x="1038" y="1462" on="1"/>
        <pt x="1155" y="1462" on="1"/>
        <pt x="524" y="530" on="1"/>
        <pt x="416" y="0" on="1"/>
        <pt x="311" y="0" on="1"/>
        <pt x="430" y="545" on="1"/>
        <pt x="193" y="1462" on="1"/>
        <pt x="293" y="1462" on="1"/>
        <pt x="494" y="645" on="1"/>
      </contour>
    </TTGlyph>
    <TTGlyph name="Ydieresis" xMin="193" yMin="0" xMax="1155" yMax="1811">
      <contour>
        <pt x="454" y="1704" on="1"/>
        <pt x="454" y="1753" on="0"/>
        <pt x="495" y="1811" on="0"/>
        <pt x="531" y="1811" on="1"/>
        <pt x="585" y="1811" on="0"/>
        <pt x="585" y="1747" on="1"/>
        <pt x="585" y="1699" on="0"/>
        <pt x="543" y="1641" on="0"/>
        <pt x="509" y="1641" on="1"/>
        <pt x="454" y="1641" on="0"/>
      </contour>
      <contour>
        <pt x="798" y="1704" on="1"/>
        <pt x="798" y="1753" on="0"/>
        <pt x="839" y="1811" on="0"/>
        <pt x="875" y="1811" on="1"/>
        <pt x="929" y="1811" on="0"/>
        <pt x="929" y="1747" on="1"/>
        <pt x="929" y="1699" on="0"/>
        <pt x="887" y="1641" on="0"/>
        <pt x="853" y="1641" on="1"/>
        <pt x="798" y="1641" on="0"/>
      </contour>
      <contour>
        <pt x="1155" y="1462" on="1"/>
        <pt x="524" y="530" on="1"/>
        <pt x="416" y="0" on="1"/>
        <pt x="311" y="0" on="1"/>
        <pt x="430" y="545" on="1"/>
        <pt x="193" y="1462" on="1"/>
        <pt x="293" y="1462" on="1"/>
        <pt x="494" y="645" on="1"/>
        <pt x="1038" y="1462" on="1"/>
      </contour>
    </TTGlyph>
    <TTGlyph name="Z" xMin="-12" yMin="0" xMax="1225" yMax="1462">
      <contour>
        <pt x="-12" y="0" on="1"/>
        <pt x="10" y="92" on="1"/>
        <pt x="1079" y="1368" on="1"/>
        <pt x="315" y="1368" on="1"/>
        <pt x="338" y="1462" on="1"/>
        <pt x="1225" y="1462" on="1"/>
        <pt x="1206" y="1374" on="1"/>
        <pt x="137" y="94" on="1"/>
        <pt x="936" y="94" on="1"/>
        <pt x="913" y="0" on="1"/>
      </contour>
    </TTGlyph>
    <TTGlyph name="a" xMin="102" yMin="-20" xMax="1079" yMax="1104">
      <contour>
        <pt x="383" y="-20" on="1"/>
        <pt x="102" y="-20" on="0"/>
        <pt x="102" y="354" on="1"/>
        <pt x="102" y="551" on="0"/>
        <pt x="252" y="908" on="0"/>
        <pt x="377" y="1006" on="1"/>
        <pt x="504" y="1104" on="0"/>
        <pt x="655" y="1104" on="1"/>
        <pt x="888" y="1104" on="0"/>
        <pt x="934" y="885" on="1"/>
        <pt x="940" y="885" on="1"/>
        <pt x="999" y="1087" on="1"/>
        <pt x="1079" y="1087" on="1"/>
        <pt x="850" y="0" on="1"/>
        <pt x="768" y="0" on="1"/>
        <pt x="813" y="274" on="1"/>
        <pt x="807" y="274" on="1"/>
        <pt x="720" y="128" on="0"/>
        <pt x="514" y="-20" on="0"/>
      </contour>
      <contour>
        <pt x="205" y="365" on="1"/>
        <pt x="205" y="70" on="0"/>
        <pt x="399" y="70" on="1"/>
        <pt x="494" y="70" on="0"/>
        <pt x="670" y="193" on="0"/>
        <pt x="812" y="401" on="0"/>
        <pt x="887" y="652" on="0"/>
        <pt x="887" y="741" on="1"/>
        <pt x="887" y="864" on="0"/>
        <pt x="767" y="1018" on="0"/>
        <pt x="533" y="1018" on="0"/>
        <pt x="334" y="855" on="0"/>
        <pt x="205" y="528" on="0"/>
      </contour>
    </TTGlyph>
    <TTGlyph name="aacute" xMin="102" yMin="-20" xMax="1079" yMax="1569">
      <contour>
        <pt x="586" y="1241" on="1"/>
        <pt x="586" y="1262" on="1"/>
        <pt x="654" y="1314" on="0"/>
        <pt x="736" y="1404" on="1"/>
        <pt x="820" y="1494" on="0"/>
        <pt x="866" y="1569" on="1"/>
        <pt x="1003" y="1569" on="1"/>
        <pt x="1003" y="1546" on="1"/>
        <pt x="953" y="1481" on="0"/>
        <pt x="845" y="1387" on="1"/>
        <pt x="736" y="1294" on="0"/>
        <pt x="653" y="1241" on="1"/>
      </contour>
      <contour>
        <pt x="383" y="-20" on="1"/>
        <pt x="102" y="-20" on="0"/>
        <pt x="102" y="354" on="1"/>
        <pt x="102" y="551" on="0"/>
        <pt x="252" y="908" on="0"/>
        <pt x="377" y="1006" on="1"/>
        <pt x="504" y="1104" on="0"/>
        <pt x="655" y="1104" on="1"/>
        <pt x="888" y="1104" on="0"/>
        <pt x="934" y="885" on="1"/>
        <pt x="940" y="885" on="1"/>
        <pt x="999" y="1087" on="1"/>
        <pt x="1079" y="1087" on="1"/>
        <pt x="850" y="0" on="1"/>
        <pt x="768" y="0" on="1"/>
        <pt x="813" y="274" on="1"/>
        <pt x="807" y="274" on="1"/>
        <pt x="720" y="128" on="0"/>
        <pt x="514" y="-20" on="0"/>
      </contour>
      <contour>
        <pt x="205" y="365" on="1"/>
        <pt x="205" y="70" on="0"/>
        <pt x="399" y="70" on="1"/>
        <pt x="494" y="70" on="0"/>
        <pt x="670" y="193" on="0"/>
        <pt x="812" y="401" on="0"/>
        <pt x="887" y="652" on="0"/>
        <pt x="887" y="741" on="1"/>
        <pt x="887" y="864" on="0"/>
        <pt x="767" y="1018" on="0"/>
        <pt x="533" y="1018" on="0"/>
        <pt x="334" y="855" on="0"/>
        <pt x="205" y="528" on="0"/>
      </contour>
    </TTGlyph>
    <TTGlyph name="acircumflex" xMin="102" yMin="-20" xMax="1079" yMax="1571">
      <contour>
        <pt x="955" y="1243" on="1"/>
        <pt x="906" y="1243" on="1"/>
        <pt x="838" y="1301" on="0"/>
        <pt x="745" y="1450" on="1"/>
        <pt x="688" y="1391" on="0"/>
        <pt x="543" y="1273" on="0"/>
        <pt x="495" y="1243" on="1"/>
        <pt x="441" y="1243" on="1"/>
        <pt x="441" y="1272" on="1"/>
        <pt x="509" y="1328" on="0"/>
        <pt x="690" y="1516" on="0"/>
        <pt x="726" y="1571" on="1"/>
        <pt x="790" y="1571" on="1"/>
        <pt x="812" y="1506" on="0"/>
        <pt x="909" y="1334" on="0"/>
        <pt x="955" y="1272" on="1"/>
      </contour>
      <contour>
        <pt x="383" y="-20" on="1"/>
        <pt x="102" y="-20" on="0"/>
        <pt x="102" y="354" on="1"/>
        <pt x="102" y="551" on="0"/>
        <pt x="252" y="908" on="0"/>
        <pt x="377" y="1006" on="1"/>
        <pt x="504" y="1104" on="0"/>
        <pt x="655" y="1104" on="1"/>
        <pt x="888" y="1104" on="0"/>
        <pt x="934" y="885" on="1"/>
        <pt x="940" y="885" on="1"/>
        <pt x="999" y="1087" on="1"/>
        <pt x="1079" y="1087" on="1"/>
        <pt x="850" y="0" on="1"/>
        <pt x="768" y="0" on="1"/>
        <pt x="813" y="274" on="1"/>
        <pt x="807" y="274" on="1"/>
        <pt x="720" y="128" on="0"/>
        <pt x="514" y="-20" on="0"/>
      </contour>
      <contour>
        <pt x="205" y="365" on="1"/>
        <pt x="205" y="70" on="0"/>
        <pt x="399" y="70" on="1"/>
        <pt x="494" y="70" on="0"/>
        <pt x="670" y="193" on="0"/>
        <pt x="812" y="401" on="0"/>
        <pt x="887" y="652" on="0"/>
        <pt x="887" y="741" on="1"/>
        <pt x="887" y="864" on="0"/>
        <pt x="767" y="1018" on="0"/>
        <pt x="533" y="1018" on="0"/>
        <pt x="334" y="855" on="0"/>
        <pt x="205" y="528" on="0"/>
      </contour>
    </TTGlyph>
    <TTGlyph name="acute" xMin="580" yMin="1241" xMax="997" yMax="1569">
      <contour>
        <pt x="580" y="1241" on="1"/>
        <pt x="580" y="1262" on="1"/>
        <pt x="648" y="1314" on="0"/>
        <pt x="730" y="1404" on="1"/>
        <pt x="814" y="1494" on="0"/>
        <pt x="860" y="1569" on="1"/>
        <pt x="997" y="1569" on="1"/>
        <pt x="997" y="1546" on="1"/>
        <pt x="947" y="1481" on="0"/>
        <pt x="839" y="1387" on="1"/>
        <pt x="730" y="1294" on="0"/>
        <pt x="647" y="1241" on="1"/>
      </contour>
    </TTGlyph>
    <TTGlyph name="adieresis" xMin="102" yMin="-20" xMax="1079" yMax="1473">
      <contour>
        <pt x="491" y="1366" on="1"/>
        <pt x="491" y="1415" on="0"/>
        <pt x="532" y="1473" on="0"/>
        <pt x="568" y="1473" on="1"/>
        <pt x="622" y="1473" on="0"/>
        <pt x="622" y="1409" on="1"/>
        <pt x="622" y="1361" on="0"/>
        <pt x="580" y="1303" on="0"/>
        <pt x="546" y="1303" on="1"/>
        <pt x="491" y="1303" on="0"/>
      </contour>
      <contour>
        <pt x="835" y="1366" on="1"/>
        <pt x="835" y="1415" on="0"/>
        <pt x="876" y="1473" on="0"/>
        <pt x="912" y="1473" on="1"/>
        <pt x="966" y="1473" on="0"/>
        <pt x="966" y="1409" on="1"/>
        <pt x="966" y="1361" on="0"/>
        <pt x="924" y="1303" on="0"/>
        <pt x="890" y="1303" on="1"/>
        <pt x="835" y="1303" on="0"/>
      </contour>
      <contour>
        <pt x="383" y="-20" on="1"/>
        <pt x="102" y="-20" on="0"/>
        <pt x="102" y="354" on="1"/>
        <pt x="102" y="551" on="0"/>
        <pt x="252" y="908" on="0"/>
        <pt x="377" y="1006" on="1"/>
        <pt x="504" y="1104" on="0"/>
        <pt x="655" y="1104" on="1"/>
        <pt x="888" y="1104" on="0"/>
        <pt x="934" y="885" on="1"/>
        <pt x="940" y="885" on="1"/>
        <pt x="999" y="1087" on="1"/>
        <pt x="1079" y="1087" on="1"/>
        <pt x="850" y="0" on="1"/>
        <pt x="768" y="0" on="1"/>
        <pt x="813" y="274" on="1"/>
        <pt x="807" y="274" on="1"/>
        <pt x="720" y="128" on="0"/>
        <pt x="514" y="-20" on="0"/>
      </contour>
      <contour>
        <pt x="205" y="365" on="1"/>
        <pt x="205" y="70" on="0"/>
        <pt x="399" y="70" on="1"/>
        <pt x="494" y="70" on="0"/>
        <pt x="670" y="193" on="0"/>
        <pt x="812" y="401" on="0"/>
        <pt x="887" y="652" on="0"/>
        <pt x="887" y="741" on="1"/>
        <pt x="887" y="864" on="0"/>
        <pt x="767" y="1018" on="0"/>
        <pt x="533" y="1018" on="0"/>
        <pt x="334" y="855" on="0"/>
        <pt x="205" y="528" on="0"/>
      </contour>
    </TTGlyph>
    <TTGlyph name="ae" xMin="102" yMin="-20" xMax="1567" yMax="1104">
      <contour>
        <pt x="1442" y="49" on="1"/>
        <pt x="1291" y="-20" on="0"/>
        <pt x="1032" y="-20" on="0"/>
        <pt x="856" y="100" on="0"/>
        <pt x="827" y="205" on="1"/>
        <pt x="788" y="0" on="1"/>
        <pt x="711" y="0" on="1"/>
        <pt x="752" y="254" on="1"/>
        <pt x="743" y="254" on="1"/>
        <pt x="649" y="112" on="0"/>
        <pt x="459" y="-20" on="0"/>
        <pt x="226" y="-20" on="0"/>
        <pt x="102" y="167" on="0"/>
        <pt x="102" y="551" on="0"/>
        <pt x="243" y="907" on="0"/>
        <pt x="486" y="1104" on="0"/>
        <pt x="639" y="1104" on="1"/>
        <pt x="743" y="1104" on="0"/>
        <pt x="864" y="993" on="0"/>
        <pt x="879" y="891" on="1"/>
        <pt x="889" y="891" on="1"/>
        <pt x="948" y="1083" on="1"/>
        <pt x="1014" y="1083" on="1"/>
        <pt x="979" y="897" on="1"/>
        <pt x="1118" y="1104" on="0"/>
        <pt x="1329" y="1104" on="1"/>
        <pt x="1441" y="1104" on="0"/>
        <pt x="1567" y="981" on="0"/>
        <pt x="1567" y="870" on="1"/>
        <pt x="1567" y="690" on="0"/>
        <pt x="1249" y="506" on="0"/>
        <pt x="938" y="506" on="1"/>
        <pt x="899" y="506" on="1"/>
        <pt x="891" y="452" on="0"/>
        <pt x="891" y="410" on="1"/>
        <pt x="891" y="245" on="0"/>
        <pt x="1033" y="70" on="0"/>
        <pt x="1178" y="70" on="1"/>
        <pt x="1285" y="70" on="0"/>
        <pt x="1442" y="143" on="1"/>
      </contour>
      <contour>
        <pt x="369" y="70" on="1"/>
        <pt x="436" y="70" on="0"/>
        <pt x="579" y="154" on="0"/>
        <pt x="703" y="304" on="0"/>
        <pt x="792" y="497" on="0"/>
        <pt x="831" y="705" on="0"/>
        <pt x="831" y="764" on="1"/>
        <pt x="831" y="883" on="0"/>
        <pt x="732" y="1018" on="0"/>
        <pt x="641" y="1018" on="1"/>
        <pt x="519" y="1018" on="0"/>
        <pt x="318" y="847" on="0"/>
        <pt x="205" y="536" on="0"/>
        <pt x="205" y="352" on="1"/>
        <pt x="205" y="70" on="0"/>
      </contour>
      <contour>
        <pt x="961" y="594" on="1"/>
        <pt x="1222" y="594" on="0"/>
        <pt x="1464" y="727" on="0"/>
        <pt x="1464" y="864" on="1"/>
        <pt x="1464" y="936" on="0"/>
        <pt x="1386" y="1018" on="0"/>
        <pt x="1317" y="1018" on="1"/>
        <pt x="1198" y="1018" on="0"/>
        <pt x="971" y="785" on="0"/>
        <pt x="913" y="594" on="1"/>
      </contour>
    </TTGlyph>
    <TTGlyph name="agrave" xMin="102" yMin="-20" xMax="1079" yMax="1569">
      <contour>
        <pt x="809" y="1241" on="1"/>
        <pt x="743" y="1241" on="1"/>
        <pt x="694" y="1294" on="0"/>
        <pt x="564" y="1479" on="0"/>
        <pt x="530" y="1548" on="1"/>
        <pt x="530" y="1569" on="1"/>
        <pt x="645" y="1569" on="1"/>
        <pt x="693" y="1437" on="0"/>
        <pt x="809" y="1266" on="1"/>
      </contour>
      <contour>
        <pt x="383" y="-20" on="1"/>
        <pt x="102" y="-20" on="0"/>
        <pt x="102" y="354" on="1"/>
        <pt x="102" y="551" on="0"/>
        <pt x="252" y="908" on="0"/>
        <pt x="377" y="1006" on="1"/>
        <pt x="504" y="1104" on="0"/>
        <pt x="655" y="1104" on="1"/>
        <pt x="888" y="1104" on="0"/>
        <pt x="934" y="885" on="1"/>
        <pt x="940" y="885" on="1"/>
        <pt x="999" y="1087" on="1"/>
        <pt x="1079" y="1087" on="1"/>
        <pt x="850" y="0" on="1"/>
        <pt x="768" y="0" on="1"/>
        <pt x="813" y="274" on="1"/>
        <pt x="807" y="274" on="1"/>
        <pt x="720" y="128" on="0"/>
        <pt x="514" y="-20" on="0"/>
      </contour>
      <contour>
        <pt x="205" y="365" on="1"/>
        <pt x="205" y="70" on="0"/>
        <pt x="399" y="70" on="1"/>
        <pt x="494" y="70" on="0"/>
        <pt x="670" y="193" on="0"/>
        <pt x="812" y="401" on="0"/>
        <pt x="887" y="652" on="0"/>
        <pt x="887" y="741" on="1"/>
        <pt x="887" y="864" on="0"/>
        <pt x="767" y="1018" on="0"/>
        <pt x="533" y="1018" on="0"/>
        <pt x="334" y="855" on="0"/>
        <pt x="205" y="528" on="0"/>
      </contour>
    </TTGlyph>
    <TTGlyph name="alefdageshhb" xMin="-25" yMin="0" xMax="1150" yMax="1290">
      <contour>
        <pt x="1150" y="1290" on="1"/>
        <pt x="1050" y="818" on="1"/>
        <pt x="1039" y="765" on="0"/>
        <pt x="1013" y="680" on="0"/>
        <pt x="961" y="575" on="0"/>
        <pt x="895" y="497" on="0"/>
        <pt x="790" y="429" on="0"/>
        <pt x="725" y="413" on="1"/>
        <pt x="887" y="0" on="1"/>
        <pt x="777" y="0" on="1"/>
        <pt x="464" y="799" on="1"/>
        <pt x="419" y="799" on="0"/>
        <pt x="370" y="774" on="1"/>
        <pt x="290" y="733" on="0"/>
        <pt x="196" y="577" on="0"/>
        <pt x="168" y="448" on="1"/>
        <pt x="73" y="0" on="1"/>
        <pt x="-25" y="0" on="1"/>
        <pt x="70" y="449" on="1"/>
        <pt x="82" y="504" on="0"/>
        <pt x="110" y="597" on="0"/>
        <pt x="167" y="714" on="0"/>
        <pt x="241" y="800" on="0"/>
        <pt x="358" y="871" on="0"/>
        <pt x="431" y="884" on="1"/>
        <pt x="271" y="1290" on="1"/>
        <pt x="380" y="1290" on="1"/>
        <pt x="692" y="497" on="1"/>
        <pt x="726" y="503" on="0"/>
        <pt x="755" y="517" on="1"/>
        <pt x="837" y="557" on="0"/>
        <pt x="925" y="692" on="0"/>
        <pt x="952" y="819" on="1"/>
        <pt x="1052" y="1290" on="1"/>
      </contour>
      <contour>
        <pt x="389" y="448" on="1"/>
        <pt x="440" y="448" on="0"/>
        <pt x="440" y="399" on="1"/>
        <pt x="440" y="387" on="0"/>
        <pt x="437" y="372" on="1"/>
        <pt x="420" y="298" on="0"/>
        <pt x="357" y="298" on="1"/>
        <pt x="308" y="298" on="0"/>
        <pt x="308" y="344" on="1"/>
        <pt x="308" y="356" on="0"/>
        <pt x="312" y="372" on="1"/>
        <pt x="328" y="448" on="0"/>
      </contour>
    </TTGlyph>
    <TTGlyph name="alefpatahhb" xMin="-25" yMin="-216" xMax="1150" yMax="1290">
      <contour>
        <pt x="1150" y="1290" on="1"/>
        <pt x="1050" y="818" on="1"/>
        <pt x="1039" y="765" on="0"/>
        <pt x="1013" y="680" on="0"/>
        <pt x="961" y="575" on="0"/>
        <pt x="895" y="497" on="0"/>
        <pt x="790" y="429" on="0"/>
        <pt x="725" y="413" on="1"/>
        <pt x="887" y="0" on="1"/>
        <pt x="777" y="0" on="1"/>
        <pt x="464" y="799" on="1"/>
        <pt x="419" y="799" on="0"/>
        <pt x="370" y="774" on="1"/>
        <pt x="290" y="733" on="0"/>
        <pt x="196" y="577" on="0"/>
        <pt x="168" y="448" on="1"/>
        <pt x="73" y="0" on="1"/>
        <pt x="-25" y="0" on="1"/>
        <pt x="70" y="449" on="1"/>
        <pt x="82" y="504" on="0"/>
        <pt x="110" y="597" on="0"/>
        <pt x="167" y="714" on="0"/>
        <pt x="241" y="800" on="0"/>
        <pt x="358" y="871" on="0"/>
        <pt x="431" y="884" on="1"/>
        <pt x="271" y="1290" on="1"/>
        <pt x="380" y="1290" on="1"/>
        <pt x="692" y="497" on="1"/>
        <pt x="726" y="503" on="0"/>
        <pt x="755" y="517" on="1"/>
        <pt x="837" y="557" on="0"/>
        <pt x="925" y="692" on="0"/>
        <pt x="952" y="819" on="1"/>
        <pt x="1052" y="1290" on="1"/>
      </contour>
      <contour>
        <pt x="565" y="-216" on="1"/>
        <pt x="208" y="-216" on="1"/>
        <pt x="224" y="-144" on="1"/>
        <pt x="581" y="-144" on="1"/>
      </contour>
    </TTGlyph>
    <TTGlyph name="alefqamatshb" xMin="-25" yMin="-417" xMax="1150" yMax="1290">
      <contour>
        <pt x="1150" y="1290" on="1"/>
        <pt x="1050" y="818" on="1"/>
        <pt x="1039" y="765" on="0"/>
        <pt x="1013" y="680" on="0"/>
        <pt x="961" y="575" on="0"/>
        <pt x="895" y="497" on="0"/>
        <pt x="790" y="429" on="0"/>
        <pt x="725" y="413" on="1"/>
        <pt x="887" y="0" on="1"/>
        <pt x="777" y="0" on="1"/>
        <pt x="464" y="799" on="1"/>
        <pt x="419" y="799" on="0"/>
        <pt x="370" y="774" on="1"/>
        <pt x="290" y="733" on="0"/>
        <pt x="196" y="577" on="0"/>
        <pt x="168" y="448" on="1"/>
        <pt x="73" y="0" on="1"/>
        <pt x="-25" y="0" on="1"/>
        <pt x="70" y="449" on="1"/>
        <pt x="82" y="504" on="0"/>
        <pt x="110" y="597" on="0"/>
        <pt x="167" y="714" on="0"/>
        <pt x="241" y="800" on="0"/>
        <pt x="358" y="871" on="0"/>
        <pt x="431" y="884" on="1"/>
        <pt x="271" y="1290" on="1"/>
        <pt x="380" y="1290" on="1"/>
        <pt x="692" y="497" on="1"/>
        <pt x="726" y="503" on="0"/>
        <pt x="755" y="517" on="1"/>
        <pt x="837" y="557" on="0"/>
        <pt x="925" y="692" on="0"/>
        <pt x="952" y="819" on="1"/>
        <pt x="1052" y="1290" on="1"/>
      </contour>
      <contour>
        <pt x="566" y="-216" on="1"/>
        <pt x="423" y="-216" on="1"/>
        <pt x="380" y="-417" on="1"/>
        <pt x="309" y="-417" on="1"/>
        <pt x="352" y="-216" on="1"/>
        <pt x="209" y="-216" on="1"/>
        <pt x="224" y="-144" on="1"/>
        <pt x="581" y="-144" on="1"/>
      </contour>
    </TTGlyph>
    <TTGlyph name="ampersand" xMin="78" yMin="-20" xMax="1307" yMax="1485">
      <contour>
        <pt x="444" y="-20" on="1"/>
        <pt x="277" y="-20" on="0"/>
        <pt x="177" y="74" on="1"/>
        <pt x="78" y="168" on="0"/>
        <pt x="78" y="486" on="0"/>
        <pt x="276" y="717" on="0"/>
        <pt x="502" y="817" on="1"/>
        <pt x="461" y="884" on="1"/>
        <pt x="383" y="1012" on="0"/>
        <pt x="383" y="1135" on="1"/>
        <pt x="383" y="1292" on="0"/>
        <pt x="584" y="1485" on="0"/>
        <pt x="748" y="1485" on="1"/>
        <pt x="892" y="1485" on="0"/>
        <pt x="1057" y="1332" on="0"/>
        <pt x="1057" y="1202" on="1"/>
        <pt x="1057" y="1038" on="0"/>
        <pt x="895" y="920" on="1"/>
        <pt x="817" y="863" on="0"/>
        <pt x="639" y="782" on="1"/>
        <pt x="969" y="319" on="1"/>
        <pt x="1042" y="393" on="0"/>
        <pt x="1168" y="599" on="0"/>
        <pt x="1196" y="682" on="1"/>
        <pt x="1307" y="682" on="1"/>
        <pt x="1205" y="435" on="0"/>
        <pt x="1022" y="246" on="1"/>
        <pt x="1206" y="0" on="1"/>
        <pt x="1083" y="0" on="1"/>
        <pt x="952" y="184" on="1"/>
        <pt x="830" y="75" on="0"/>
        <pt x="588" y="-20" on="0"/>
      </contour>
      <contour>
        <pt x="748" y="1395" on="1"/>
        <pt x="623" y="1395" on="0"/>
        <pt x="485" y="1259" on="0"/>
        <pt x="485" y="1002" on="0"/>
        <pt x="594" y="854" on="1"/>
        <pt x="795" y="942" on="0"/>
        <pt x="873" y="1017" on="1"/>
        <pt x="950" y="1092" on="0"/>
        <pt x="950" y="1200" on="1"/>
        <pt x="950" y="1290" on="0"/>
        <pt x="838" y="1395" on="0"/>
      </contour>
      <contour>
        <pt x="176" y="328" on="1"/>
        <pt x="176" y="210" on="0"/>
        <pt x="331" y="63" on="0"/>
        <pt x="465" y="63" on="1"/>
        <pt x="573" y="63" on="0"/>
        <pt x="781" y="149" on="0"/>
        <pt x="899" y="252" on="1"/>
        <pt x="547" y="745" on="1"/>
        <pt x="381" y="664" on="0"/>
        <pt x="315" y="610" on="1"/>
        <pt x="176" y="498" on="0"/>
      </contour>
    </TTGlyph>
    <TTGlyph name="aring" xMin="102" yMin="-20" xMax="1079" yMax="1640">
      <contour>
        <pt x="819" y="1640" on="0"/>
        <pt x="927" y="1539" on="0"/>
        <pt x="927" y="1356" on="0"/>
        <pt x="811" y="1243" on="0"/>
        <pt x="630" y="1243" on="0"/>
        <pt x="521" y="1348" on="0"/>
        <pt x="521" y="1528" on="0"/>
        <pt x="580" y="1584" on="1"/>
        <pt x="641" y="1640" on="0"/>
      </contour>
      <contour>
        <pt x="780" y="1317" on="0"/>
        <pt x="849" y="1389" on="0"/>
        <pt x="849" y="1502" on="0"/>
        <pt x="782" y="1569" on="0"/>
        <pt x="669" y="1569" on="0"/>
        <pt x="601" y="1498" on="0"/>
        <pt x="601" y="1383" on="0"/>
        <pt x="667" y="1317" on="0"/>
      </contour>
      <contour>
        <pt x="383" y="-20" on="1"/>
        <pt x="102" y="-20" on="0"/>
        <pt x="102" y="354" on="1"/>
        <pt x="102" y="551" on="0"/>
        <pt x="252" y="908" on="0"/>
        <pt x="377" y="1006" on="1"/>
        <pt x="504" y="1104" on="0"/>
        <pt x="655" y="1104" on="1"/>
        <pt x="888" y="1104" on="0"/>
        <pt x="934" y="885" on="1"/>
        <pt x="940" y="885" on="1"/>
        <pt x="999" y="1087" on="1"/>
        <pt x="1079" y="1087" on="1"/>
        <pt x="850" y="0" on="1"/>
        <pt x="768" y="0" on="1"/>
        <pt x="813" y="274" on="1"/>
        <pt x="807" y="274" on="1"/>
        <pt x="720" y="128" on="0"/>
        <pt x="514" y="-20" on="0"/>
      </contour>
      <contour>
        <pt x="205" y="365" on="1"/>
        <pt x="205" y="70" on="0"/>
        <pt x="399" y="70" on="1"/>
        <pt x="494" y="70" on="0"/>
        <pt x="670" y="193" on="0"/>
        <pt x="812" y="401" on="0"/>
        <pt x="887" y="652" on="0"/>
        <pt x="887" y="741" on="1"/>
        <pt x="887" y="864" on="0"/>
        <pt x="767" y="1018" on="0"/>
        <pt x="533" y="1018" on="0"/>
        <pt x="334" y="855" on="0"/>
        <pt x="205" y="528" on="0"/>
      </contour>
    </TTGlyph>
    <TTGlyph name="asciicircum" xMin="70" yMin="569" xMax="1008" yMax="1475">
      <contour>
        <pt x="657" y="1475" on="1"/>
        <pt x="748" y="1475" on="1"/>
        <pt x="1008" y="569" on="1"/>
        <pt x="903" y="569" on="1"/>
        <pt x="686" y="1378" on="1"/>
        <pt x="186" y="569" on="1"/>
        <pt x="70" y="569" on="1"/>
      </contour>
    </TTGlyph>
    <TTGlyph name="asciitilde" xMin="127" yMin="616" xMax="1075" yMax="829">
      <contour>
        <pt x="1075" y="729" on="1"/>
        <pt x="964" y="616" on="0"/>
        <pt x="726" y="616" on="0"/>
        <pt x="450" y="745" on="0"/>
        <pt x="350" y="745" on="1"/>
        <pt x="300" y="745" on="0"/>
        <pt x="182" y="683" on="0"/>
        <pt x="127" y="625" on="1"/>
        <pt x="127" y="719" on="1"/>
        <pt x="235" y="829" on="0"/>
        <pt x="360" y="829" on="1"/>
        <pt x="419" y="829" on="0"/>
        <pt x="529" y="802" on="0"/>
        <pt x="631" y="758" on="1"/>
        <pt x="756" y="700" on="0"/>
        <pt x="850" y="700" on="1"/>
        <pt x="956" y="700" on="0"/>
        <pt x="1075" y="825" on="1"/>
      </contour>
    </TTGlyph>
    <TTGlyph name="asterisk" xMin="233" yMin="627" xMax="1163" yMax="1559">
      <contour>
        <pt x="725" y="1135" on="1"/>
        <pt x="1163" y="1143" on="1"/>
        <pt x="1155" y="1036" on="1"/>
        <pt x="739" y="1065" on="1"/>
        <pt x="920" y="664" on="1"/>
        <pt x="805" y="627" on="1"/>
        <pt x="670" y="1044" on="1"/>
        <pt x="385" y="696" on="1"/>
        <pt x="307" y="774" on="1"/>
        <pt x="625" y="1092" on="1"/>
        <pt x="233" y="1217" on="1"/>
        <pt x="272" y="1319" on="1"/>
        <pt x="666" y="1151" on="1"/>
        <pt x="713" y="1559" on="1"/>
        <pt x="834" y="1540" on="1"/>
      </contour>
    </TTGlyph>
    <TTGlyph name="at" xMin="125" yMin="-184" xMax="1688" yMax="1458">
      <contour>
        <pt x="799" y="-184" on="1"/>
        <pt x="651" y="-184" on="0"/>
        <pt x="526" y="-137" on="1"/>
        <pt x="270" y="-39" on="0"/>
        <pt x="172" y="219" on="1"/>
        <pt x="125" y="345" on="0"/>
        <pt x="125" y="496" on="1"/>
        <pt x="125" y="502" on="0"/>
        <pt x="125" y="508" on="1"/>
        <pt x="125" y="784" on="0"/>
        <pt x="368" y="1219" on="0"/>
        <pt x="799" y="1458" on="0"/>
        <pt x="1057" y="1458" on="1"/>
        <pt x="1247" y="1458" on="0"/>
        <pt x="1387" y="1385" on="1"/>
        <pt x="1528" y="1314" on="0"/>
        <pt x="1688" y="1032" on="0"/>
        <pt x="1688" y="681" on="0"/>
        <pt x="1576" y="390" on="0"/>
        <pt x="1380" y="225" on="0"/>
        <pt x="1169" y="225" on="0"/>
        <pt x="1055" y="334" on="0"/>
        <pt x="1055" y="424" on="1"/>
        <pt x="1051" y="424" on="1"/>
        <pt x="997" y="328" on="0"/>
        <pt x="841" y="225" on="0"/>
        <pt x="750" y="225" on="1"/>
        <pt x="638" y="225" on="0"/>
        <pt x="506" y="372" on="0"/>
        <pt x="506" y="500" on="1"/>
        <pt x="506" y="506" on="0"/>
        <pt x="506" y="513" on="1"/>
        <pt x="506" y="739" on="0"/>
        <pt x="787" y="1053" on="0"/>
        <pt x="998" y="1053" on="1"/>
        <pt x="1003" y="1053" on="0"/>
        <pt x="1008" y="1053" on="1"/>
        <pt x="1131" y="1053" on="0"/>
        <pt x="1260" y="1001" on="1"/>
        <pt x="1176" y="686" on="1"/>
        <pt x="1137" y="546" on="0"/>
        <pt x="1137" y="393" on="0"/>
        <pt x="1207" y="313" on="0"/>
        <pt x="1272" y="313" on="1"/>
        <pt x="1359" y="313" on="0"/>
        <pt x="1506" y="460" on="0"/>
        <pt x="1593" y="710" on="0"/>
        <pt x="1593" y="836" on="1"/>
        <pt x="1593" y="839" on="0"/>
        <pt x="1593" y="842" on="1"/>
        <pt x="1593" y="1075" on="0"/>
        <pt x="1302" y="1368" on="0"/>
        <pt x="1059" y="1368" on="1"/>
        <pt x="1054" y="1368" on="0"/>
        <pt x="1049" y="1368" on="1"/>
        <pt x="814" y="1368" on="0"/>
        <pt x="435" y="1151" on="0"/>
        <pt x="223" y="761" on="0"/>
        <pt x="223" y="516" on="1"/>
        <pt x="223" y="228" on="0"/>
        <pt x="533" y="-94" on="0"/>
        <pt x="813" y="-94" on="1"/>
        <pt x="1021" y="-94" on="0"/>
        <pt x="1233" y="-12" on="1"/>
        <pt x="1233" y="-102" on="1"/>
        <pt x="1024" y="-184" on="0"/>
        <pt x="805" y="-184" on="1"/>
        <pt x="802" y="-184" on="0"/>
      </contour>
      <contour>
        <pt x="1001" y="969" on="1"/>
        <pt x="894" y="969" on="0"/>
        <pt x="712" y="851" on="0"/>
        <pt x="610" y="640" on="0"/>
        <pt x="610" y="516" on="1"/>
        <pt x="610" y="511" on="0"/>
        <pt x="610" y="506" on="1"/>
        <pt x="610" y="414" on="0"/>
        <pt x="691" y="313" on="0"/>
        <pt x="764" y="313" on="1"/>
        <pt x="865" y="313" on="0"/>
        <pt x="1024" y="492" on="0"/>
        <pt x="1069" y="657" on="1"/>
        <pt x="1147" y="946" on="1"/>
        <pt x="1080" y="969" on="0"/>
        <pt x="1008" y="969" on="1"/>
        <pt x="1004" y="969" on="0"/>
      </contour>
    </TTGlyph>
    <TTGlyph name="atilde" xMin="102" yMin="-20" xMax="1079" yMax="1477">
      <contour>
        <pt x="858" y="1249" on="1"/>
        <pt x="798" y="1249" on="0"/>
        <pt x="705" y="1313" on="1"/>
        <pt x="672" y="1336" on="0"/>
        <pt x="647" y="1352" on="0"/>
        <pt x="596" y="1372" on="0"/>
        <pt x="572" y="1372" on="1"/>
        <pt x="526" y="1372" on="0"/>
        <pt x="468" y="1314" on="0"/>
        <pt x="447" y="1243" on="1"/>
        <pt x="373" y="1243" on="1"/>
        <pt x="392" y="1352" on="0"/>
        <pt x="497" y="1468" on="0"/>
        <pt x="578" y="1468" on="1"/>
        <pt x="618" y="1468" on="0"/>
        <pt x="683" y="1441" on="0"/>
        <pt x="769" y="1382" on="1"/>
        <pt x="822" y="1346" on="0"/>
        <pt x="906" y="1346" on="0"/>
        <pt x="963" y="1408" on="0"/>
        <pt x="981" y="1477" on="1"/>
        <pt x="1057" y="1477" on="1"/>
        <pt x="1031" y="1360" on="0"/>
        <pt x="934" y="1249" on="0"/>
      </contour>
      <contour>
        <pt x="383" y="-20" on="1"/>
        <pt x="102" y="-20" on="0"/>
        <pt x="102" y="354" on="1"/>
        <pt x="102" y="551" on="0"/>
        <pt x="252" y="908" on="0"/>
        <pt x="377" y="1006" on="1"/>
        <pt x="504" y="1104" on="0"/>
        <pt x="655" y="1104" on="1"/>
        <pt x="888" y="1104" on="0"/>
        <pt x="934" y="885" on="1"/>
        <pt x="940" y="885" on="1"/>
        <pt x="999" y="1087" on="1"/>
        <pt x="1079" y="1087" on="1"/>
        <pt x="850" y="0" on="1"/>
        <pt x="768" y="0" on="1"/>
        <pt x="813" y="274" on="1"/>
        <pt x="807" y="274" on="1"/>
        <pt x="720" y="128" on="0"/>
        <pt x="514" y="-20" on="0"/>
      </contour>
      <contour>
        <pt x="205" y="365" on="1"/>
        <pt x="205" y="70" on="0"/>
        <pt x="399" y="70" on="1"/>
        <pt x="494" y="70" on="0"/>
        <pt x="670" y="193" on="0"/>
        <pt x="812" y="401" on="0"/>
        <pt x="887" y="652" on="0"/>
        <pt x="887" y="741" on="1"/>
        <pt x="887" y="864" on="0"/>
        <pt x="767" y="1018" on="0"/>
        <pt x="533" y="1018" on="0"/>
        <pt x="334" y="855" on="0"/>
        <pt x="205" y="528" on="0"/>
      </contour>
    </TTGlyph>
    <TTGlyph name="b" xMin="76" yMin="-16" xMax="1053" yMax="1556">
      <contour>
        <pt x="772" y="1108" on="1"/>
        <pt x="1053" y="1108" on="0"/>
        <pt x="1053" y="733" on="1"/>
        <pt x="1053" y="529" on="0"/>
        <pt x="902" y="177" on="0"/>
        <pt x="651" y="-16" on="0"/>
        <pt x="500" y="-16" on="1"/>
        <pt x="387" y="-16" on="0"/>
        <pt x="241" y="101" on="0"/>
        <pt x="217" y="209" on="1"/>
        <pt x="211" y="209" on="1"/>
        <pt x="156" y="0" on="1"/>
        <pt x="76" y="0" on="1"/>
        <pt x="403" y="1556" on="1"/>
        <pt x="498" y="1556" on="1"/>
        <pt x="368" y="930" on="0"/>
        <pt x="336" y="805" on="1"/>
        <pt x="342" y="805" on="1"/>
        <pt x="434" y="960" on="0"/>
        <pt x="646" y="1108" on="0"/>
      </contour>
      <contour>
        <pt x="950" y="875" on="0"/>
        <pt x="852" y="1018" on="0"/>
        <pt x="660" y="1018" on="0"/>
        <pt x="482" y="896" on="0"/>
        <pt x="409" y="787" on="1"/>
        <pt x="337" y="676" on="0"/>
        <pt x="268" y="423" on="0"/>
        <pt x="268" y="346" on="1"/>
        <pt x="268" y="216" on="0"/>
        <pt x="396" y="70" on="0"/>
        <pt x="498" y="70" on="1"/>
        <pt x="621" y="70" on="0"/>
        <pt x="821" y="234" on="0"/>
        <pt x="950" y="559" on="0"/>
      </contour>
    </TTGlyph>
    <TTGlyph name="backslash" xMin="209" yMin="0" xMax="537" yMax="1462">
      <contour>
        <pt x="537" y="0" on="1"/>
        <pt x="455" y="0" on="1"/>
        <pt x="209" y="1462" on="1"/>
        <pt x="295" y="1462" on="1"/>
      </contour>
    </TTGlyph>
    <TTGlyph name="bar" xMin="584" yMin="-510" xMax="684" yMax="1561">
      <contour>
        <pt x="684" y="1561" on="1"/>
        <pt x="684" y="-510" on="1"/>
        <pt x="584" y="-510" on="1"/>
        <pt x="584" y="1561" on="1"/>
      </contour>
    </TTGlyph>
    <TTGlyph name="betdageshhb" xMin="-66" yMin="0" xMax="899" yMax="1310">
      <contour>
        <pt x="209" y="1300" on="1"/>
        <pt x="367" y="1310" on="0"/>
        <pt x="541" y="1310" on="0"/>
        <pt x="627" y="1303" on="0"/>
        <pt x="712" y="1288" on="0"/>
        <pt x="779" y="1260" on="0"/>
        <pt x="838" y="1221" on="0"/>
        <pt x="876" y="1165" on="0"/>
        <pt x="899" y="1095" on="0"/>
        <pt x="899" y="1001" on="0"/>
        <pt x="887" y="946" on="1"/>
        <pt x="704" y="88" on="1"/>
        <pt x="855" y="88" on="1"/>
        <pt x="837" y="0" on="1"/>
        <pt x="-66" y="0" on="1"/>
        <pt x="-48" y="88" on="1"/>
        <pt x="602" y="88" on="1"/>
        <pt x="785" y="946" on="1"/>
        <pt x="795" y="993" on="0"/>
        <pt x="795" y="1064" on="0"/>
        <pt x="777" y="1117" on="0"/>
        <pt x="748" y="1159" on="0"/>
        <pt x="701" y="1187" on="0"/>
        <pt x="649" y="1206" on="0"/>
        <pt x="614" y="1211" on="1"/>
        <pt x="552" y="1220" on="0"/>
        <pt x="373" y="1220" on="0"/>
        <pt x="190" y="1209" on="1"/>
      </contour>
      <contour>
        <pt x="387" y="741" on="1"/>
        <pt x="438" y="741" on="0"/>
        <pt x="438" y="692" on="1"/>
        <pt x="438" y="680" on="0"/>
        <pt x="435" y="665" on="1"/>
        <pt x="418" y="591" on="0"/>
        <pt x="355" y="591" on="1"/>
        <pt x="306" y="591" on="0"/>
        <pt x="306" y="637" on="1"/>
        <pt x="306" y="649" on="0"/>
        <pt x="310" y="665" on="1"/>
        <pt x="326" y="741" on="0"/>
      </contour>
    </TTGlyph>
    <TTGlyph name="braceleft" xMin="59" yMin="-324" xMax="799" yMax="1462">
      <contour>
        <pt x="444" y="-324" on="1"/>
        <pt x="424" y="-324" on="1"/>
        <pt x="168" y="-324" on="0"/>
        <pt x="168" y="-125" on="1"/>
        <pt x="168" y="-78" on="0"/>
        <pt x="184" y="-10" on="1"/>
        <pt x="240" y="242" on="1"/>
        <pt x="258" y="332" on="0"/>
        <pt x="258" y="369" on="1"/>
        <pt x="258" y="528" on="0"/>
        <pt x="59" y="528" on="1"/>
        <pt x="80" y="606" on="1"/>
        <pt x="205" y="606" on="0"/>
        <pt x="336" y="704" on="0"/>
        <pt x="360" y="813" on="1"/>
        <pt x="449" y="1206" on="1"/>
        <pt x="479" y="1341" on="0"/>
        <pt x="631" y="1462" on="0"/>
        <pt x="770" y="1462" on="1"/>
        <pt x="799" y="1462" on="1"/>
        <pt x="782" y="1376" on="1"/>
        <pt x="696" y="1374" on="0"/>
        <pt x="611" y="1337" on="0"/>
        <pt x="557" y="1252" on="0"/>
        <pt x="539" y="1174" on="1"/>
        <pt x="465" y="836" on="1"/>
        <pt x="435" y="703" on="0"/>
        <pt x="373" y="641" on="1"/>
        <pt x="311" y="581" on="0"/>
        <pt x="209" y="563" on="1"/>
        <pt x="209" y="559" on="1"/>
        <pt x="277" y="541" on="0"/>
        <pt x="352" y="441" on="0"/>
        <pt x="352" y="318" on="0"/>
        <pt x="328" y="205" on="1"/>
        <pt x="281" y="-20" on="1"/>
        <pt x="268" y="-76" on="0"/>
        <pt x="268" y="-182" on="0"/>
        <pt x="342" y="-238" on="0"/>
        <pt x="444" y="-238" on="1"/>
      </contour>
    </TTGlyph>
    <TTGlyph name="braceright" xMin="-41" yMin="-324" xMax="688" yMax="1462">
      <contour>
        <pt x="332" y="1462" on="1"/>
        <pt x="461" y="1462" on="0"/>
        <pt x="580" y="1362" on="0"/>
        <pt x="580" y="1264" on="1"/>
        <pt x="580" y="1225" on="0"/>
        <pt x="563" y="1149" on="1"/>
        <pt x="508" y="897" on="1"/>
        <pt x="489" y="805" on="0"/>
        <pt x="489" y="770" on="1"/>
        <pt x="489" y="692" on="0"/>
        <pt x="589" y="610" on="0"/>
        <pt x="688" y="610" on="1"/>
        <pt x="668" y="532" on="1"/>
        <pt x="543" y="532" on="0"/>
        <pt x="411" y="435" on="0"/>
        <pt x="387" y="326" on="1"/>
        <pt x="299" y="-68" on="1"/>
        <pt x="268" y="-205" on="0"/>
        <pt x="113" y="-324" on="0"/>
        <pt x="-23" y="-324" on="1"/>
        <pt x="-41" y="-324" on="1"/>
        <pt x="-41" y="-238" on="1"/>
        <pt x="55" y="-236" on="0"/>
        <pt x="139" y="-198" on="0"/>
        <pt x="192" y="-113" on="0"/>
        <pt x="209" y="-35" on="1"/>
        <pt x="283" y="303" on="1"/>
        <pt x="310" y="429" on="0"/>
        <pt x="431" y="556" on="0"/>
        <pt x="539" y="575" on="1"/>
        <pt x="539" y="580" on="1"/>
        <pt x="467" y="599" on="0"/>
        <pt x="395" y="701" on="0"/>
        <pt x="395" y="824" on="0"/>
        <pt x="413" y="901" on="1"/>
        <pt x="467" y="1159" on="1"/>
        <pt x="479" y="1220" on="0"/>
        <pt x="479" y="1262" on="1"/>
        <pt x="479" y="1344" on="0"/>
        <pt x="407" y="1365" on="1"/>
        <pt x="369" y="1376" on="0"/>
        <pt x="291" y="1376" on="1"/>
        <pt x="311" y="1462" on="1"/>
      </contour>
    </TTGlyph>
    <TTGlyph name="bracketleft" xMin="-57" yMin="-324" xMax="748" yMax="1462">
      <contour>
        <pt x="-57" y="-324" on="1"/>
        <pt x="319" y="1462" on="1"/>
        <pt x="748" y="1462" on="1"/>
        <pt x="729" y="1372" on="1"/>
        <pt x="399" y="1372" on="1"/>
        <pt x="59" y="-233" on="1"/>
        <pt x="389" y="-233" on="1"/>
        <pt x="369" y="-324" on="1"/>
      </contour>
    </TTGlyph>
    <TTGlyph name="bracketright" xMin="-176" yMin="-324" xMax="629" yMax="1462">
      <contour>
        <pt x="629" y="1462" on="1"/>
        <pt x="252" y="-324" on="1"/>
        <pt x="-176" y="-324" on="1"/>
        <pt x="-158" y="-233" on="1"/>
        <pt x="172" y="-233" on="1"/>
        <pt x="512" y="1372" on="1"/>
        <pt x="182" y="1372" on="1"/>
        <pt x="203" y="1462" on="1"/>
      </contour>
    </TTGlyph>
    <TTGlyph name="breve" xMin="494" yMin="1247" xMax="1008" yMax="1481">
      <contour>
        <pt x="1008" y="1481" on="1"/>
        <pt x="951" y="1247" on="0"/>
        <pt x="722" y="1247" on="1"/>
        <pt x="610" y="1247" on="0"/>
        <pt x="494" y="1348" on="0"/>
        <pt x="494" y="1440" on="1"/>
        <pt x="494" y="1461" on="1"/>
        <pt x="496" y="1481" on="1"/>
        <pt x="565" y="1481" on="1"/>
        <pt x="565" y="1411" on="0"/>
        <pt x="639" y="1343" on="0"/>
        <pt x="810" y="1343" on="0"/>
        <pt x="912" y="1406" on="0"/>
        <pt x="936" y="1481" on="1"/>
      </contour>
    </TTGlyph>
    <TTGlyph name="bullet" xMin="248" yMin="524" xMax="639" yMax="971">
      <contour>
        <pt x="248" y="682" on="1"/>
        <pt x="248" y="818" on="0"/>
        <pt x="374" y="971" on="0"/>
        <pt x="483" y="971" on="1"/>
        <pt x="639" y="971" on="0"/>
        <pt x="639" y="813" on="1"/>
        <pt x="639" y="688" on="0"/>
        <pt x="507" y="524" on="0"/>
        <pt x="397" y="524" on="1"/>
        <pt x="248" y="524" on="0"/>
      </contour>
    </TTGlyph>
    <TTGlyph name="c" xMin="102" yMin="-20" xMax="905" yMax="1104">
      <contour>
        <pt x="750" y="37" on="1"/>
        <pt x="634" y="-20" on="0"/>
        <pt x="303" y="-20" on="0"/>
        <pt x="202" y="90" on="1"/>
        <pt x="102" y="200" on="0"/>
        <pt x="102" y="591" on="0"/>
        <pt x="249" y="927" on="0"/>
        <pt x="499" y="1104" on="0"/>
        <pt x="664" y="1104" on="1"/>
        <pt x="800" y="1104" on="0"/>
        <pt x="905" y="1061" on="1"/>
        <pt x="877" y="971" on="1"/>
        <pt x="769" y="1018" on="0"/>
        <pt x="530" y="1018" on="0"/>
        <pt x="322" y="864" on="0"/>
        <pt x="205" y="572" on="0"/>
        <pt x="205" y="241" on="0"/>
        <pt x="352" y="70" on="0"/>
        <pt x="623" y="70" on="0"/>
        <pt x="750" y="129" on="1"/>
      </contour>
    </TTGlyph>
    <TTGlyph name="caron" xMin="514" yMin="1241" xMax="1028" yMax="1569">
      <contour>
        <pt x="514" y="1569" on="1"/>
        <pt x="563" y="1569" on="1"/>
        <pt x="635" y="1508" on="0"/>
        <pt x="725" y="1362" on="1"/>
        <pt x="784" y="1423" on="0"/>
        <pt x="850" y="1476" on="1"/>
        <pt x="923" y="1537" on="0"/>
        <pt x="975" y="1569" on="1"/>
        <pt x="1028" y="1569" on="1"/>
        <pt x="1028" y="1540" on="1"/>
        <pt x="956" y="1481" on="0"/>
        <pt x="785" y="1302" on="0"/>
        <pt x="743" y="1241" on="1"/>
        <pt x="680" y="1241" on="1"/>
        <pt x="652" y="1313" on="0"/>
        <pt x="558" y="1480" on="0"/>
        <pt x="514" y="1540" on="1"/>
      </contour>
    </TTGlyph>
    <TTGlyph name="ccedilla" xMin="102" yMin="-492" xMax="905" yMax="1104">
      <contour>
        <pt x="877" y="971" on="1"/>
        <pt x="769" y="1018" on="0"/>
        <pt x="530" y="1018" on="0"/>
        <pt x="322" y="864" on="0"/>
        <pt x="205" y="572" on="0"/>
        <pt x="205" y="241" on="0"/>
        <pt x="352" y="70" on="0"/>
        <pt x="623" y="70" on="0"/>
        <pt x="750" y="129" on="1"/>
        <pt x="750" y="37" on="1"/>
        <pt x="644" y="-16" on="0"/>
        <pt x="501" y="-20" on="1"/>
        <pt x="434" y="-137" on="1"/>
        <pt x="574" y="-167" on="0"/>
        <pt x="574" y="-289" on="1"/>
        <pt x="574" y="-384" on="0"/>
        <pt x="421" y="-492" on="0"/>
        <pt x="281" y="-492" on="1"/>
        <pt x="232" y="-492" on="0"/>
        <pt x="203" y="-485" on="1"/>
        <pt x="203" y="-406" on="1"/>
        <pt x="233" y="-412" on="0"/>
        <pt x="275" y="-412" on="1"/>
        <pt x="473" y="-412" on="0"/>
        <pt x="473" y="-297" on="1"/>
        <pt x="473" y="-200" on="0"/>
        <pt x="322" y="-190" on="1"/>
        <pt x="422" y="-17" on="1"/>
        <pt x="286" y="-2" on="0"/>
        <pt x="202" y="90" on="1"/>
        <pt x="102" y="200" on="0"/>
        <pt x="102" y="591" on="0"/>
        <pt x="249" y="927" on="0"/>
        <pt x="499" y="1104" on="0"/>
        <pt x="664" y="1104" on="1"/>
        <pt x="800" y="1104" on="0"/>
        <pt x="905" y="1061" on="1"/>
      </contour>
    </TTGlyph>
    <TTGlyph name="cedilla" xMin="-174" yMin="-492" xMax="197" yMax="0">
      <contour>
        <pt x="197" y="-289" on="1"/>
        <pt x="197" y="-384" on="0"/>
        <pt x="44" y="-492" on="0"/>
        <pt x="-96" y="-492" on="1"/>
        <pt x="-145" y="-492" on="0"/>
        <pt x="-174" y="-485" on="1"/>
        <pt x="-174" y="-406" on="1"/>
        <pt x="-144" y="-412" on="0"/>
        <pt x="-102" y="-412" on="1"/>
        <pt x="96" y="-412" on="0"/>
        <pt x="96" y="-297" on="1"/>
        <pt x="96" y="-200" on="0"/>
        <pt x="-55" y="-190" on="1"/>
        <pt x="55" y="0" on="1"/>
        <pt x="135" y="0" on="1"/>
        <pt x="57" y="-137" on="1"/>
        <pt x="197" y="-167" on="0"/>
      </contour>
    </TTGlyph>
    <TTGlyph name="cent" xMin="250" yMin="-20" xMax="1053" yMax="1483">
      <contour>
        <pt x="530" y="195" on="1"/>
        <pt x="397" y="221" on="0"/>
        <pt x="250" y="436" on="0"/>
        <pt x="250" y="784" on="0"/>
        <pt x="313" y="941" on="1"/>
        <pt x="377" y="1098" on="0"/>
        <pt x="491" y="1194" on="1"/>
        <pt x="607" y="1290" on="0"/>
        <pt x="748" y="1305" on="1"/>
        <pt x="784" y="1483" on="1"/>
        <pt x="874" y="1483" on="1"/>
        <pt x="836" y="1307" on="1"/>
        <pt x="954" y="1302" on="0"/>
        <pt x="1053" y="1264" on="1"/>
        <pt x="1024" y="1174" on="1"/>
        <pt x="916" y="1221" on="0"/>
        <pt x="807" y="1221" on="1"/>
        <pt x="677" y="1221" on="0"/>
        <pt x="471" y="1069" on="0"/>
        <pt x="352" y="777" on="0"/>
        <pt x="352" y="440" on="0"/>
        <pt x="499" y="272" on="0"/>
        <pt x="762" y="272" on="0"/>
        <pt x="899" y="332" on="1"/>
        <pt x="899" y="240" on="1"/>
        <pt x="782" y="182" on="0"/>
        <pt x="618" y="182" on="1"/>
        <pt x="578" y="-20" on="1"/>
        <pt x="485" y="-20" on="1"/>
      </contour>
    </TTGlyph>
    <TTGlyph name="circumflex" xMin="444" yMin="1241" xMax="958" yMax="1569">
      <contour>
        <pt x="958" y="1241" on="1"/>
        <pt x="909" y="1241" on="1"/>
        <pt x="841" y="1299" on="0"/>
        <pt x="748" y="1448" on="1"/>
        <pt x="691" y="1389" on="0"/>
        <pt x="546" y="1271" on="0"/>
        <pt x="498" y="1241" on="1"/>
        <pt x="444" y="1241" on="1"/>
        <pt x="444" y="1270" on="1"/>
        <pt x="512" y="1326" on="0"/>
        <pt x="693" y="1514" on="0"/>
        <pt x="729" y="1569" on="1"/>
        <pt x="793" y="1569" on="1"/>
        <pt x="816" y="1504" on="0"/>
        <pt x="912" y="1332" on="0"/>
        <pt x="958" y="1270" on="1"/>
      </contour>
    </TTGlyph>
    <TTGlyph name="colon" xMin="102" yMin="-18" xMax="420" yMax="1110">
      <contour>
        <pt x="260" y="989" on="1"/>
        <pt x="260" y="1046" on="0"/>
        <pt x="311" y="1110" on="0"/>
        <pt x="354" y="1110" on="1"/>
        <pt x="420" y="1110" on="0"/>
        <pt x="420" y="1038" on="1"/>
        <pt x="420" y="983" on="0"/>
        <pt x="370" y="915" on="0"/>
        <pt x="328" y="915" on="1"/>
        <pt x="260" y="915" on="0"/>
      </contour>
      <contour>
        <pt x="102" y="55" on="1"/>
        <pt x="102" y="111" on="0"/>
        <pt x="153" y="176" on="0"/>
        <pt x="197" y="176" on="1"/>
        <pt x="262" y="176" on="0"/>
        <pt x="262" y="104" on="1"/>
        <pt x="262" y="49" on="0"/>
        <pt x="211" y="-18" on="0"/>
        <pt x="170" y="-18" on="1"/>
        <pt x="102" y="-18" on="0"/>
      </contour>
    </TTGlyph>
    <TTGlyph name="comma" xMin="-90" yMin="-264" xMax="258" yMax="238">
      <contour>
        <pt x="250" y="238" on="1"/>
        <pt x="258" y="215" on="1"/>
        <pt x="223" y="122" on="0"/>
        <pt x="67" y="-156" on="0"/>
        <pt x="-16" y="-264" on="1"/>
        <pt x="-90" y="-264" on="1"/>
        <pt x="-10" y="-131" on="0"/>
        <pt x="115" y="153" on="0"/>
        <pt x="139" y="238" on="1"/>
      </contour>
    </TTGlyph>
    <TTGlyph name="copyright" xMin="147" yMin="-20" xMax="1651" yMax="1483">
      <contour>
        <pt x="692" y="-20" on="0"/>
        <pt x="342" y="186" on="0"/>
        <pt x="147" y="532" on="0"/>
        <pt x="147" y="931" on="0"/>
        <pt x="348" y="1282" on="0"/>
        <pt x="698" y="1483" on="0"/>
        <pt x="1099" y="1483" on="0"/>
        <pt x="1450" y="1282" on="0"/>
        <pt x="1651" y="932" on="0"/>
        <pt x="1651" y="533" on="0"/>
        <pt x="1455" y="186" on="0"/>
        <pt x="1106" y="-20" on="0"/>
      </contour>
      <contour>
        <pt x="410" y="1207" on="0"/>
        <pt x="240" y="905" on="0"/>
        <pt x="240" y="552" on="0"/>
        <pt x="416" y="250" on="0"/>
        <pt x="721" y="72" on="0"/>
        <pt x="1073" y="72" on="0"/>
        <pt x="1375" y="242" on="0"/>
        <pt x="1559" y="551" on="0"/>
        <pt x="1559" y="909" on="0"/>
        <pt x="1381" y="1213" on="0"/>
        <pt x="1077" y="1391" on="0"/>
        <pt x="718" y="1391" on="0"/>
      </contour>
      <contour>
        <pt x="944" y="1092" on="1"/>
        <pt x="802" y="1092" on="0"/>
        <pt x="641" y="902" on="0"/>
        <pt x="641" y="733" on="1"/>
        <pt x="641" y="369" on="0"/>
        <pt x="936" y="369" on="1"/>
        <pt x="1022" y="369" on="0"/>
        <pt x="1135" y="412" on="1"/>
        <pt x="1135" y="324" on="1"/>
        <pt x="1032" y="279" on="0"/>
        <pt x="926" y="279" on="1"/>
        <pt x="739" y="279" on="0"/>
        <pt x="537" y="511" on="0"/>
        <pt x="537" y="932" on="0"/>
        <pt x="757" y="1182" on="0"/>
        <pt x="944" y="1182" on="1"/>
        <pt x="1064" y="1182" on="0"/>
        <pt x="1171" y="1130" on="1"/>
        <pt x="1135" y="1047" on="1"/>
        <pt x="1036" y="1092" on="0"/>
      </contour>
    </TTGlyph>
    <TTGlyph name="d" xMin="102" yMin="-20" xMax="1180" yMax="1556">
      <contour>
        <pt x="383" y="-20" on="1"/>
        <pt x="102" y="-20" on="0"/>
        <pt x="102" y="354" on="1"/>
        <pt x="102" y="546" on="0"/>
        <pt x="173" y="724" on="1"/>
        <pt x="245" y="902" on="0"/>
        <pt x="371" y="1002" on="1"/>
        <pt x="497" y="1104" on="0"/>
        <pt x="655" y="1104" on="1"/>
        <pt x="884" y="1104" on="0"/>
        <pt x="934" y="885" on="1"/>
        <pt x="938" y="885" on="1"/>
        <pt x="948" y="939" on="0"/>
        <pt x="1081" y="1556" on="1"/>
        <pt x="1180" y="1556" on="1"/>
        <pt x="850" y="0" on="1"/>
        <pt x="768" y="0" on="1"/>
        <pt x="813" y="274" on="1"/>
        <pt x="807" y="274" on="1"/>
        <pt x="634" y="-20" on="0"/>
      </contour>
      <contour>
        <pt x="406" y="70" on="1"/>
        <pt x="495" y="70" on="0"/>
        <pt x="673" y="194" on="0"/>
        <pt x="815" y="408" on="0"/>
        <pt x="887" y="657" on="0"/>
        <pt x="887" y="741" on="1"/>
        <pt x="887" y="866" on="0"/>
        <pt x="764" y="1018" on="0"/>
        <pt x="534" y="1018" on="0"/>
        <pt x="334" y="854" on="0"/>
        <pt x="205" y="534" on="0"/>
        <pt x="205" y="365" on="1"/>
        <pt x="205" y="70" on="0"/>
      </contour>
    </TTGlyph>
    <TTGlyph name="dagger" xMin="180" yMin="0" xMax="965" yMax="1556">
      <contour>
        <pt x="586" y="1075" on="1"/>
        <pt x="385" y="0" on="1"/>
        <pt x="268" y="0" on="1"/>
        <pt x="522" y="1075" on="1"/>
        <pt x="180" y="1055" on="1"/>
        <pt x="205" y="1167" on="1"/>
        <pt x="537" y="1139" on="1"/>
        <pt x="598" y="1556" on="1"/>
        <pt x="715" y="1556" on="1"/>
        <pt x="600" y="1139" on="1"/>
        <pt x="965" y="1167" on="1"/>
        <pt x="940" y="1055" on="1"/>
      </contour>
    </TTGlyph>
    <TTGlyph name="daggerdbl" xMin="35" yMin="0" xMax="965" yMax="1556">
      <contour>
        <pt x="819" y="485" on="1"/>
        <pt x="795" y="373" on="1"/>
        <pt x="442" y="397" on="1"/>
        <pt x="385" y="0" on="1"/>
        <pt x="268" y="0" on="1"/>
        <pt x="379" y="397" on="1"/>
        <pt x="35" y="373" on="1"/>
        <pt x="59" y="485" on="1"/>
        <pt x="393" y="461" on="1"/>
        <pt x="444" y="786" on="1"/>
        <pt x="524" y="1079" on="1"/>
        <pt x="180" y="1055" on="1"/>
        <pt x="205" y="1167" on="1"/>
        <pt x="537" y="1143" on="1"/>
        <pt x="598" y="1556" on="1"/>
        <pt x="715" y="1556" on="1"/>
        <pt x="600" y="1143" on="1"/>
        <pt x="965" y="1167" on="1"/>
        <pt x="940" y="1055" on="1"/>
        <pt x="588" y="1079" on="1"/>
        <pt x="541" y="786" on="1"/>
        <pt x="457" y="461" on="1"/>
      </contour>
    </TTGlyph>
    <TTGlyph name="daletdageshhb" xMin="163" yMin="0" xMax="1086" yMax="1290">
      <contour>
        <pt x="1086" y="1290" on="1"/>
        <pt x="1070" y="1213" on="1"/>
        <pt x="1021" y="1197" on="0"/>
        <pt x="949" y="1161" on="0"/>
        <pt x="908" y="1129" on="1"/>
        <pt x="825" y="1064" on="0"/>
        <pt x="795" y="928" on="1"/>
        <pt x="598" y="0" on="1"/>
        <pt x="496" y="0" on="1"/>
        <pt x="693" y="928" on="1"/>
        <pt x="706" y="987" on="0"/>
        <pt x="756" y="1087" on="0"/>
        <pt x="783" y="1116" on="1"/>
        <pt x="838" y="1175" on="0"/>
        <pt x="876" y="1194" on="1"/>
        <pt x="892" y="1202" on="1"/>
        <pt x="163" y="1202" on="1"/>
        <pt x="182" y="1290" on="1"/>
      </contour>
      <contour>
        <pt x="385" y="741" on="1"/>
        <pt x="436" y="741" on="0"/>
        <pt x="436" y="692" on="1"/>
        <pt x="436" y="680" on="0"/>
        <pt x="433" y="665" on="1"/>
        <pt x="416" y="591" on="0"/>
        <pt x="353" y="591" on="1"/>
        <pt x="304" y="591" on="0"/>
        <pt x="304" y="637" on="1"/>
        <pt x="304" y="649" on="0"/>
        <pt x="308" y="665" on="1"/>
        <pt x="324" y="741" on="0"/>
      </contour>
    </TTGlyph>
    <TTGlyph name="degree" xMin="242" yMin="897" xMax="827" yMax="1483">
      <contour>
        <pt x="412" y="897" on="0"/>
        <pt x="242" y="1067" on="0"/>
        <pt x="242" y="1311" on="0"/>
        <pt x="412" y="1483" on="0"/>
        <pt x="656" y="1483" on="0"/>
        <pt x="827" y="1311" on="0"/>
        <pt x="827" y="1068" on="0"/>
        <pt x="656" y="897" on="0"/>
      </contour>
      <contour>
        <pt x="626" y="1411" on="0"/>
        <pt x="444" y="1411" on="0"/>
        <pt x="315" y="1280" on="0"/>
        <pt x="315" y="1101" on="0"/>
        <pt x="443" y="973" on="0"/>
        <pt x="627" y="973" on="0"/>
        <pt x="754" y="1101" on="0"/>
        <pt x="754" y="1281" on="0"/>
      </contour>
    </TTGlyph>
    <TTGlyph name="dieresis" xMin="492" yMin="1303" xMax="967" yMax="1473">
      <contour>
        <pt x="492" y="1366" on="1"/>
        <pt x="492" y="1415" on="0"/>
        <pt x="533" y="1473" on="0"/>
        <pt x="569" y="1473" on="1"/>
        <pt x="623" y="1473" on="0"/>
        <pt x="623" y="1409" on="1"/>
        <pt x="623" y="1361" on="0"/>
        <pt x="581" y="1303" on="0"/>
        <pt x="547" y="1303" on="1"/>
        <pt x="492" y="1303" on="0"/>
      </contour>
      <contour>
        <pt x="836" y="1366" on="1"/>
        <pt x="836" y="1415" on="0"/>
        <pt x="877" y="1473" on="0"/>
        <pt x="913" y="1473" on="1"/>
        <pt x="967" y="1473" on="0"/>
        <pt x="967" y="1409" on="1"/>
        <pt x="967" y="1361" on="0"/>
        <pt x="925" y="1303" on="0"/>
        <pt x="891" y="1303" on="1"/>
        <pt x="836" y="1303" on="0"/>
      </contour>
    </TTGlyph>
    <TTGlyph name="divide" xMin="168" yMin="266" xMax="1071" yMax="1178">
      <contour>
        <pt x="618" y="965" on="1"/>
        <pt x="522" y="965" on="0"/>
        <pt x="522" y="1178" on="0"/>
        <pt x="618" y="1178" on="1"/>
        <pt x="664" y="1178" on="0"/>
        <pt x="717" y="1122" on="0"/>
        <pt x="717" y="1017" on="0"/>
        <pt x="662" y="965" on="0"/>
      </contour>
      <contour>
        <pt x="168" y="772" on="1"/>
        <pt x="1071" y="772" on="1"/>
        <pt x="1071" y="672" on="1"/>
        <pt x="168" y="672" on="1"/>
      </contour>
      <contour>
        <pt x="618" y="266" on="1"/>
        <pt x="522" y="266" on="0"/>
        <pt x="522" y="479" on="0"/>
        <pt x="618" y="479" on="1"/>
        <pt x="666" y="479" on="0"/>
        <pt x="717" y="424" on="0"/>
        <pt x="717" y="319" on="0"/>
        <pt x="662" y="266" on="0"/>
      </contour>
    </TTGlyph>
    <TTGlyph name="dollar" xMin="141" yMin="-119" xMax="1057" yMax="1552">
      <contour>
        <pt x="928" y="467" on="1"/>
        <pt x="928" y="316" on="0"/>
        <pt x="706" y="131" on="0"/>
        <pt x="520" y="121" on="1"/>
        <pt x="467" y="-119" on="1"/>
        <pt x="385" y="-119" on="1"/>
        <pt x="436" y="121" on="1"/>
        <pt x="261" y="126" on="0"/>
        <pt x="141" y="182" on="1"/>
        <pt x="141" y="276" on="1"/>
        <pt x="206" y="242" on="0"/>
        <pt x="380" y="203" on="0"/>
        <pt x="455" y="203" on="1"/>
        <pt x="565" y="715" on="1"/>
        <pt x="458" y="766" on="0"/>
        <pt x="412" y="806" on="1"/>
        <pt x="322" y="887" on="0"/>
        <pt x="322" y="1010" on="1"/>
        <pt x="322" y="1166" on="0"/>
        <pt x="533" y="1355" on="0"/>
        <pt x="700" y="1360" on="1"/>
        <pt x="741" y="1552" on="1"/>
        <pt x="821" y="1552" on="1"/>
        <pt x="780" y="1360" on="1"/>
        <pt x="928" y="1356" on="0"/>
        <pt x="1057" y="1292" on="1"/>
        <pt x="1022" y="1214" on="1"/>
        <pt x="914" y="1275" on="0"/>
        <pt x="766" y="1284" on="1"/>
        <pt x="657" y="770" on="1"/>
        <pt x="782" y="710" on="0"/>
        <pt x="829" y="670" on="1"/>
        <pt x="928" y="591" on="0"/>
      </contour>
      <contour>
        <pt x="410" y="1018" on="1"/>
        <pt x="410" y="939" on="0"/>
        <pt x="485" y="839" on="0"/>
        <pt x="584" y="793" on="1"/>
        <pt x="686" y="1284" on="1"/>
        <pt x="553" y="1275" on="0"/>
        <pt x="410" y="1134" on="0"/>
      </contour>
      <contour>
        <pt x="842" y="461" on="1"/>
        <pt x="842" y="537" on="0"/>
        <pt x="746" y="644" on="0"/>
        <pt x="637" y="688" on="1"/>
        <pt x="537" y="203" on="1"/>
        <pt x="680" y="210" on="0"/>
        <pt x="842" y="345" on="0"/>
      </contour>
    </TTGlyph>
    <TTGlyph name="dotaccent" xMin="326" yMin="1292" xMax="465" yMax="1487">
      <contour>
        <pt x="326" y="1366" on="1"/>
        <pt x="326" y="1423" on="0"/>
        <pt x="369" y="1487" on="0"/>
        <pt x="408" y="1487" on="1"/>
        <pt x="465" y="1487" on="0"/>
        <pt x="465" y="1415" on="1"/>
        <pt x="465" y="1358" on="0"/>
        <pt x="421" y="1292" on="0"/>
        <pt x="385" y="1292" on="1"/>
        <pt x="326" y="1292" on="0"/>
      </contour>
    </TTGlyph>
    <TTGlyph name="dotlessi" xMin="76" yMin="0" xMax="403" yMax="1087">
      <contour>
        <pt x="76" y="0" on="1"/>
        <pt x="307" y="1087" on="1"/>
        <pt x="403" y="1087" on="1"/>
        <pt x="174" y="0" on="1"/>
      </contour>
    </TTGlyph>
    <TTGlyph name="e" xMin="102" yMin="-20" xMax="893" yMax="1104">
      <contour>
        <pt x="768" y="49" on="1"/>
        <pt x="628" y="-20" on="0"/>
        <pt x="296" y="-20" on="0"/>
        <pt x="102" y="198" on="0"/>
        <pt x="102" y="574" on="0"/>
        <pt x="244" y="908" on="0"/>
        <pt x="493" y="1104" on="0"/>
        <pt x="643" y="1104" on="1"/>
        <pt x="758" y="1104" on="0"/>
        <pt x="893" y="981" on="0"/>
        <pt x="893" y="877" on="1"/>
        <pt x="893" y="695" on="0"/>
        <pt x="564" y="506" on="0"/>
        <pt x="244" y="506" on="1"/>
        <pt x="211" y="506" on="1"/>
        <pt x="205" y="463" on="0"/>
        <pt x="205" y="408" on="1"/>
        <pt x="205" y="243" on="0"/>
        <pt x="353" y="70" on="0"/>
        <pt x="625" y="70" on="0"/>
        <pt x="768" y="143" on="1"/>
      </contour>
      <contour>
        <pt x="274" y="594" on="1"/>
        <pt x="791" y="594" on="0"/>
        <pt x="791" y="864" on="1"/>
        <pt x="791" y="932" on="0"/>
        <pt x="703" y="1018" on="0"/>
        <pt x="631" y="1018" on="1"/>
        <pt x="500" y="1018" on="0"/>
        <pt x="274" y="786" on="0"/>
        <pt x="225" y="594" on="1"/>
      </contour>
    </TTGlyph>
    <TTGlyph name="eacute" xMin="102" yMin="-20" xMax="949" yMax="1569">
      <contour>
        <pt x="532" y="1241" on="1"/>
        <pt x="532" y="1262" on="1"/>
        <pt x="600" y="1314" on="0"/>
        <pt x="682" y="1404" on="1"/>
        <pt x="766" y="1494" on="0"/>
        <pt x="812" y="1569" on="1"/>
        <pt x="949" y="1569" on="1"/>
        <pt x="949" y="1546" on="1"/>
        <pt x="899" y="1481" on="0"/>
        <pt x="791" y="1387" on="1"/>
        <pt x="682" y="1294" on="0"/>
        <pt x="599" y="1241" on="1"/>
      </contour>
      <contour>
        <pt x="768" y="49" on="1"/>
        <pt x="628" y="-20" on="0"/>
        <pt x="296" y="-20" on="0"/>
        <pt x="102" y="198" on="0"/>
        <pt x="102" y="574" on="0"/>
        <pt x="244" y="908" on="0"/>
        <pt x="493" y="1104" on="0"/>
        <pt x="643" y="1104" on="1"/>
        <pt x="758" y="1104" on="0"/>
        <pt x="893" y="981" on="0"/>
        <pt x="893" y="877" on="1"/>
        <pt x="893" y="695" on="0"/>
        <pt x="564" y="506" on="0"/>
        <pt x="244" y="506" on="1"/>
        <pt x="211" y="506" on="1"/>
        <pt x="205" y="463" on="0"/>
        <pt x="205" y="408" on="1"/>
        <pt x="205" y="243" on="0"/>
        <pt x="353" y="70" on="0"/>
        <pt x="625" y="70" on="0"/>
        <pt x="768" y="143" on="1"/>
      </contour>
      <contour>
        <pt x="274" y="594" on="1"/>
        <pt x="791" y="594" on="0"/>
        <pt x="791" y="864" on="1"/>
        <pt x="791" y="932" on="0"/>
        <pt x="703" y="1018" on="0"/>
        <pt x="631" y="1018" on="1"/>
        <pt x="500" y="1018" on="0"/>
        <pt x="274" y="786" on="0"/>
        <pt x="225" y="594" on="1"/>
      </contour>
    </TTGlyph>
    <TTGlyph name="ecircumflex" xMin="102" yMin="-20" xMax="904" yMax="1569">
      <contour>
        <pt x="904" y="1241" on="1"/>
        <pt x="855" y="1241" on="1"/>
        <pt x="787" y="1299" on="0"/>
        <pt x="694" y="1448" on="1"/>
        <pt x="637" y="1389" on="0"/>
        <pt x="492" y="1271" on="0"/>
        <pt x="444" y="1241" on="1"/>
        <pt x="390" y="1241" on="1"/>
        <pt x="390" y="1270" on="1"/>
        <pt x="458" y="1326" on="0"/>
        <pt x="639" y="1514" on="0"/>
        <pt x="675" y="1569" on="1"/>
        <pt x="739" y="1569" on="1"/>
        <pt x="762" y="1504" on="0"/>
        <pt x="858" y="1332" on="0"/>
        <pt x="904" y="1270" on="1"/>
      </contour>
      <contour>
        <pt x="768" y="49" on="1"/>
        <pt x="628" y="-20" on="0"/>
        <pt x="296" y="-20" on="0"/>
        <pt x="102" y="198" on="0"/>
        <pt x="102" y="574" on="0"/>
        <pt x="244" y="908" on="0"/>
        <pt x="493" y="1104" on="0"/>
        <pt x="643" y="1104" on="1"/>
        <pt x="758" y="1104" on="0"/>
        <pt x="893" y="981" on="0"/>
        <pt x="893" y="877" on="1"/>
        <pt x="893" y="695" on="0"/>
        <pt x="564" y="506" on="0"/>
        <pt x="244" y="506" on="1"/>
        <pt x="211" y="506" on="1"/>
        <pt x="205" y="463" on="0"/>
        <pt x="205" y="408" on="1"/>
        <pt x="205" y="243" on="0"/>
        <pt x="353" y="70" on="0"/>
        <pt x="625" y="70" on="0"/>
        <pt x="768" y="143" on="1"/>
      </contour>
      <contour>
        <pt x="274" y="594" on="1"/>
        <pt x="791" y="594" on="0"/>
        <pt x="791" y="864" on="1"/>
        <pt x="791" y="932" on="0"/>
        <pt x="703" y="1018" on="0"/>
        <pt x="631" y="1018" on="1"/>
        <pt x="500" y="1018" on="0"/>
        <pt x="274" y="786" on="0"/>
        <pt x="225" y="594" on="1"/>
      </contour>
    </TTGlyph>
    <TTGlyph name="edieresis" xMin="102" yMin="-20" xMax="911" yMax="1473">
      <contour>
        <pt x="436" y="1366" on="1"/>
        <pt x="436" y="1415" on="0"/>
        <pt x="477" y="1473" on="0"/>
        <pt x="513" y="1473" on="1"/>
        <pt x="567" y="1473" on="0"/>
        <pt x="567" y="1409" on="1"/>
        <pt x="567" y="1361" on="0"/>
        <pt x="525" y="1303" on="0"/>
        <pt x="491" y="1303" on="1"/>
        <pt x="436" y="1303" on="0"/>
      </contour>
      <contour>
        <pt x="780" y="1366" on="1"/>
        <pt x="780" y="1415" on="0"/>
        <pt x="821" y="1473" on="0"/>
        <pt x="857" y="1473" on="1"/>
        <pt x="911" y="1473" on="0"/>
        <pt x="911" y="1409" on="1"/>
        <pt x="911" y="1361" on="0"/>
        <pt x="869" y="1303" on="0"/>
        <pt x="835" y="1303" on="1"/>
        <pt x="780" y="1303" on="0"/>
      </contour>
      <contour>
        <pt x="768" y="49" on="1"/>
        <pt x="628" y="-20" on="0"/>
        <pt x="296" y="-20" on="0"/>
        <pt x="102" y="198" on="0"/>
        <pt x="102" y="574" on="0"/>
        <pt x="244" y="908" on="0"/>
        <pt x="493" y="1104" on="0"/>
        <pt x="643" y="1104" on="1"/>
        <pt x="758" y="1104" on="0"/>
        <pt x="893" y="981" on="0"/>
        <pt x="893" y="877" on="1"/>
        <pt x="893" y="695" on="0"/>
        <pt x="564" y="506" on="0"/>
        <pt x="244" y="506" on="1"/>
        <pt x="211" y="506" on="1"/>
        <pt x="205" y="463" on="0"/>
        <pt x="205" y="408" on="1"/>
        <pt x="205" y="243" on="0"/>
        <pt x="353" y="70" on="0"/>
        <pt x="625" y="70" on="0"/>
        <pt x="768" y="143" on="1"/>
      </contour>
      <contour>
        <pt x="274" y="594" on="1"/>
        <pt x="791" y="594" on="0"/>
        <pt x="791" y="864" on="1"/>
        <pt x="791" y="932" on="0"/>
        <pt x="703" y="1018" on="0"/>
        <pt x="631" y="1018" on="1"/>
        <pt x="500" y="1018" on="0"/>
        <pt x="274" y="786" on="0"/>
        <pt x="225" y="594" on="1"/>
      </contour>
    </TTGlyph>
    <TTGlyph name="egrave" xMin="102" yMin="-20" xMax="893" yMax="1569">
      <contour>
        <pt x="751" y="1241" on="1"/>
        <pt x="685" y="1241" on="1"/>
        <pt x="636" y="1294" on="0"/>
        <pt x="506" y="1479" on="0"/>
        <pt x="472" y="1548" on="1"/>
        <pt x="472" y="1569" on="1"/>
        <pt x="587" y="1569" on="1"/>
        <pt x="635" y="1437" on="0"/>
        <pt x="751" y="1266" on="1"/>
      </contour>
      <contour>
        <pt x="768" y="49" on="1"/>
        <pt x="628" y="-20" on="0"/>
        <pt x="296" y="-20" on="0"/>
        <pt x="102" y="198" on="0"/>
        <pt x="102" y="574" on="0"/>
        <pt x="244" y="908" on="0"/>
        <pt x="493" y="1104" on="0"/>
        <pt x="643" y="1104" on="1"/>
        <pt x="758" y="1104" on="0"/>
        <pt x="893" y="981" on="0"/>
        <pt x="893" y="877" on="1"/>
        <pt x="893" y="695" on="0"/>
        <pt x="564" y="506" on="0"/>
        <pt x="244" y="506" on="1"/>
        <pt x="211" y="506" on="1"/>
        <pt x="205" y="463" on="0"/>
        <pt x="205" y="408" on="1"/>
        <pt x="205" y="243" on="0"/>
        <pt x="353" y="70" on="0"/>
        <pt x="625" y="70" on="0"/>
        <pt x="768" y="143" on="1"/>
      </contour>
      <contour>
        <pt x="274" y="594" on="1"/>
        <pt x="791" y="594" on="0"/>
        <pt x="791" y="864" on="1"/>
        <pt x="791" y="932" on="0"/>
        <pt x="703" y="1018" on="0"/>
        <pt x="631" y="1018" on="1"/>
        <pt x="500" y="1018" on="0"/>
        <pt x="274" y="786" on="0"/>
        <pt x="225" y="594" on="1"/>
      </contour>
    </TTGlyph>
    <TTGlyph name="eight" xMin="98" yMin="-20" xMax="1090" yMax="1485">
      <contour>
        <pt x="332" y="1114" on="1"/>
        <pt x="332" y="1272" on="0"/>
        <pt x="559" y="1485" on="0"/>
        <pt x="901" y="1485" on="0"/>
        <pt x="1090" y="1314" on="0"/>
        <pt x="1090" y="1034" on="0"/>
        <pt x="923" y="841" on="0"/>
        <pt x="721" y="764" on="1"/>
        <pt x="850" y="686" on="0"/>
        <pt x="971" y="502" on="0"/>
        <pt x="971" y="385" on="1"/>
        <pt x="971" y="206" on="0"/>
        <pt x="711" y="-20" on="0"/>
        <pt x="487" y="-20" on="1"/>
        <pt x="310" y="-20" on="0"/>
        <pt x="203" y="72" on="1"/>
        <pt x="98" y="165" on="0"/>
        <pt x="98" y="485" on="0"/>
        <pt x="299" y="704" on="0"/>
        <pt x="520" y="782" on="1"/>
        <pt x="421" y="853" on="0"/>
        <pt x="332" y="1013" on="0"/>
      </contour>
      <contour>
        <pt x="993" y="1272" on="0"/>
        <pt x="852" y="1399" on="0"/>
        <pt x="597" y="1399" on="0"/>
        <pt x="512" y="1317" on="1"/>
        <pt x="428" y="1234" on="0"/>
        <pt x="428" y="1114" on="1"/>
        <pt x="428" y="1023" on="0"/>
        <pt x="512" y="886" on="0"/>
        <pt x="627" y="813" on="1"/>
        <pt x="819" y="874" on="0"/>
        <pt x="993" y="1040" on="0"/>
      </contour>
      <contour>
        <pt x="296" y="565" on="1"/>
        <pt x="201" y="470" on="0"/>
        <pt x="201" y="205" on="0"/>
        <pt x="355" y="63" on="0"/>
        <pt x="498" y="63" on="1"/>
        <pt x="667" y="63" on="0"/>
        <pt x="870" y="246" on="0"/>
        <pt x="870" y="387" on="1"/>
        <pt x="870" y="492" on="0"/>
        <pt x="744" y="662" on="0"/>
        <pt x="610" y="733" on="1"/>
        <pt x="392" y="659" on="0"/>
      </contour>
    </TTGlyph>
    <TTGlyph name="ellipsis" xMin="69" yMin="-18" xMax="1231" yMax="176">
      <contour>
        <pt x="69" y="55" on="1"/>
        <pt x="69" y="111" on="0"/>
        <pt x="119" y="176" on="0"/>
        <pt x="163" y="176" on="1"/>
        <pt x="229" y="176" on="0"/>
        <pt x="229" y="104" on="1"/>
        <pt x="229" y="50" on="0"/>
        <pt x="179" y="-18" on="0"/>
        <pt x="137" y="-18" on="1"/>
        <pt x="69" y="-18" on="0"/>
      </contour>
      <contour>
        <pt x="569" y="55" on="1"/>
        <pt x="569" y="111" on="0"/>
        <pt x="619" y="176" on="0"/>
        <pt x="663" y="176" on="1"/>
        <pt x="729" y="176" on="0"/>
        <pt x="729" y="104" on="1"/>
        <pt x="729" y="50" on="0"/>
        <pt x="679" y="-18" on="0"/>
        <pt x="637" y="-18" on="1"/>
        <pt x="569" y="-18" on="0"/>
      </contour>
      <contour>
        <pt x="1071" y="55" on="1"/>
        <pt x="1071" y="111" on="0"/>
        <pt x="1121" y="176" on="0"/>
        <pt x="1165" y="176" on="1"/>
        <pt x="1231" y="176" on="0"/>
        <pt x="1231" y="104" on="1"/>
        <pt x="1231" y="50" on="0"/>
        <pt x="1181" y="-18" on="0"/>
        <pt x="1139" y="-18" on="1"/>
        <pt x="1071" y="-18" on="0"/>
      </contour>
    </TTGlyph>
    <TTGlyph name="emdash" xMin="68" yMin="502" xMax="1874" yMax="592">
      <contour>
        <pt x="86" y="592" on="1"/>
        <pt x="1874" y="592" on="1"/>
        <pt x="1858" y="502" on="1"/>
        <pt x="68" y="502" on="1"/>
      </contour>
    </TTGlyph>
    <TTGlyph name="endash" xMin="66" yMin="502" xMax="891" yMax="592">
      <contour>
        <pt x="84" y="592" on="1"/>
        <pt x="891" y="592" on="1"/>
        <pt x="874" y="502" on="1"/>
        <pt x="66" y="502" on="1"/>
      </contour>
    </TTGlyph>
    <TTGlyph name="equal" xMin="168" yMin="461" xMax="1071" yMax="985">
      <contour>
        <pt x="168" y="985" on="1"/>
        <pt x="1071" y="985" on="1"/>
        <pt x="1071" y="885" on="1"/>
        <pt x="168" y="885" on="1"/>
      </contour>
      <contour>
        <pt x="168" y="559" on="1"/>
        <pt x="1071" y="559" on="1"/>
        <pt x="1071" y="461" on="1"/>
        <pt x="168" y="461" on="1"/>
      </contour>
    </TTGlyph>
    <TTGlyph name="exclam" xMin="80" yMin="-16" xMax="508" yMax="1462">
      <contour>
        <pt x="186" y="377" on="1"/>
        <pt x="389" y="1462" on="1"/>
        <pt x="508" y="1462" on="1"/>
        <pt x="248" y="377" on="1"/>
      </contour>
      <contour>
        <pt x="80" y="57" on="1"/>
        <pt x="80" y="113" on="0"/>
        <pt x="130" y="178" on="0"/>
        <pt x="174" y="178" on="1"/>
        <pt x="240" y="178" on="0"/>
        <pt x="240" y="106" on="1"/>
        <pt x="240" y="52" on="0"/>
        <pt x="189" y="-16" on="0"/>
        <pt x="147" y="-16" on="1"/>
        <pt x="80" y="-16" on="0"/>
      </contour>
    </TTGlyph>
    <TTGlyph name="exclamdown" xMin="4" yMin="-375" xMax="432" yMax="1104">
      <contour>
        <pt x="432" y="1030" on="1"/>
        <pt x="432" y="974" on="0"/>
        <pt x="382" y="909" on="0"/>
        <pt x="338" y="909" on="1"/>
        <pt x="272" y="909" on="0"/>
        <pt x="272" y="981" on="1"/>
        <pt x="272" y="1036" on="0"/>
        <pt x="323" y="1104" on="0"/>
        <pt x="365" y="1104" on="1"/>
        <pt x="432" y="1104" on="0"/>
      </contour>
      <contour>
        <pt x="326" y="711" on="1"/>
        <pt x="123" y="-375" on="1"/>
        <pt x="4" y="-375" on="1"/>
        <pt x="264" y="711" on="1"/>
      </contour>
    </TTGlyph>
    <TTGlyph name="f" xMin="-233" yMin="-492" xMax="881" yMax="1567">
      <contour>
        <pt x="-131" y="-492" on="1"/>
        <pt x="-180" y="-492" on="0"/>
        <pt x="-233" y="-473" on="1"/>
        <pt x="-233" y="-383" on="1"/>
        <pt x="-182" y="-399" on="0"/>
        <pt x="-133" y="-399" on="1"/>
        <pt x="-46" y="-399" on="0"/>
        <pt x="48" y="-294" on="0"/>
        <pt x="76" y="-160" on="1"/>
        <pt x="322" y="1006" on="1"/>
        <pt x="117" y="1006" on="1"/>
        <pt x="131" y="1073" on="1"/>
        <pt x="336" y="1087" on="1"/>
        <pt x="371" y="1247" on="1"/>
        <pt x="406" y="1415" on="0"/>
        <pt x="569" y="1567" on="0"/>
        <pt x="715" y="1567" on="1"/>
        <pt x="789" y="1567" on="0"/>
        <pt x="881" y="1536" on="1"/>
        <pt x="856" y="1456" on="1"/>
        <pt x="769" y="1483" on="0"/>
        <pt x="709" y="1483" on="1"/>
        <pt x="612" y="1483" on="0"/>
        <pt x="498" y="1375" on="0"/>
        <pt x="471" y="1251" on="1"/>
        <pt x="436" y="1087" on="1"/>
        <pt x="684" y="1087" on="1"/>
        <pt x="668" y="1006" on="1"/>
        <pt x="420" y="1006" on="1"/>
        <pt x="168" y="-184" on="1"/>
        <pt x="135" y="-345" on="0"/>
        <pt x="-7" y="-492" on="0"/>
      </contour>
    </TTGlyph>
    <TTGlyph name="finalkafdageshhb" xMin="190" yMin="-492" xMax="886" yMax="1309">
      <contour>
        <pt x="783" y="892" on="1"/>
        <pt x="783" y="1220" on="0"/>
        <pt x="471" y="1220" on="1"/>
        <pt x="375" y="1220" on="0"/>
        <pt x="297" y="1199" on="1"/>
        <pt x="271" y="1192" on="0"/>
        <pt x="198" y="1168" on="0"/>
        <pt x="190" y="1166" on="1"/>
        <pt x="210" y="1261" on="1"/>
        <pt x="254" y="1279" on="0"/>
        <pt x="414" y="1309" on="0"/>
        <pt x="585" y="1309" on="0"/>
        <pt x="730" y="1261" on="0"/>
        <pt x="774" y="1218" on="1"/>
        <pt x="867" y="1129" on="0"/>
        <pt x="882" y="996" on="1"/>
        <pt x="886" y="951" on="0"/>
        <pt x="886" y="917" on="1"/>
        <pt x="886" y="816" on="0"/>
        <pt x="865" y="717" on="1"/>
        <pt x="608" y="-492" on="1"/>
        <pt x="504" y="-492" on="1"/>
        <pt x="761" y="717" on="1"/>
        <pt x="783" y="812" on="0"/>
      </contour>
      <contour>
        <pt x="431" y="741" on="1"/>
        <pt x="482" y="741" on="0"/>
        <pt x="482" y="692" on="1"/>
        <pt x="482" y="680" on="0"/>
        <pt x="479" y="665" on="1"/>
        <pt x="462" y="591" on="0"/>
        <pt x="399" y="591" on="1"/>
        <pt x="350" y="591" on="0"/>
        <pt x="350" y="637" on="1"/>
        <pt x="350" y="649" on="0"/>
        <pt x="354" y="665" on="1"/>
        <pt x="370" y="741" on="0"/>
      </contour>
    </TTGlyph>
    <TTGlyph name="finalpedageshhb" xMin="139" yMin="-492" xMax="1091" yMax="1310">
      <contour>
        <pt x="430" y="441" on="1"/>
        <pt x="271" y="441" on="0"/>
        <pt x="192" y="558" on="1"/>
        <pt x="139" y="635" on="0"/>
        <pt x="139" y="744" on="1"/>
        <pt x="139" y="798" on="0"/>
        <pt x="152" y="859" on="1"/>
        <pt x="175" y="968" on="0"/>
        <pt x="295" y="1144" on="0"/>
        <pt x="374" y="1198" on="1"/>
        <pt x="537" y="1310" on="0"/>
        <pt x="717" y="1310" on="1"/>
        <pt x="947" y="1310" on="0"/>
        <pt x="1039" y="1147" on="1"/>
        <pt x="1091" y="1056" on="0"/>
        <pt x="1091" y="794" on="0"/>
        <pt x="1059" y="645" on="1"/>
        <pt x="817" y="-492" on="1"/>
        <pt x="715" y="-492" on="1"/>
        <pt x="957" y="645" on="1"/>
        <pt x="987" y="790" on="0"/>
        <pt x="987" y="981" on="0"/>
        <pt x="939" y="1134" on="0"/>
        <pt x="804" y="1220" on="0"/>
        <pt x="615" y="1220" on="0"/>
        <pt x="473" y="1173" on="0"/>
        <pt x="373" y="1098" on="0"/>
        <pt x="334" y="1050" on="1"/>
        <pt x="229" y="918" on="0"/>
        <pt x="229" y="753" on="1"/>
        <pt x="229" y="677" on="0"/>
        <pt x="260" y="626" on="1"/>
        <pt x="310" y="543" on="0"/>
        <pt x="454" y="522" on="1"/>
        <pt x="468" y="520" on="1"/>
        <pt x="435" y="441" on="1"/>
      </contour>
      <contour>
        <pt x="634" y="931" on="1"/>
        <pt x="685" y="931" on="0"/>
        <pt x="685" y="882" on="1"/>
        <pt x="685" y="870" on="0"/>
        <pt x="682" y="855" on="1"/>
        <pt x="665" y="781" on="0"/>
        <pt x="602" y="781" on="1"/>
        <pt x="553" y="781" on="0"/>
        <pt x="553" y="827" on="1"/>
        <pt x="553" y="839" on="0"/>
        <pt x="557" y="855" on="1"/>
        <pt x="573" y="931" on="0"/>
      </contour>
    </TTGlyph>
    <TTGlyph name="five" xMin="88" yMin="-20" xMax="1075" yMax="1462">
      <contour>
        <pt x="582" y="879" on="1"/>
        <pt x="770" y="879" on="0"/>
        <pt x="979" y="675" on="0"/>
        <pt x="979" y="498" on="1"/>
        <pt x="979" y="261" on="0"/>
        <pt x="831" y="120" on="1"/>
        <pt x="682" y="-20" on="0"/>
        <pt x="424" y="-20" on="1"/>
        <pt x="343" y="-20" on="0"/>
        <pt x="152" y="20" on="0"/>
        <pt x="88" y="51" on="1"/>
        <pt x="88" y="158" on="1"/>
        <pt x="257" y="68" on="0"/>
        <pt x="428" y="68" on="1"/>
        <pt x="636" y="68" on="0"/>
        <pt x="877" y="297" on="0"/>
        <pt x="877" y="496" on="1"/>
        <pt x="877" y="636" on="0"/>
        <pt x="706" y="795" on="0"/>
        <pt x="435" y="795" on="0"/>
        <pt x="324" y="754" on="1"/>
        <pt x="258" y="803" on="1"/>
        <pt x="451" y="1462" on="1"/>
        <pt x="1075" y="1462" on="1"/>
        <pt x="1057" y="1366" on="1"/>
        <pt x="516" y="1366" on="1"/>
        <pt x="367" y="850" on="1"/>
        <pt x="466" y="879" on="0"/>
      </contour>
    </TTGlyph>
    <TTGlyph name="florin" xMin="2" yMin="-492" xMax="1098" yMax="1483">
      <contour>
        <pt x="104" y="-492" on="1"/>
        <pt x="55" y="-492" on="0"/>
        <pt x="2" y="-473" on="1"/>
        <pt x="2" y="-383" on="1"/>
        <pt x="53" y="-399" on="0"/>
        <pt x="102" y="-399" on="1"/>
        <pt x="189" y="-399" on="0"/>
        <pt x="282" y="-294" on="0"/>
        <pt x="311" y="-160" on="1"/>
        <pt x="526" y="858" on="1"/>
        <pt x="322" y="858" on="1"/>
        <pt x="336" y="926" on="1"/>
        <pt x="541" y="940" on="1"/>
        <pt x="588" y="1163" on="1"/>
        <pt x="623" y="1331" on="0"/>
        <pt x="786" y="1483" on="0"/>
        <pt x="932" y="1483" on="1"/>
        <pt x="1006" y="1483" on="0"/>
        <pt x="1098" y="1452" on="1"/>
        <pt x="1073" y="1372" on="1"/>
        <pt x="986" y="1399" on="0"/>
        <pt x="926" y="1399" on="1"/>
        <pt x="829" y="1399" on="0"/>
        <pt x="715" y="1291" on="0"/>
        <pt x="688" y="1167" on="1"/>
        <pt x="641" y="940" on="1"/>
        <pt x="889" y="940" on="1"/>
        <pt x="872" y="858" on="1"/>
        <pt x="625" y="858" on="1"/>
        <pt x="403" y="-184" on="1"/>
        <pt x="368" y="-350" on="0"/>
        <pt x="297" y="-420" on="1"/>
        <pt x="227" y="-492" on="0"/>
      </contour>
    </TTGlyph>
    <TTGlyph name="four" xMin="23" yMin="0" xMax="1092" yMax="1477">
      <contour>
        <pt x="807" y="371" on="1"/>
        <pt x="727" y="0" on="1"/>
        <pt x="631" y="0" on="1"/>
        <pt x="711" y="371" on="1"/>
        <pt x="23" y="371" on="1"/>
        <pt x="43" y="467" on="1"/>
        <pt x="924" y="1477" on="1"/>
        <pt x="1042" y="1477" on="1"/>
        <pt x="827" y="459" on="1"/>
        <pt x="1092" y="459" on="1"/>
        <pt x="1071" y="371" on="1"/>
      </contour>
      <contour>
        <pt x="150" y="459" on="1"/>
        <pt x="729" y="459" on="1"/>
        <pt x="820" y="883" on="0"/>
        <pt x="891" y="1220" on="0"/>
        <pt x="934" y="1372" on="1"/>
        <pt x="930" y="1372" on="1"/>
        <pt x="867" y="1284" on="0"/>
        <pt x="801" y="1206" on="1"/>
      </contour>
    </TTGlyph>
    <TTGlyph name="fraction" xMin="-463" yMin="0" xMax="731" yMax="1462">
      <contour>
        <pt x="-356" y="0" on="1"/>
        <pt x="-463" y="0" on="1"/>
        <pt x="623" y="1462" on="1"/>
        <pt x="731" y="1462" on="1"/>
      </contour>
    </TTGlyph>
    <TTGlyph name="g" xMin="-88" yMin="-492" xMax="1100" yMax="1108">
      <contour>
        <pt x="901" y="799" on="1"/>
        <pt x="901" y="689" on="0"/>
        <pt x="793" y="497" on="0"/>
        <pt x="607" y="399" on="0"/>
        <pt x="485" y="399" on="1"/>
        <pt x="422" y="399" on="0"/>
        <pt x="408" y="408" on="1"/>
        <pt x="327" y="375" on="0"/>
        <pt x="240" y="295" on="0"/>
        <pt x="240" y="212" on="0"/>
        <pt x="305" y="166" on="0"/>
        <pt x="385" y="158" on="1"/>
        <pt x="506" y="147" on="1"/>
        <pt x="852" y="116" on="0"/>
        <pt x="852" y="-117" on="1"/>
        <pt x="854" y="-287" on="0"/>
        <pt x="562" y="-492" on="0"/>
        <pt x="318" y="-492" on="1"/>
        <pt x="314" y="-492" on="0"/>
        <pt x="309" y="-492" on="1"/>
        <pt x="124" y="-492" on="0"/>
        <pt x="17" y="-420" on="1"/>
        <pt x="-88" y="-348" on="0"/>
        <pt x="-88" y="-217" on="1"/>
        <pt x="-88" y="19" on="0"/>
        <pt x="221" y="117" on="1"/>
        <pt x="143" y="159" on="0"/>
        <pt x="143" y="240" on="1"/>
        <pt x="143" y="362" on="0"/>
        <pt x="334" y="442" on="1"/>
        <pt x="263" y="478" on="0"/>
        <pt x="184" y="617" on="0"/>
        <pt x="184" y="705" on="1"/>
        <pt x="184" y="711" on="0"/>
        <pt x="184" y="716" on="1"/>
        <pt x="184" y="818" on="0"/>
        <pt x="291" y="1002" on="0"/>
        <pt x="479" y="1108" on="0"/>
        <pt x="584" y="1108" on="1"/>
        <pt x="588" y="1108" on="0"/>
        <pt x="592" y="1108" on="1"/>
        <pt x="661" y="1108" on="0"/>
        <pt x="739" y="1087" on="1"/>
        <pt x="1100" y="1087" on="1"/>
        <pt x="1083" y="1008" on="1"/>
        <pt x="840" y="997" on="1"/>
        <pt x="866" y="969" on="0"/>
        <pt x="901" y="857" on="0"/>
      </contour>
      <contour>
        <pt x="285" y="600" on="0"/>
        <pt x="401" y="483" on="0"/>
        <pt x="499" y="483" on="1"/>
        <pt x="693" y="483" on="0"/>
        <pt x="764" y="634" on="1"/>
        <pt x="801" y="709" on="0"/>
        <pt x="801" y="907" on="0"/>
        <pt x="689" y="1022" on="0"/>
        <pt x="588" y="1022" on="1"/>
        <pt x="583" y="1022" on="0"/>
        <pt x="577" y="1022" on="1"/>
        <pt x="452" y="1022" on="0"/>
        <pt x="285" y="837" on="0"/>
      </contour>
      <contour>
        <pt x="155" y="32" on="0"/>
        <pt x="14" y="-106" on="0"/>
        <pt x="14" y="-306" on="0"/>
        <pt x="173" y="-406" on="0"/>
        <pt x="319" y="-406" on="1"/>
        <pt x="522" y="-406" on="0"/>
        <pt x="750" y="-258" on="0"/>
        <pt x="750" y="-127" on="1"/>
        <pt x="750" y="-42" on="0"/>
        <pt x="687" y="3" on="1"/>
        <pt x="626" y="49" on="0"/>
        <pt x="469" y="61" on="1"/>
        <pt x="309" y="76" on="1"/>
      </contour>
    </TTGlyph>
    <TTGlyph name="gereshhb" xMin="79" yMin="789" xMax="429" yMax="1290">
      <contour>
        <pt x="425" y="1290" on="1"/>
        <pt x="429" y="1268" on="1"/>
        <pt x="383" y="1158" on="0"/>
        <pt x="239" y="904" on="0"/>
        <pt x="153" y="789" on="1"/>
        <pt x="79" y="789" on="1"/>
        <pt x="147" y="898" on="0"/>
        <pt x="268" y="1158" on="0"/>
        <pt x="312" y="1290" on="1"/>
      </contour>
    </TTGlyph>
    <TTGlyph name="germandbls" xMin="-281" yMin="-492" xMax="1026" yMax="1567">
      <contour>
        <pt x="-162" y="-492" on="1"/>
        <pt x="-233" y="-492" on="0"/>
        <pt x="-281" y="-469" on="1"/>
        <pt x="-281" y="-379" on="1"/>
        <pt x="-228" y="-403" on="0"/>
        <pt x="-89" y="-403" on="0"/>
        <pt x="1" y="-304" on="0"/>
        <pt x="23" y="-199" on="1"/>
        <pt x="328" y="1210" on="1"/>
        <pt x="408" y="1567" on="0"/>
        <pt x="733" y="1567" on="1"/>
        <pt x="871" y="1567" on="0"/>
        <pt x="1026" y="1444" on="0"/>
        <pt x="1026" y="1331" on="1"/>
        <pt x="1026" y="1256" on="0"/>
        <pt x="937" y="1125" on="0"/>
        <pt x="815" y="1042" on="1"/>
        <pt x="705" y="963" on="0"/>
        <pt x="639" y="870" on="0"/>
        <pt x="639" y="763" on="0"/>
        <pt x="701" y="689" on="0"/>
        <pt x="766" y="647" on="1"/>
        <pt x="862" y="584" on="0"/>
        <pt x="946" y="444" on="0"/>
        <pt x="946" y="348" on="1"/>
        <pt x="946" y="178" on="0"/>
        <pt x="732" y="-20" on="0"/>
        <pt x="553" y="-20" on="1"/>
        <pt x="411" y="-20" on="0"/>
        <pt x="319" y="45" on="1"/>
        <pt x="319" y="154" on="1"/>
        <pt x="365" y="117" on="0"/>
        <pt x="500" y="72" on="0"/>
        <pt x="561" y="72" on="1"/>
        <pt x="692" y="72" on="0"/>
        <pt x="846" y="214" on="0"/>
        <pt x="846" y="338" on="1"/>
        <pt x="846" y="414" on="0"/>
        <pt x="782" y="521" on="0"/>
        <pt x="621" y="634" on="0"/>
        <pt x="549" y="739" on="0"/>
        <pt x="549" y="864" on="0"/>
        <pt x="591" y="956" on="0"/>
        <pt x="670" y="1042" on="0"/>
        <pt x="768" y="1112" on="1"/>
        <pt x="871" y="1184" on="0"/>
        <pt x="899" y="1228" on="1"/>
        <pt x="930" y="1274" on="0"/>
        <pt x="930" y="1329" on="1"/>
        <pt x="930" y="1399" on="0"/>
        <pt x="820" y="1479" on="0"/>
        <pt x="725" y="1479" on="1"/>
        <pt x="597" y="1479" on="0"/>
        <pt x="445" y="1328" on="0"/>
        <pt x="412" y="1174" on="1"/>
        <pt x="121" y="-203" on="1"/>
        <pt x="89" y="-353" on="0"/>
        <pt x="-51" y="-492" on="0"/>
      </contour>
    </TTGlyph>
    <TTGlyph name="gershayimhb" xMin="84" yMin="789" xMax="768" yMax="1290">
      <contour>
        <pt x="430" y="1290" on="1"/>
        <pt x="434" y="1268" on="1"/>
        <pt x="388" y="1158" on="0"/>
        <pt x="244" y="904" on="0"/>
        <pt x="158" y="789" on="1"/>
        <pt x="84" y="789" on="1"/>
        <pt x="152" y="898" on="0"/>
        <pt x="273" y="1158" on="0"/>
        <pt x="317" y="1290" on="1"/>
      </contour>
      <contour>
        <pt x="764" y="1290" on="1"/>
        <pt x="768" y="1268" on="1"/>
        <pt x="722" y="1158" on="0"/>
        <pt x="578" y="904" on="0"/>
        <pt x="492" y="789" on="1"/>
        <pt x="418" y="789" on="1"/>
        <pt x="486" y="898" on="0"/>
        <pt x="607" y="1158" on="0"/>
        <pt x="651" y="1290" on="1"/>
      </contour>
    </TTGlyph>
    <TTGlyph name="gimeldageshhb" xMin="-57" yMin="-4" xMax="730" yMax="1310">
      <contour>
        <pt x="537" y="1310" on="1"/>
        <pt x="664" y="1310" on="0"/>
        <pt x="706" y="1230" on="1"/>
        <pt x="730" y="1184" on="0"/>
        <pt x="730" y="1071" on="0"/>
        <pt x="718" y="1015" on="1"/>
        <pt x="502" y="0" on="1"/>
        <pt x="415" y="0" on="1"/>
        <pt x="450" y="213" on="1"/>
        <pt x="443" y="213" on="1"/>
        <pt x="375" y="128" on="0"/>
        <pt x="331" y="92" on="1"/>
        <pt x="217" y="-4" on="0"/>
        <pt x="71" y="-4" on="1"/>
        <pt x="13" y="-4" on="0"/>
        <pt x="-57" y="7" on="1"/>
        <pt x="-19" y="101" on="1"/>
        <pt x="33" y="88" on="0"/>
        <pt x="100" y="88" on="1"/>
        <pt x="237" y="88" on="0"/>
        <pt x="468" y="319" on="0"/>
        <pt x="509" y="511" on="1"/>
        <pt x="616" y="1015" on="1"/>
        <pt x="628" y="1077" on="0"/>
        <pt x="628" y="1164" on="0"/>
        <pt x="571" y="1220" on="0"/>
        <pt x="450" y="1220" on="0"/>
        <pt x="358" y="1203" on="1"/>
        <pt x="377" y="1295" on="1"/>
        <pt x="457" y="1310" on="0"/>
      </contour>
      <contour>
        <pt x="296" y="741" on="1"/>
        <pt x="347" y="741" on="0"/>
        <pt x="347" y="692" on="1"/>
        <pt x="347" y="680" on="0"/>
        <pt x="344" y="665" on="1"/>
        <pt x="327" y="591" on="0"/>
        <pt x="264" y="591" on="1"/>
        <pt x="215" y="591" on="0"/>
        <pt x="215" y="637" on="1"/>
        <pt x="215" y="649" on="0"/>
        <pt x="219" y="665" on="1"/>
        <pt x="235" y="741" on="0"/>
      </contour>
    </TTGlyph>
    <TTGlyph name="grave" xMin="487" yMin="1241" xMax="766" yMax="1569">
      <contour>
        <pt x="766" y="1241" on="1"/>
        <pt x="700" y="1241" on="1"/>
        <pt x="650" y="1294" on="0"/>
        <pt x="521" y="1479" on="0"/>
        <pt x="487" y="1548" on="1"/>
        <pt x="487" y="1569" on="1"/>
        <pt x="602" y="1569" on="1"/>
        <pt x="650" y="1437" on="0"/>
        <pt x="766" y="1266" on="1"/>
      </contour>
    </TTGlyph>
    <TTGlyph name="greater" xMin="170" yMin="262" xMax="1085" yMax="1221">
      <contour>
        <pt x="971" y="719" on="1"/>
        <pt x="170" y="1118" on="1"/>
        <pt x="170" y="1221" on="1"/>
        <pt x="1085" y="750" on="1"/>
        <pt x="1085" y="676" on="1"/>
        <pt x="170" y="262" on="1"/>
        <pt x="170" y="369" on="1"/>
      </contour>
    </TTGlyph>
    <TTGlyph name="greaterequal" xMin="168" yMin="-10" xMax="1085" yMax="1221">
      <contour>
        <pt x="971" y="719" on="1"/>
        <pt x="170" y="1118" on="1"/>
        <pt x="170" y="1221" on="1"/>
        <pt x="1085" y="750" on="1"/>
        <pt x="1085" y="676" on="1"/>
        <pt x="170" y="262" on="1"/>
        <pt x="170" y="369" on="1"/>
      </contour>
      <contour>
        <pt x="168" y="90" on="1"/>
        <pt x="1071" y="90" on="1"/>
        <pt x="1071" y="-10" on="1"/>
        <pt x="168" y="-10" on="1"/>
      </contour>
    </TTGlyph>
    <TTGlyph name="guillemotleft" xMin="61" yMin="123" xMax="844" yMax="932">
      <contour>
        <pt x="483" y="883" on="1"/>
        <pt x="166" y="547" on="1"/>
        <pt x="379" y="162" on="1"/>
        <pt x="315" y="123" on="1"/>
        <pt x="61" y="541" on="1"/>
        <pt x="63" y="567" on="1"/>
        <pt x="426" y="932" on="1"/>
      </contour>
      <contour>
        <pt x="844" y="883" on="1"/>
        <pt x="530" y="547" on="1"/>
        <pt x="739" y="162" on="1"/>
        <pt x="676" y="123" on="1"/>
        <pt x="422" y="541" on="1"/>
        <pt x="424" y="567" on="1"/>
        <pt x="786" y="932" on="1"/>
      </contour>
    </TTGlyph>
    <TTGlyph name="guillemotright" xMin="33" yMin="123" xMax="815" yMax="932">
      <contour>
        <pt x="33" y="172" on="1"/>
        <pt x="346" y="508" on="1"/>
        <pt x="137" y="893" on="1"/>
        <pt x="201" y="932" on="1"/>
        <pt x="455" y="514" on="1"/>
        <pt x="453" y="487" on="1"/>
        <pt x="90" y="123" on="1"/>
      </contour>
      <contour>
        <pt x="393" y="172" on="1"/>
        <pt x="707" y="508" on="1"/>
        <pt x="498" y="893" on="1"/>
        <pt x="561" y="932" on="1"/>
        <pt x="815" y="514" on="1"/>
        <pt x="813" y="487" on="1"/>
        <pt x="451" y="123" on="1"/>
      </contour>
    </TTGlyph>
    <TTGlyph name="guilsinglleft" xMin="86" yMin="123" xMax="508" yMax="932">
      <contour>
        <pt x="508" y="883" on="1"/>
        <pt x="190" y="547" on="1"/>
        <pt x="403" y="162" on="1"/>
        <pt x="340" y="123" on="1"/>
        <pt x="86" y="541" on="1"/>
        <pt x="88" y="567" on="1"/>
        <pt x="451" y="932" on="1"/>
      </contour>
    </TTGlyph>
    <TTGlyph name="guilsinglright" xMin="37" yMin="123" xMax="459" yMax="932">
      <contour>
        <pt x="37" y="172" on="1"/>
        <pt x="354" y="508" on="1"/>
        <pt x="141" y="893" on="1"/>
        <pt x="205" y="932" on="1"/>
        <pt x="459" y="514" on="1"/>
        <pt x="457" y="487" on="1"/>
        <pt x="94" y="123" on="1"/>
      </contour>
    </TTGlyph>
    <TTGlyph name="h" xMin="76" yMin="0" xMax="1034" yMax="1556">
      <contour>
        <pt x="913" y="692" on="1"/>
        <pt x="934" y="784" on="0"/>
        <pt x="934" y="930" on="0"/>
        <pt x="845" y="1018" on="0"/>
        <pt x="756" y="1018" on="1"/>
        <pt x="643" y="1018" on="0"/>
        <pt x="545" y="951" on="1"/>
        <pt x="351" y="819" on="0"/>
        <pt x="276" y="477" on="1"/>
        <pt x="174" y="0" on="1"/>
        <pt x="76" y="0" on="1"/>
        <pt x="408" y="1556" on="1"/>
        <pt x="504" y="1556" on="1"/>
        <pt x="418" y="1145" on="1"/>
        <pt x="374" y="946" on="0"/>
        <pt x="352" y="866" on="1"/>
        <pt x="358" y="866" on="1"/>
        <pt x="436" y="979" on="0"/>
        <pt x="653" y="1104" on="0"/>
        <pt x="898" y="1104" on="0"/>
        <pt x="1034" y="974" on="0"/>
        <pt x="1034" y="856" on="1"/>
        <pt x="1034" y="786" on="0"/>
        <pt x="1010" y="674" on="1"/>
        <pt x="862" y="0" on="1"/>
        <pt x="764" y="0" on="1"/>
      </contour>
    </TTGlyph>
    <TTGlyph name="hedageshhb" xMin="43" yMin="0" xMax="1160" yMax="1310">
      <contour>
        <pt x="317" y="1290" on="1"/>
        <pt x="613" y="1310" on="0"/>
        <pt x="802" y="1310" on="0"/>
        <pt x="888" y="1303" on="0"/>
        <pt x="973" y="1288" on="0"/>
        <pt x="1040" y="1260" on="0"/>
        <pt x="1099" y="1221" on="0"/>
        <pt x="1137" y="1165" on="0"/>
        <pt x="1160" y="1095" on="0"/>
        <pt x="1160" y="1001" on="0"/>
        <pt x="1148" y="946" on="1"/>
        <pt x="947" y="0" on="1"/>
        <pt x="844" y="0" on="1"/>
        <pt x="1045" y="946" on="1"/>
        <pt x="1055" y="993" on="0"/>
        <pt x="1055" y="1064" on="0"/>
        <pt x="1038" y="1117" on="0"/>
        <pt x="1009" y="1159" on="0"/>
        <pt x="962" y="1187" on="0"/>
        <pt x="910" y="1206" on="0"/>
        <pt x="876" y="1211" on="1"/>
        <pt x="813" y="1220" on="0"/>
        <pt x="594" y="1220" on="0"/>
        <pt x="297" y="1198" on="1"/>
      </contour>
      <contour>
        <pt x="145" y="0" on="1"/>
        <pt x="43" y="0" on="1"/>
        <pt x="216" y="813" on="1"/>
        <pt x="318" y="813" on="1"/>
      </contour>
      <contour>
        <pt x="644" y="741" on="1"/>
        <pt x="695" y="741" on="0"/>
        <pt x="695" y="692" on="1"/>
        <pt x="695" y="680" on="0"/>
        <pt x="692" y="665" on="1"/>
        <pt x="675" y="591" on="0"/>
        <pt x="612" y="591" on="1"/>
        <pt x="563" y="591" on="0"/>
        <pt x="563" y="637" on="1"/>
        <pt x="563" y="649" on="0"/>
        <pt x="567" y="665" on="1"/>
        <pt x="583" y="741" on="0"/>
      </contour>
    </TTGlyph>
    <TTGlyph name="hungarumlaut" xMin="461" yMin="1241" xMax="1104" yMax="1569">
      <contour>
        <pt x="461" y="1241" on="1"/>
        <pt x="461" y="1270" on="1"/>
        <pt x="506" y="1317" on="0"/>
        <pt x="634" y="1480" on="0"/>
        <pt x="688" y="1569" on="1"/>
        <pt x="791" y="1569" on="1"/>
        <pt x="791" y="1546" on="1"/>
        <pt x="736" y="1472" on="0"/>
        <pt x="646" y="1375" on="1"/>
        <pt x="560" y="1285" on="0"/>
        <pt x="500" y="1241" on="1"/>
      </contour>
      <contour>
        <pt x="774" y="1241" on="1"/>
        <pt x="774" y="1270" on="1"/>
        <pt x="817" y="1317" on="0"/>
        <pt x="947" y="1483" on="0"/>
        <pt x="1001" y="1569" on="1"/>
        <pt x="1104" y="1569" on="1"/>
        <pt x="1104" y="1546" on="1"/>
        <pt x="1044" y="1466" on="0"/>
        <pt x="957" y="1374" on="1"/>
        <pt x="866" y="1280" on="0"/>
        <pt x="811" y="1241" on="1"/>
      </contour>
    </TTGlyph>
    <TTGlyph name="hyphen" xMin="82" yMin="502" xMax="557" yMax="592">
      <contour>
        <pt x="100" y="592" on="1"/>
        <pt x="557" y="592" on="1"/>
        <pt x="541" y="502" on="1"/>
        <pt x="82" y="502" on="1"/>
      </contour>
    </TTGlyph>
    <TTGlyph name="i" xMin="76" yMin="0" xMax="489" yMax="1487">
      <contour>
        <pt x="350" y="1366" on="1"/>
        <pt x="350" y="1421" on="0"/>
        <pt x="394" y="1487" on="0"/>
        <pt x="432" y="1487" on="1"/>
        <pt x="489" y="1487" on="0"/>
        <pt x="489" y="1415" on="1"/>
        <pt x="489" y="1359" on="0"/>
        <pt x="446" y="1292" on="0"/>
        <pt x="410" y="1292" on="1"/>
        <pt x="350" y="1292" on="0"/>
      </contour>
      <contour>
        <pt x="76" y="0" on="1"/>
        <pt x="307" y="1087" on="1"/>
        <pt x="403" y="1087" on="1"/>
        <pt x="174" y="0" on="1"/>
      </contour>
    </TTGlyph>
    <TTGlyph name="iacute" xMin="76" yMin="0" xMax="701" yMax="1569">
      <contour>
        <pt x="284" y="1241" on="1"/>
        <pt x="284" y="1262" on="1"/>
        <pt x="352" y="1314" on="0"/>
        <pt x="434" y="1404" on="1"/>
        <pt x="518" y="1494" on="0"/>
        <pt x="564" y="1569" on="1"/>
        <pt x="701" y="1569" on="1"/>
        <pt x="701" y="1546" on="1"/>
        <pt x="651" y="1481" on="0"/>
        <pt x="543" y="1387" on="1"/>
        <pt x="434" y="1294" on="0"/>
        <pt x="351" y="1241" on="1"/>
      </contour>
      <contour>
        <pt x="307" y="1087" on="1"/>
        <pt x="403" y="1087" on="1"/>
        <pt x="174" y="0" on="1"/>
        <pt x="76" y="0" on="1"/>
      </contour>
    </TTGlyph>
    <TTGlyph name="icircumflex" xMin="76" yMin="0" xMax="642" yMax="1569">
      <contour>
        <pt x="642" y="1241" on="1"/>
        <pt x="593" y="1241" on="1"/>
        <pt x="525" y="1299" on="0"/>
        <pt x="432" y="1448" on="1"/>
        <pt x="375" y="1389" on="0"/>
        <pt x="230" y="1271" on="0"/>
        <pt x="182" y="1241" on="1"/>
        <pt x="128" y="1241" on="1"/>
        <pt x="128" y="1270" on="1"/>
        <pt x="196" y="1326" on="0"/>
        <pt x="377" y="1514" on="0"/>
        <pt x="413" y="1569" on="1"/>
        <pt x="477" y="1569" on="1"/>
        <pt x="500" y="1504" on="0"/>
        <pt x="596" y="1332" on="0"/>
        <pt x="642" y="1270" on="1"/>
      </contour>
      <contour>
        <pt x="307" y="1087" on="1"/>
        <pt x="403" y="1087" on="1"/>
        <pt x="174" y="0" on="1"/>
        <pt x="76" y="0" on="1"/>
      </contour>
    </TTGlyph>
    <TTGlyph name="idieresis" xMin="76" yMin="0" xMax="646" yMax="1473">
      <contour>
        <pt x="171" y="1366" on="1"/>
        <pt x="171" y="1415" on="0"/>
        <pt x="212" y="1473" on="0"/>
        <pt x="248" y="1473" on="1"/>
        <pt x="302" y="1473" on="0"/>
        <pt x="302" y="1409" on="1"/>
        <pt x="302" y="1361" on="0"/>
        <pt x="260" y="1303" on="0"/>
        <pt x="226" y="1303" on="1"/>
        <pt x="171" y="1303" on="0"/>
      </contour>
      <contour>
        <pt x="515" y="1366" on="1"/>
        <pt x="515" y="1415" on="0"/>
        <pt x="556" y="1473" on="0"/>
        <pt x="592" y="1473" on="1"/>
        <pt x="646" y="1473" on="0"/>
        <pt x="646" y="1409" on="1"/>
        <pt x="646" y="1361" on="0"/>
        <pt x="604" y="1303" on="0"/>
        <pt x="570" y="1303" on="1"/>
        <pt x="515" y="1303" on="0"/>
      </contour>
      <contour>
        <pt x="307" y="1087" on="1"/>
        <pt x="403" y="1087" on="1"/>
        <pt x="174" y="0" on="1"/>
        <pt x="76" y="0" on="1"/>
      </contour>
    </TTGlyph>
    <TTGlyph name="igrave" xMin="76" yMin="0" xMax="454" yMax="1569">
      <contour>
        <pt x="454" y="1241" on="1"/>
        <pt x="388" y="1241" on="1"/>
        <pt x="338" y="1294" on="0"/>
        <pt x="209" y="1479" on="0"/>
        <pt x="175" y="1548" on="1"/>
        <pt x="175" y="1569" on="1"/>
        <pt x="290" y="1569" on="1"/>
        <pt x="338" y="1437" on="0"/>
        <pt x="454" y="1266" on="1"/>
      </contour>
      <contour>
        <pt x="76" y="0" on="1"/>
        <pt x="307" y="1087" on="1"/>
        <pt x="403" y="1087" on="1"/>
        <pt x="174" y="0" on="1"/>
      </contour>
    </TTGlyph>
    <TTGlyph name="infinity" xMin="123" yMin="412" xMax="1311" yMax="1034">
      <contour>
        <pt x="416" y="1034" on="1"/>
        <pt x="508" y="1034" on="0"/>
        <pt x="653" y="926" on="0"/>
        <pt x="717" y="805" on="1"/>
        <pt x="780" y="925" on="0"/>
        <pt x="924" y="1034" on="0"/>
        <pt x="1018" y="1034" on="1"/>
        <pt x="1145" y="1034" on="0"/>
        <pt x="1311" y="856" on="0"/>
        <pt x="1311" y="588" on="0"/>
        <pt x="1227" y="500" on="1"/>
        <pt x="1145" y="412" on="0"/>
        <pt x="1018" y="412" on="1"/>
        <pt x="924" y="412" on="0"/>
        <pt x="780" y="521" on="0"/>
        <pt x="717" y="641" on="1"/>
        <pt x="652" y="520" on="0"/>
        <pt x="507" y="412" on="0"/>
        <pt x="416" y="412" on="1"/>
        <pt x="288" y="412" on="0"/>
        <pt x="123" y="589" on="0"/>
        <pt x="123" y="857" on="0"/>
        <pt x="206" y="946" on="1"/>
        <pt x="290" y="1034" on="0"/>
      </contour>
      <contour>
        <pt x="606" y="839" on="0"/>
        <pt x="490" y="938" on="0"/>
        <pt x="329" y="938" on="0"/>
        <pt x="223" y="820" on="0"/>
        <pt x="223" y="626" on="0"/>
        <pt x="329" y="508" on="0"/>
        <pt x="491" y="508" on="0"/>
        <pt x="604" y="605" on="0"/>
        <pt x="666" y="723" on="1"/>
      </contour>
      <contour>
        <pt x="1210" y="820" on="0"/>
        <pt x="1104" y="938" on="0"/>
        <pt x="940" y="938" on="0"/>
        <pt x="825" y="835" on="0"/>
        <pt x="768" y="723" on="1"/>
        <pt x="825" y="611" on="0"/>
        <pt x="940" y="508" on="0"/>
        <pt x="1105" y="508" on="0"/>
        <pt x="1158" y="567" on="1"/>
        <pt x="1210" y="626" on="0"/>
      </contour>
    </TTGlyph>
    <TTGlyph name="j" xMin="-279" yMin="-492" xMax="489" yMax="1487">
      <contour>
        <pt x="350" y="1366" on="1"/>
        <pt x="350" y="1421" on="0"/>
        <pt x="394" y="1487" on="0"/>
        <pt x="432" y="1487" on="1"/>
        <pt x="489" y="1487" on="0"/>
        <pt x="489" y="1415" on="1"/>
        <pt x="489" y="1359" on="0"/>
        <pt x="446" y="1292" on="0"/>
        <pt x="410" y="1292" on="1"/>
        <pt x="350" y="1292" on="0"/>
      </contour>
      <contour>
        <pt x="-166" y="-492" on="1"/>
        <pt x="-229" y="-492" on="0"/>
        <pt x="-279" y="-473" on="1"/>
        <pt x="-279" y="-381" on="1"/>
        <pt x="-234" y="-403" on="0"/>
        <pt x="-83" y="-403" on="0"/>
        <pt x="10" y="-300" on="0"/>
        <pt x="35" y="-174" on="1"/>
        <pt x="301" y="1087" on="1"/>
        <pt x="397" y="1087" on="1"/>
        <pt x="129" y="-184" on="1"/>
        <pt x="94" y="-347" on="0"/>
        <pt x="-47" y="-492" on="0"/>
      </contour>
    </TTGlyph>
    <TTGlyph name="k" xMin="76" yMin="0" xMax="1004" yMax="1556">
      <contour>
        <pt x="879" y="1087" on="1"/>
        <pt x="1004" y="1087" on="1"/>
        <pt x="530" y="618" on="1"/>
        <pt x="827" y="0" on="1"/>
        <pt x="721" y="0" on="1"/>
        <pt x="457" y="559" on="1"/>
        <pt x="252" y="371" on="1"/>
        <pt x="172" y="0" on="1"/>
        <pt x="76" y="0" on="1"/>
        <pt x="406" y="1556" on="1"/>
        <pt x="502" y="1556" on="1"/>
        <pt x="336" y="776" on="1"/>
        <pt x="266" y="477" on="1"/>
        <pt x="270" y="477" on="1"/>
      </contour>
    </TTGlyph>
    <TTGlyph name="kafdageshhb" xMin="-62" yMin="-20" xMax="879" yMax="1309">
      <contour>
        <pt x="406" y="1309" on="0"/>
        <pt x="596" y="1309" on="0"/>
        <pt x="758" y="1239" on="0"/>
        <pt x="844" y="1126" on="0"/>
        <pt x="879" y="979" on="0"/>
        <pt x="879" y="909" on="1"/>
        <pt x="879" y="823" on="0"/>
        <pt x="857" y="717" on="1"/>
        <pt x="819" y="536" on="1"/>
        <pt x="787" y="391" on="0"/>
        <pt x="720" y="274" on="1"/>
        <pt x="691" y="224" on="0"/>
        <pt x="594" y="111" on="0"/>
        <pt x="480" y="32" on="0"/>
        <pt x="314" y="-20" on="0"/>
        <pt x="145" y="-20" on="0"/>
        <pt x="5" y="-2" on="0"/>
        <pt x="-28" y="7" on="1"/>
        <pt x="-62" y="16" on="1"/>
        <pt x="-39" y="124" on="1"/>
        <pt x="-28" y="118" on="0"/>
        <pt x="15" y="100" on="0"/>
        <pt x="159" y="70" on="0"/>
        <pt x="331" y="70" on="0"/>
        <pt x="491" y="145" on="0"/>
        <pt x="592" y="251" on="0"/>
        <pt x="631" y="320" on="1"/>
        <pt x="690" y="425" on="0"/>
        <pt x="715" y="536" on="1"/>
        <pt x="753" y="717" on="1"/>
        <pt x="775" y="812" on="0"/>
        <pt x="775" y="892" on="1"/>
        <pt x="775" y="1220" on="0"/>
        <pt x="464" y="1220" on="1"/>
        <pt x="351" y="1220" on="0"/>
        <pt x="228" y="1180" on="1"/>
        <pt x="189" y="1168" on="0"/>
        <pt x="183" y="1166" on="1"/>
        <pt x="203" y="1261" on="1"/>
        <pt x="248" y="1280" on="0"/>
      </contour>
      <contour>
        <pt x="376" y="741" on="1"/>
        <pt x="427" y="741" on="0"/>
        <pt x="427" y="692" on="1"/>
        <pt x="427" y="680" on="0"/>
        <pt x="424" y="665" on="1"/>
        <pt x="407" y="591" on="0"/>
        <pt x="344" y="591" on="1"/>
        <pt x="295" y="591" on="0"/>
        <pt x="295" y="637" on="1"/>
        <pt x="295" y="649" on="0"/>
        <pt x="299" y="665" on="1"/>
        <pt x="315" y="741" on="0"/>
      </contour>
    </TTGlyph>
    <TTGlyph name="l" xMin="76" yMin="0" xMax="504" yMax="1556">
      <contour>
        <pt x="76" y="0" on="1"/>
        <pt x="410" y="1556" on="1"/>
        <pt x="504" y="1556" on="1"/>
        <pt x="170" y="0" on="1"/>
      </contour>
    </TTGlyph>
    <TTGlyph name="lameddageshhb" xMin="168" yMin="0" xMax="992" yMax="1569">
      <contour>
        <pt x="992" y="1296" on="1"/>
        <pt x="967" y="1182" on="1"/>
        <pt x="632" y="507" on="1"/>
        <pt x="433" y="0" on="1"/>
        <pt x="329" y="0" on="1"/>
        <pt x="524" y="496" on="1"/>
        <pt x="876" y="1200" on="1"/>
        <pt x="168" y="1200" on="1"/>
        <pt x="247" y="1569" on="1"/>
        <pt x="349" y="1569" on="1"/>
        <pt x="291" y="1296" on="1"/>
      </contour>
      <contour>
        <pt x="310" y="591" on="1"/>
        <pt x="261" y="591" on="0"/>
        <pt x="261" y="637" on="1"/>
        <pt x="261" y="649" on="0"/>
        <pt x="265" y="665" on="1"/>
        <pt x="281" y="741" on="0"/>
        <pt x="342" y="741" on="1"/>
        <pt x="393" y="741" on="0"/>
        <pt x="393" y="692" on="1"/>
        <pt x="393" y="680" on="0"/>
        <pt x="390" y="665" on="1"/>
        <pt x="373" y="591" on="0"/>
      </contour>
    </TTGlyph>
    <TTGlyph name="less" xMin="137" yMin="262" xMax="1051" yMax="1221">
      <contour>
        <pt x="137" y="676" on="1"/>
        <pt x="137" y="750" on="1"/>
        <pt x="1051" y="1221" on="1"/>
        <pt x="1051" y="1118" on="1"/>
        <pt x="250" y="719" on="1"/>
        <pt x="1051" y="369" on="1"/>
        <pt x="1051" y="262" on="1"/>
      </contour>
    </TTGlyph>
    <TTGlyph name="lessequal" xMin="137" yMin="-10" xMax="1071" yMax="1221">
      <contour>
        <pt x="137" y="676" on="1"/>
        <pt x="137" y="750" on="1"/>
        <pt x="1051" y="1221" on="1"/>
        <pt x="1051" y="1118" on="1"/>
        <pt x="250" y="719" on="1"/>
        <pt x="1051" y="369" on="1"/>
        <pt x="1051" y="262" on="1"/>
      </contour>
      <contour>
        <pt x="168" y="90" on="1"/>
        <pt x="1071" y="90" on="1"/>
        <pt x="1071" y="-10" on="1"/>
        <pt x="168" y="-10" on="1"/>
      </contour>
    </TTGlyph>
    <TTGlyph name="logicalnot" xMin="125" yMin="272" xMax="1028" yMax="772">
      <contour>
        <pt x="1028" y="272" on="1"/>
        <pt x="928" y="272" on="1"/>
        <pt x="928" y="672" on="1"/>
        <pt x="125" y="672" on="1"/>
        <pt x="125" y="772" on="1"/>
        <pt x="1028" y="772" on="1"/>
      </contour>
    </TTGlyph>
    <TTGlyph name="lozenge" xMin="119" yMin="0" xMax="1069" yMax="1475">
      <contour>
        <pt x="569" y="1475" on="1"/>
        <pt x="618" y="1475" on="1"/>
        <pt x="1069" y="735" on="1"/>
        <pt x="618" y="0" on="1"/>
        <pt x="569" y="0" on="1"/>
        <pt x="119" y="735" on="1"/>
      </contour>
      <contour>
        <pt x="594" y="1356" on="1"/>
        <pt x="219" y="735" on="1"/>
        <pt x="594" y="121" on="1"/>
        <pt x="969" y="735" on="1"/>
      </contour>
    </TTGlyph>
    <TTGlyph name="m" xMin="72" yMin="0" xMax="1630" yMax="1104">
      <contour>
        <pt x="883" y="836" on="1"/>
        <pt x="883" y="1018" on="0"/>
        <pt x="729" y="1018" on="1"/>
        <pt x="624" y="1018" on="0"/>
        <pt x="529" y="950" on="1"/>
        <pt x="343" y="817" on="0"/>
        <pt x="270" y="475" on="1"/>
        <pt x="170" y="0" on="1"/>
        <pt x="72" y="0" on="1"/>
        <pt x="303" y="1087" on="1"/>
        <pt x="383" y="1087" on="1"/>
        <pt x="350" y="877" on="1"/>
        <pt x="356" y="877" on="1"/>
        <pt x="435" y="989" on="0"/>
        <pt x="638" y="1104" on="0"/>
        <pt x="856" y="1104" on="0"/>
        <pt x="970" y="970" on="0"/>
        <pt x="973" y="842" on="1"/>
        <pt x="979" y="842" on="1"/>
        <pt x="1056" y="970" on="0"/>
        <pt x="1263" y="1104" on="0"/>
        <pt x="1500" y="1104" on="0"/>
        <pt x="1630" y="980" on="0"/>
        <pt x="1630" y="866" on="1"/>
        <pt x="1630" y="838" on="0"/>
        <pt x="1626" y="789" on="0"/>
        <pt x="1608" y="690" on="1"/>
        <pt x="1456" y="0" on="1"/>
        <pt x="1356" y="0" on="1"/>
        <pt x="1505" y="680" on="1"/>
        <pt x="1530" y="798" on="0"/>
        <pt x="1530" y="933" on="0"/>
        <pt x="1444" y="1018" on="0"/>
        <pt x="1368" y="1018" on="1"/>
        <pt x="1212" y="1018" on="0"/>
        <pt x="970" y="744" on="0"/>
        <pt x="922" y="518" on="1"/>
        <pt x="813" y="0" on="1"/>
        <pt x="711" y="0" on="1"/>
        <pt x="858" y="674" on="1"/>
        <pt x="883" y="796" on="0"/>
      </contour>
    </TTGlyph>
    <TTGlyph name="memdageshhb" xMin="-42" yMin="0" xMax="1095" yMax="1310">
      <contour>
        <pt x="389" y="1155" on="1"/>
        <pt x="402" y="1155" on="1"/>
        <pt x="500" y="1253" on="0"/>
        <pt x="662" y="1293" on="1"/>
        <pt x="731" y="1310" on="0"/>
        <pt x="803" y="1310" on="1"/>
        <pt x="982" y="1310" on="0"/>
        <pt x="1052" y="1196" on="1"/>
        <pt x="1095" y="1125" on="0"/>
        <pt x="1095" y="1022" on="1"/>
        <pt x="1095" y="960" on="0"/>
        <pt x="1079" y="886" on="1"/>
        <pt x="891" y="0" on="1"/>
        <pt x="506" y="0" on="1"/>
        <pt x="524" y="88" on="1"/>
        <pt x="808" y="88" on="1"/>
        <pt x="978" y="886" on="1"/>
        <pt x="991" y="945" on="0"/>
        <pt x="991" y="994" on="1"/>
        <pt x="991" y="1074" on="0"/>
        <pt x="958" y="1130" on="1"/>
        <pt x="904" y="1220" on="0"/>
        <pt x="784" y="1220" on="1"/>
        <pt x="701" y="1220" on="0"/>
        <pt x="556" y="1180" on="0"/>
        <pt x="512" y="1152" on="1"/>
        <pt x="420" y="1093" on="0"/>
        <pt x="388" y="1046" on="1"/>
        <pt x="375" y="1026" on="1"/>
        <pt x="60" y="0" on="1"/>
        <pt x="-42" y="0" on="1"/>
        <pt x="267" y="1005" on="1"/>
        <pt x="278" y="1040" on="0"/>
        <pt x="282" y="1084" on="0"/>
        <pt x="285" y="1106" on="0"/>
        <pt x="283" y="1141" on="0"/>
        <pt x="283" y="1157" on="0"/>
        <pt x="278" y="1196" on="0"/>
        <pt x="277" y="1205" on="0"/>
        <pt x="269" y="1248" on="0"/>
        <pt x="269" y="1251" on="1"/>
        <pt x="261" y="1296" on="1"/>
        <pt x="370" y="1296" on="1"/>
        <pt x="389" y="1209" on="0"/>
      </contour>
      <contour>
        <pt x="616" y="741" on="1"/>
        <pt x="667" y="741" on="0"/>
        <pt x="667" y="692" on="1"/>
        <pt x="667" y="680" on="0"/>
        <pt x="664" y="665" on="1"/>
        <pt x="647" y="591" on="0"/>
        <pt x="584" y="591" on="1"/>
        <pt x="535" y="591" on="0"/>
        <pt x="535" y="637" on="1"/>
        <pt x="535" y="649" on="0"/>
        <pt x="539" y="665" on="1"/>
        <pt x="555" y="741" on="0"/>
      </contour>
    </TTGlyph>
    <TTGlyph name="n" xMin="76" yMin="0" xMax="1034" yMax="1104">
      <contour>
        <pt x="913" y="692" on="1"/>
        <pt x="934" y="784" on="0"/>
        <pt x="934" y="930" on="0"/>
        <pt x="845" y="1018" on="0"/>
        <pt x="756" y="1018" on="1"/>
        <pt x="643" y="1018" on="0"/>
        <pt x="545" y="951" on="1"/>
        <pt x="350" y="819" on="0"/>
        <pt x="276" y="477" on="1"/>
        <pt x="174" y="0" on="1"/>
        <pt x="76" y="0" on="1"/>
        <pt x="307" y="1087" on="1"/>
        <pt x="389" y="1087" on="1"/>
        <pt x="352" y="866" on="1"/>
        <pt x="358" y="866" on="1"/>
        <pt x="521" y="1104" on="0"/>
        <pt x="774" y="1104" on="1"/>
        <pt x="903" y="1104" on="0"/>
        <pt x="1034" y="977" on="0"/>
        <pt x="1034" y="856" on="1"/>
        <pt x="1034" y="786" on="0"/>
        <pt x="1010" y="674" on="1"/>
        <pt x="862" y="0" on="1"/>
        <pt x="764" y="0" on="1"/>
      </contour>
    </TTGlyph>
    <TTGlyph name="nine" xMin="115" yMin="-20" xMax="1059" yMax="1481">
      <contour>
        <pt x="559" y="545" on="1"/>
        <pt x="397" y="545" on="0"/>
        <pt x="211" y="755" on="0"/>
        <pt x="211" y="934" on="1"/>
        <pt x="211" y="1088" on="0"/>
        <pt x="270" y="1215" on="1"/>
        <pt x="330" y="1342" on="0"/>
        <pt x="553" y="1481" on="0"/>
        <pt x="698" y="1481" on="1"/>
        <pt x="872" y="1481" on="0"/>
        <pt x="1059" y="1250" on="0"/>
        <pt x="1059" y="1032" on="1"/>
        <pt x="1059" y="744" on="0"/>
        <pt x="856" y="226" on="0"/>
        <pt x="534" y="-20" on="0"/>
        <pt x="301" y="-20" on="1"/>
        <pt x="185" y="-20" on="0"/>
        <pt x="115" y="2" on="1"/>
        <pt x="115" y="92" on="1"/>
        <pt x="204" y="63" on="0"/>
        <pt x="307" y="63" on="1"/>
        <pt x="781" y="63" on="0"/>
        <pt x="934" y="737" on="1"/>
        <pt x="926" y="737" on="1"/>
        <pt x="786" y="545" on="0"/>
      </contour>
      <contour>
        <pt x="676" y="1393" on="1"/>
        <pt x="517" y="1393" on="0"/>
        <pt x="313" y="1139" on="0"/>
        <pt x="313" y="953" on="1"/>
        <pt x="313" y="947" on="0"/>
        <pt x="313" y="942" on="1"/>
        <pt x="313" y="797" on="0"/>
        <pt x="448" y="637" on="0"/>
        <pt x="573" y="637" on="1"/>
        <pt x="655" y="637" on="0"/>
        <pt x="804" y="701" on="0"/>
        <pt x="913" y="811" on="0"/>
        <pt x="958" y="928" on="0"/>
        <pt x="958" y="1047" on="1"/>
        <pt x="958" y="1213" on="0"/>
        <pt x="816" y="1393" on="0"/>
        <pt x="686" y="1393" on="1"/>
        <pt x="681" y="1393" on="0"/>
      </contour>
    </TTGlyph>
    <TTGlyph name="notequal" xMin="111" yMin="178" xMax="1059" yMax="1272">
      <contour>
        <pt x="111" y="477" on="1"/>
        <pt x="111" y="559" on="1"/>
        <pt x="461" y="559" on="1"/>
        <pt x="614" y="885" on="1"/>
        <pt x="111" y="885" on="1"/>
        <pt x="111" y="967" on="1"/>
        <pt x="653" y="967" on="1"/>
        <pt x="797" y="1272" on="1"/>
        <pt x="870" y="1233" on="1"/>
        <pt x="745" y="967" on="1"/>
        <pt x="1059" y="967" on="1"/>
        <pt x="1059" y="885" on="1"/>
        <pt x="707" y="885" on="1"/>
        <pt x="553" y="559" on="1"/>
        <pt x="1059" y="559" on="1"/>
        <pt x="1059" y="477" on="1"/>
        <pt x="514" y="477" on="1"/>
        <pt x="375" y="178" on="1"/>
        <pt x="299" y="215" on="1"/>
        <pt x="422" y="477" on="1"/>
      </contour>
    </TTGlyph>
    <TTGlyph name="ntilde" xMin="76" yMin="0" xMax="1073" yMax="1477">
      <contour>
        <pt x="874" y="1249" on="1"/>
        <pt x="814" y="1249" on="0"/>
        <pt x="721" y="1313" on="1"/>
        <pt x="688" y="1336" on="0"/>
        <pt x="663" y="1352" on="0"/>
        <pt x="612" y="1372" on="0"/>
        <pt x="588" y="1372" on="1"/>
        <pt x="542" y="1372" on="0"/>
        <pt x="484" y="1314" on="0"/>
        <pt x="463" y="1243" on="1"/>
        <pt x="389" y="1243" on="1"/>
        <pt x="408" y="1352" on="0"/>
        <pt x="513" y="1468" on="0"/>
        <pt x="594" y="1468" on="1"/>
        <pt x="634" y="1468" on="0"/>
        <pt x="699" y="1441" on="0"/>
        <pt x="785" y="1382" on="1"/>
        <pt x="837" y="1346" on="0"/>
        <pt x="922" y="1346" on="0"/>
        <pt x="979" y="1408" on="0"/>
        <pt x="997" y="1477" on="1"/>
        <pt x="1073" y="1477" on="1"/>
        <pt x="1047" y="1360" on="0"/>
        <pt x="950" y="1249" on="0"/>
      </contour>
      <contour>
        <pt x="913" y="692" on="1"/>
        <pt x="934" y="784" on="0"/>
        <pt x="934" y="930" on="0"/>
        <pt x="845" y="1018" on="0"/>
        <pt x="756" y="1018" on="1"/>
        <pt x="643" y="1018" on="0"/>
        <pt x="545" y="951" on="1"/>
        <pt x="350" y="819" on="0"/>
        <pt x="276" y="477" on="1"/>
        <pt x="174" y="0" on="1"/>
        <pt x="76" y="0" on="1"/>
        <pt x="307" y="1087" on="1"/>
        <pt x="389" y="1087" on="1"/>
        <pt x="352" y="866" on="1"/>
        <pt x="358" y="866" on="1"/>
        <pt x="521" y="1104" on="0"/>
        <pt x="774" y="1104" on="1"/>
        <pt x="903" y="1104" on="0"/>
        <pt x="1034" y="977" on="0"/>
        <pt x="1034" y="856" on="1"/>
        <pt x="1034" y="786" on="0"/>
        <pt x="1010" y="674" on="1"/>
        <pt x="862" y="0" on="1"/>
        <pt x="764" y="0" on="1"/>
      </contour>
    </TTGlyph>
    <TTGlyph name="numbersign" xMin="82" yMin="0" xMax="1354" yMax="1462">
      <contour>
        <pt x="508" y="928" on="1"/>
        <pt x="211" y="928" on="1"/>
        <pt x="219" y="1008" on="1"/>
        <pt x="530" y="1008" on="1"/>
        <pt x="664" y="1462" on="1"/>
        <pt x="754" y="1462" on="1"/>
        <pt x="618" y="1008" on="1"/>
        <pt x="983" y="1008" on="1"/>
        <pt x="1118" y="1462" on="1"/>
        <pt x="1204" y="1462" on="1"/>
        <pt x="1069" y="1008" on="1"/>
        <pt x="1354" y="1008" on="1"/>
        <pt x="1346" y="928" on="1"/>
        <pt x="1044" y="928" on="1"/>
        <pt x="926" y="530" on="1"/>
        <pt x="1229" y="530" on="1"/>
        <pt x="1221" y="451" on="1"/>
        <pt x="901" y="451" on="1"/>
        <pt x="768" y="0" on="1"/>
        <pt x="678" y="0" on="1"/>
        <pt x="813" y="451" on="1"/>
        <pt x="453" y="451" on="1"/>
        <pt x="319" y="0" on="1"/>
        <pt x="231" y="0" on="1"/>
        <pt x="365" y="451" on="1"/>
        <pt x="82" y="451" on="1"/>
        <pt x="90" y="530" on="1"/>
        <pt x="389" y="530" on="1"/>
      </contour>
      <contour>
        <pt x="838" y="530" on="1"/>
        <pt x="958" y="928" on="1"/>
        <pt x="596" y="928" on="1"/>
        <pt x="475" y="530" on="1"/>
      </contour>
    </TTGlyph>
    <TTGlyph name="nundageshhb" xMin="-10" yMin="0" xMax="800" yMax="1310">
      <contour>
        <pt x="587" y="1310" on="1"/>
        <pt x="716" y="1310" on="0"/>
        <pt x="767" y="1228" on="1"/>
        <pt x="800" y="1175" on="0"/>
        <pt x="800" y="1100" on="1"/>
        <pt x="800" y="1061" on="0"/>
        <pt x="791" y="1015" on="1"/>
        <pt x="646" y="333" on="1"/>
        <pt x="631" y="265" on="0"/>
        <pt x="576" y="99" on="0"/>
        <pt x="556" y="50" on="1"/>
        <pt x="536" y="0" on="1"/>
        <pt x="-10" y="0" on="1"/>
        <pt x="8" y="88" on="1"/>
        <pt x="464" y="88" on="1"/>
        <pt x="518" y="215" on="0"/>
        <pt x="544" y="333" on="1"/>
        <pt x="689" y="1015" on="1"/>
        <pt x="696" y="1054" on="0"/>
        <pt x="696" y="1103" on="0"/>
        <pt x="694" y="1118" on="1"/>
        <pt x="690" y="1163" on="0"/>
        <pt x="622" y="1220" on="0"/>
        <pt x="487" y="1220" on="0"/>
        <pt x="392" y="1203" on="1"/>
        <pt x="412" y="1295" on="1"/>
        <pt x="490" y="1310" on="0"/>
      </contour>
      <contour>
        <pt x="408" y="741" on="1"/>
        <pt x="459" y="741" on="0"/>
        <pt x="459" y="692" on="1"/>
        <pt x="459" y="680" on="0"/>
        <pt x="456" y="665" on="1"/>
        <pt x="439" y="591" on="0"/>
        <pt x="376" y="591" on="1"/>
        <pt x="327" y="591" on="0"/>
        <pt x="327" y="637" on="1"/>
        <pt x="327" y="649" on="0"/>
        <pt x="331" y="665" on="1"/>
        <pt x="347" y="741" on="0"/>
      </contour>
    </TTGlyph>
    <TTGlyph name="o" xMin="98" yMin="-20" xMax="1026" yMax="1108">
      <contour>
        <pt x="649" y="1108" on="1"/>
        <pt x="830" y="1108" on="0"/>
        <pt x="927" y="999" on="1"/>
        <pt x="1026" y="891" on="0"/>
        <pt x="1026" y="504" on="0"/>
        <pt x="883" y="160" on="0"/>
        <pt x="635" y="-20" on="0"/>
        <pt x="473" y="-20" on="1"/>
        <pt x="290" y="-20" on="0"/>
        <pt x="98" y="198" on="0"/>
        <pt x="98" y="596" on="0"/>
        <pt x="244" y="928" on="0"/>
        <pt x="492" y="1108" on="0"/>
      </contour>
      <contour>
        <pt x="924" y="856" on="0"/>
        <pt x="778" y="1022" on="0"/>
        <pt x="516" y="1022" on="0"/>
        <pt x="318" y="864" on="0"/>
        <pt x="201" y="571" on="0"/>
        <pt x="201" y="408" on="1"/>
        <pt x="201" y="66" on="0"/>
        <pt x="483" y="66" on="1"/>
        <pt x="610" y="66" on="0"/>
        <pt x="806" y="220" on="0"/>
        <pt x="924" y="524" on="0"/>
      </contour>
    </TTGlyph>
    <TTGlyph name="oacute" xMin="98" yMin="-20" xMax="1026" yMax="1569">
      <contour>
        <pt x="573" y="1241" on="1"/>
        <pt x="573" y="1262" on="1"/>
        <pt x="641" y="1314" on="0"/>
        <pt x="723" y="1404" on="1"/>
        <pt x="807" y="1494" on="0"/>
        <pt x="853" y="1569" on="1"/>
        <pt x="990" y="1569" on="1"/>
        <pt x="990" y="1546" on="1"/>
        <pt x="940" y="1481" on="0"/>
        <pt x="832" y="1387" on="1"/>
        <pt x="723" y="1294" on="0"/>
        <pt x="640" y="1241" on="1"/>
      </contour>
      <contour>
        <pt x="649" y="1108" on="1"/>
        <pt x="830" y="1108" on="0"/>
        <pt x="927" y="999" on="1"/>
        <pt x="1026" y="891" on="0"/>
        <pt x="1026" y="504" on="0"/>
        <pt x="883" y="160" on="0"/>
        <pt x="635" y="-20" on="0"/>
        <pt x="473" y="-20" on="1"/>
        <pt x="290" y="-20" on="0"/>
        <pt x="98" y="198" on="0"/>
        <pt x="98" y="596" on="0"/>
        <pt x="244" y="928" on="0"/>
        <pt x="492" y="1108" on="0"/>
      </contour>
      <contour>
        <pt x="924" y="856" on="0"/>
        <pt x="778" y="1022" on="0"/>
        <pt x="516" y="1022" on="0"/>
        <pt x="318" y="864" on="0"/>
        <pt x="201" y="571" on="0"/>
        <pt x="201" y="408" on="1"/>
        <pt x="201" y="66" on="0"/>
        <pt x="483" y="66" on="1"/>
        <pt x="610" y="66" on="0"/>
        <pt x="806" y="220" on="0"/>
        <pt x="924" y="524" on="0"/>
      </contour>
    </TTGlyph>
    <TTGlyph name="ocircumflex" xMin="98" yMin="-20" xMax="1026" yMax="1569">
      <contour>
        <pt x="941" y="1241" on="1"/>
        <pt x="892" y="1241" on="1"/>
        <pt x="824" y="1299" on="0"/>
        <pt x="731" y="1448" on="1"/>
        <pt x="674" y="1389" on="0"/>
        <pt x="529" y="1271" on="0"/>
        <pt x="481" y="1241" on="1"/>
        <pt x="427" y="1241" on="1"/>
        <pt x="427" y="1270" on="1"/>
        <pt x="495" y="1326" on="0"/>
        <pt x="676" y="1514" on="0"/>
        <pt x="712" y="1569" on="1"/>
        <pt x="776" y="1569" on="1"/>
        <pt x="798" y="1504" on="0"/>
        <pt x="895" y="1332" on="0"/>
        <pt x="941" y="1270" on="1"/>
      </contour>
      <contour>
        <pt x="649" y="1108" on="1"/>
        <pt x="830" y="1108" on="0"/>
        <pt x="927" y="999" on="1"/>
        <pt x="1026" y="891" on="0"/>
        <pt x="1026" y="504" on="0"/>
        <pt x="883" y="160" on="0"/>
        <pt x="635" y="-20" on="0"/>
        <pt x="473" y="-20" on="1"/>
        <pt x="290" y="-20" on="0"/>
        <pt x="98" y="198" on="0"/>
        <pt x="98" y="596" on="0"/>
        <pt x="244" y="928" on="0"/>
        <pt x="492" y="1108" on="0"/>
      </contour>
      <contour>
        <pt x="924" y="856" on="0"/>
        <pt x="778" y="1022" on="0"/>
        <pt x="516" y="1022" on="0"/>
        <pt x="318" y="864" on="0"/>
        <pt x="201" y="571" on="0"/>
        <pt x="201" y="408" on="1"/>
        <pt x="201" y="66" on="0"/>
        <pt x="483" y="66" on="1"/>
        <pt x="610" y="66" on="0"/>
        <pt x="806" y="220" on="0"/>
        <pt x="924" y="524" on="0"/>
      </contour>
    </TTGlyph>
    <TTGlyph name="odieresis" xMin="98" yMin="-20" xMax="1026" yMax="1473">
      <contour>
        <pt x="468" y="1366" on="1"/>
        <pt x="468" y="1415" on="0"/>
        <pt x="509" y="1473" on="0"/>
        <pt x="545" y="1473" on="1"/>
        <pt x="599" y="1473" on="0"/>
        <pt x="599" y="1409" on="1"/>
        <pt x="599" y="1361" on="0"/>
        <pt x="557" y="1303" on="0"/>
        <pt x="523" y="1303" on="1"/>
        <pt x="468" y="1303" on="0"/>
      </contour>
      <contour>
        <pt x="812" y="1366" on="1"/>
        <pt x="812" y="1415" on="0"/>
        <pt x="853" y="1473" on="0"/>
        <pt x="889" y="1473" on="1"/>
        <pt x="943" y="1473" on="0"/>
        <pt x="943" y="1409" on="1"/>
        <pt x="943" y="1361" on="0"/>
        <pt x="901" y="1303" on="0"/>
        <pt x="867" y="1303" on="1"/>
        <pt x="812" y="1303" on="0"/>
      </contour>
      <contour>
        <pt x="649" y="1108" on="1"/>
        <pt x="830" y="1108" on="0"/>
        <pt x="927" y="999" on="1"/>
        <pt x="1026" y="891" on="0"/>
        <pt x="1026" y="504" on="0"/>
        <pt x="883" y="160" on="0"/>
        <pt x="635" y="-20" on="0"/>
        <pt x="473" y="-20" on="1"/>
        <pt x="290" y="-20" on="0"/>
        <pt x="98" y="198" on="0"/>
        <pt x="98" y="596" on="0"/>
        <pt x="244" y="928" on="0"/>
        <pt x="492" y="1108" on="0"/>
      </contour>
      <contour>
        <pt x="924" y="856" on="0"/>
        <pt x="778" y="1022" on="0"/>
        <pt x="516" y="1022" on="0"/>
        <pt x="318" y="864" on="0"/>
        <pt x="201" y="571" on="0"/>
        <pt x="201" y="408" on="1"/>
        <pt x="201" y="66" on="0"/>
        <pt x="483" y="66" on="1"/>
        <pt x="610" y="66" on="0"/>
        <pt x="806" y="220" on="0"/>
        <pt x="924" y="524" on="0"/>
      </contour>
    </TTGlyph>
    <TTGlyph name="oe" xMin="98" yMin="-20" xMax="1686" yMax="1108">
      <contour>
        <pt x="1561" y="49" on="1"/>
        <pt x="1422" y="-20" on="0"/>
        <pt x="1126" y="-20" on="0"/>
        <pt x="941" y="119" on="0"/>
        <pt x="909" y="250" on="1"/>
        <pt x="843" y="122" on="0"/>
        <pt x="615" y="-20" on="0"/>
        <pt x="473" y="-20" on="1"/>
        <pt x="290" y="-20" on="0"/>
        <pt x="98" y="198" on="0"/>
        <pt x="98" y="596" on="0"/>
        <pt x="244" y="928" on="0"/>
        <pt x="492" y="1108" on="0"/>
        <pt x="791" y="1108" on="0"/>
        <pt x="982" y="958" on="0"/>
        <pt x="1012" y="821" on="1"/>
        <pt x="1083" y="954" on="0"/>
        <pt x="1306" y="1104" on="0"/>
        <pt x="1551" y="1104" on="0"/>
        <pt x="1686" y="981" on="0"/>
        <pt x="1686" y="877" on="1"/>
        <pt x="1686" y="695" on="0"/>
        <pt x="1358" y="506" on="0"/>
        <pt x="1036" y="506" on="1"/>
        <pt x="1004" y="506" on="1"/>
        <pt x="997" y="471" on="0"/>
        <pt x="997" y="408" on="1"/>
        <pt x="997" y="243" on="0"/>
        <pt x="1145" y="70" on="0"/>
        <pt x="1418" y="70" on="0"/>
        <pt x="1561" y="143" on="1"/>
      </contour>
      <contour>
        <pt x="924" y="856" on="0"/>
        <pt x="778" y="1022" on="0"/>
        <pt x="516" y="1022" on="0"/>
        <pt x="318" y="864" on="0"/>
        <pt x="201" y="571" on="0"/>
        <pt x="201" y="408" on="1"/>
        <pt x="201" y="66" on="0"/>
        <pt x="483" y="66" on="1"/>
        <pt x="610" y="66" on="0"/>
        <pt x="806" y="220" on="0"/>
        <pt x="924" y="524" on="0"/>
      </contour>
      <contour>
        <pt x="1067" y="594" on="1"/>
        <pt x="1583" y="594" on="0"/>
        <pt x="1583" y="864" on="1"/>
        <pt x="1583" y="933" on="0"/>
        <pt x="1495" y="1018" on="0"/>
        <pt x="1423" y="1018" on="1"/>
        <pt x="1292" y="1018" on="0"/>
        <pt x="1068" y="788" on="0"/>
        <pt x="1018" y="594" on="1"/>
      </contour>
    </TTGlyph>
    <TTGlyph name="ogonek" xMin="-135" yMin="-414" xMax="154" yMax="0">
      <contour>
        <pt x="-43" y="-256" on="1"/>
        <pt x="-43" y="-338" on="0"/>
        <pt x="45" y="-338" on="1"/>
        <pt x="80" y="-338" on="0"/>
        <pt x="121" y="-328" on="1"/>
        <pt x="121" y="-399" on="1"/>
        <pt x="80" y="-414" on="0"/>
        <pt x="-52" y="-414" on="0"/>
        <pt x="-135" y="-338" on="0"/>
        <pt x="-135" y="-200" on="0"/>
        <pt x="-39" y="-71" on="0"/>
        <pt x="82" y="0" on="1"/>
        <pt x="154" y="0" on="1"/>
        <pt x="79" y="-60" on="1"/>
        <pt x="-43" y="-155" on="0"/>
      </contour>
    </TTGlyph>
    <TTGlyph name="ograve" xMin="98" yMin="-20" xMax="1026" yMax="1569">
      <contour>
        <pt x="744" y="1241" on="1"/>
        <pt x="678" y="1241" on="1"/>
        <pt x="628" y="1294" on="0"/>
        <pt x="499" y="1479" on="0"/>
        <pt x="465" y="1548" on="1"/>
        <pt x="465" y="1569" on="1"/>
        <pt x="580" y="1569" on="1"/>
        <pt x="628" y="1437" on="0"/>
        <pt x="744" y="1266" on="1"/>
      </contour>
      <contour>
        <pt x="649" y="1108" on="1"/>
        <pt x="830" y="1108" on="0"/>
        <pt x="927" y="999" on="1"/>
        <pt x="1026" y="891" on="0"/>
        <pt x="1026" y="504" on="0"/>
        <pt x="883" y="160" on="0"/>
        <pt x="635" y="-20" on="0"/>
        <pt x="473" y="-20" on="1"/>
        <pt x="290" y="-20" on="0"/>
        <pt x="98" y="198" on="0"/>
        <pt x="98" y="596" on="0"/>
        <pt x="244" y="928" on="0"/>
        <pt x="492" y="1108" on="0"/>
      </contour>
      <contour>
        <pt x="924" y="856" on="0"/>
        <pt x="778" y="1022" on="0"/>
        <pt x="516" y="1022" on="0"/>
        <pt x="318" y="864" on="0"/>
        <pt x="201" y="571" on="0"/>
        <pt x="201" y="408" on="1"/>
        <pt x="201" y="66" on="0"/>
        <pt x="483" y="66" on="1"/>
        <pt x="610" y="66" on="0"/>
        <pt x="806" y="220" on="0"/>
        <pt x="924" y="524" on="0"/>
      </contour>
    </TTGlyph>
    <TTGlyph name="one" xMin="354" yMin="0" xMax="850" yMax="1462">
      <contour>
        <pt x="432" y="0" on="1"/>
        <pt x="657" y="1055" on="1"/>
        <pt x="680" y="1165" on="0"/>
        <pt x="731" y="1348" on="1"/>
        <pt x="690" y="1313" on="0"/>
        <pt x="629" y="1267" on="0"/>
        <pt x="406" y="1126" on="1"/>
        <pt x="354" y="1204" on="1"/>
        <pt x="760" y="1462" on="1"/>
        <pt x="850" y="1462" on="1"/>
        <pt x="537" y="0" on="1"/>
      </contour>
    </TTGlyph>
    <TTGlyph name="ordfeminine" xMin="170" yMin="811" xMax="758" yMax="1485">
      <contour>
        <pt x="344" y="811" on="1"/>
        <pt x="263" y="811" on="0"/>
        <pt x="170" y="925" on="0"/>
        <pt x="170" y="1032" on="1"/>
        <pt x="170" y="1221" on="0"/>
        <pt x="260" y="1353" on="1"/>
        <pt x="351" y="1485" on="0"/>
        <pt x="487" y="1485" on="1"/>
        <pt x="603" y="1485" on="0"/>
        <pt x="651" y="1370" on="1"/>
        <pt x="657" y="1370" on="1"/>
        <pt x="692" y="1473" on="1"/>
        <pt x="758" y="1473" on="1"/>
        <pt x="621" y="823" on="1"/>
        <pt x="549" y="823" on="1"/>
        <pt x="571" y="948" on="1"/>
        <pt x="567" y="948" on="1"/>
        <pt x="471" y="811" on="0"/>
      </contour>
      <contour>
        <pt x="369" y="885" on="1"/>
        <pt x="434" y="885" on="0"/>
        <pt x="571" y="1038" on="0"/>
        <pt x="600" y="1145" on="1"/>
        <pt x="616" y="1194" on="0"/>
        <pt x="616" y="1326" on="0"/>
        <pt x="544" y="1411" on="0"/>
        <pt x="487" y="1411" on="1"/>
        <pt x="392" y="1411" on="0"/>
        <pt x="258" y="1189" on="0"/>
        <pt x="258" y="1028" on="1"/>
        <pt x="258" y="885" on="0"/>
      </contour>
    </TTGlyph>
    <TTGlyph name="ordmasculine" xMin="190" yMin="807" xMax="743" yMax="1479">
      <contour>
        <pt x="273" y="1367" on="0"/>
        <pt x="423" y="1479" on="0"/>
        <pt x="624" y="1479" on="0"/>
        <pt x="743" y="1351" on="0"/>
        <pt x="743" y="1231" on="1"/>
        <pt x="743" y="1056" on="0"/>
        <pt x="563" y="807" on="0"/>
        <pt x="423" y="807" on="1"/>
        <pt x="418" y="807" on="0"/>
        <pt x="414" y="807" on="1"/>
        <pt x="302" y="807" on="0"/>
        <pt x="190" y="939" on="0"/>
        <pt x="190" y="1169" on="0"/>
        <pt x="231" y="1268" on="1"/>
      </contour>
      <contour>
        <pt x="503" y="1405" on="1"/>
        <pt x="439" y="1405" on="0"/>
        <pt x="329" y="1311" on="0"/>
        <pt x="270" y="1158" on="0"/>
        <pt x="270" y="1073" on="1"/>
        <pt x="270" y="1070" on="0"/>
        <pt x="270" y="1067" on="1"/>
        <pt x="270" y="881" on="0"/>
        <pt x="426" y="881" on="1"/>
        <pt x="430" y="881" on="0"/>
        <pt x="434" y="881" on="1"/>
        <pt x="533" y="881" on="0"/>
        <pt x="662" y="1084" on="0"/>
        <pt x="662" y="1231" on="1"/>
        <pt x="662" y="1315" on="0"/>
        <pt x="583" y="1405" on="0"/>
        <pt x="508" y="1405" on="1"/>
        <pt x="505" y="1405" on="0"/>
      </contour>
    </TTGlyph>
    <TTGlyph name="oslash" xMin="45" yMin="-72" xMax="1073" yMax="1159">
      <contour>
        <pt x="164" y="127" on="1"/>
        <pt x="98" y="234" on="0"/>
        <pt x="98" y="596" on="0"/>
        <pt x="244" y="928" on="0"/>
        <pt x="492" y="1108" on="0"/>
        <pt x="799" y="1108" on="0"/>
        <pt x="899" y="1026" on="1"/>
        <pt x="1008" y="1159" on="1"/>
        <pt x="1073" y="1106" on="1"/>
        <pt x="956" y="963" on="1"/>
        <pt x="1026" y="859" on="0"/>
        <pt x="1026" y="700" on="1"/>
        <pt x="1026" y="504" on="0"/>
        <pt x="883" y="160" on="0"/>
        <pt x="635" y="-20" on="0"/>
        <pt x="311" y="-20" on="0"/>
        <pt x="219" y="63" on="1"/>
        <pt x="109" y="-72" on="1"/>
        <pt x="45" y="-18" on="1"/>
      </contour>
      <contour>
        <pt x="838" y="950" on="1"/>
        <pt x="764" y="1022" on="0"/>
        <pt x="516" y="1022" on="0"/>
        <pt x="318" y="864" on="0"/>
        <pt x="201" y="571" on="0"/>
        <pt x="201" y="408" on="1"/>
        <pt x="201" y="284" on="0"/>
        <pt x="233" y="211" on="1"/>
      </contour>
      <contour>
        <pt x="281" y="139" on="1"/>
        <pt x="348" y="66" on="0"/>
        <pt x="610" y="66" on="0"/>
        <pt x="806" y="220" on="0"/>
        <pt x="924" y="524" on="0"/>
        <pt x="924" y="702" on="1"/>
        <pt x="924" y="802" on="0"/>
        <pt x="889" y="881" on="1"/>
      </contour>
    </TTGlyph>
</ttFont>
